<?xml version="1.0" encoding="UTF-8"?>
<svg id="Layer_2" data-name="Layer 2" xmlns="http://www.w3.org/2000/svg" viewBox="0 0 862.46 347.36">
  <defs>
    <style>
      .cls-1 {
        font-family: Beardsons-Extras, 'Beardsons Extras';
        font-size: 65px;
      }

      .cls-1, .cls-2, .cls-3 {
        fill: #160802;
      }

      .cls-4 {
        fill: #ad8221;
      }

      .cls-5 {
        fill: none;
        stroke: #444;
        stroke-miterlimit: 10;
      }

      .cls-3 {
        font-family: ChineseRocksRg-Regular, 'Chinese Rocks';
        font-size: 70px;
      }

      .cls-6 {
        opacity: .39;
      }

      .cls-7 {
        fill: #545454;
      }

      .cls-8 {
        fill: #f7f7f7;
      }

      .cls-9 {
        letter-spacing: -.08em;
      }
    </style>
  </defs>
  <g id="Layer_1" data-name="Layer 1">
    <g id="LOGO_BALKAN_BRANCO_E_PRETO" data-name="LOGO BALKAN BRANCO E PRETO">
      <path class="cls-8" d="M682.53,9c18.34,0,19.28,5.33,44.02,8.02,6.26.68,11.56.92,16.2.92,11.61,0,19-1.53,26.5-1.53,5.23,0,10.52.74,17.32,3.27,7.98,2.96,25.93,9.62,31.54,26.78,5.74,17.57-3.32,40.47-15.11,44.21-3.77,1.2-8.93.78-12.44,5.01-2.09,2.51-3.5,6.54-1.98,8.89,1.27,1.97,4.28,2.29,6.37,2.29.8,0,1.46-.05,1.84-.06.24-.01.48-.02.73-.02,13.05,0,31.06,16.17,39.27,26.5,13.7,17.23,22.97,46.96,11.56,68.19-9.58,17.8-24.57,12.63-32.89,29.78-11.57,23.84,12.95,43.12,0,64.89-6.26,10.53-12.66,6.36-30.67,27.08-5.74,6.61-9.45,12.06-17.12,14.25-2.23.64-4.45.9-6.6.9-7.37,0-13.83-3.07-16.73-4.45-11.62-5.52-12.11-11.79-21.78-16.62-5.15-2.57-9.93-3.26-14.72-3.26-4.19,0-8.38.52-12.83.77-1.74.1-3.38.14-4.96.14-19.12,0-27.06-6.72-54.16-12.14-20.61-4.12-33.99-3.83-64-4-34.55-.19-78.84-.93-140.66-2.67-61.82,1.74-106.11,2.47-140.66,2.67-30.01.17-43.39-.12-64,4-27.09,5.42-35.03,12.14-54.16,12.14-1.57,0-3.22-.05-4.96-.14-4.45-.24-8.65-.77-12.83-.77-4.79,0-9.58.69-14.72,3.26-9.67,4.83-10.16,11.09-21.78,16.62-2.9,1.38-9.36,4.45-16.73,4.45-2.14,0-4.36-.26-6.6-.9-7.67-2.19-11.38-7.64-17.12-14.25-18.01-20.72-24.41-16.56-30.67-27.08-12.95-21.77,11.57-41.04,0-64.89-8.32-17.14-23.31-11.97-32.89-29.78-11.42-21.22-2.14-50.95,11.56-68.19,8.21-10.33,26.23-26.5,39.27-26.5.24,0,.49,0,.73.02.38.02,1.04.06,1.84.06,2.09,0,5.1-.32,6.37-2.29,1.51-2.35.11-6.38-1.98-8.89-3.51-4.22-8.67-3.81-12.44-5.01-11.79-3.74-20.85-26.64-15.11-44.21,5.61-17.16,23.56-23.82,31.54-26.78,6.81-2.52,12.09-3.27,17.32-3.27,7.49,0,14.89,1.53,26.5,1.53,4.64,0,9.94-.24,16.2-.92,24.74-2.69,25.68-8.02,44.02-8.02.68,0,1.37,0,2.1.02,17.29.35,16.48,4.38,42.77,6.67,20.46,1.78,26.73-.15,38.67,4.89,12.12,5.12,13.67,10.51,22.91,15.87,7.53,4.37,15.29,5.89,23.31,5.89,12.21,0,25.05-3.52,38.66-5.89,10.61-1.84,24.06-3.4,40.27-3.4,12.56,0,26.79.94,42.61,3.4,15.83-2.47,30.04-3.4,42.61-3.4,16.2,0,29.66,1.56,40.27,3.4,13.62,2.37,26.45,5.89,38.66,5.89,8.02,0,15.78-1.52,23.31-5.89,9.25-5.36,10.8-10.75,22.91-15.87,11.93-5.04,18.21-3.11,38.67-4.89,26.29-2.29,25.47-6.31,42.77-6.67.73-.01,1.42-.02,2.1-.02M682.53,0h0c-.74,0-1.49,0-2.28.02-9.5.19-14.46,1.46-19.71,2.8-5.13,1.31-10.95,2.79-23.65,3.9-6.33.55-11.2.73-15.5.89-9.44.35-16.26.6-25.9,4.67-8.44,3.57-12.74,7.38-16.53,10.75-2.32,2.06-4.33,3.85-7.39,5.62-5.5,3.19-11.47,4.67-18.8,4.67-7.92,0-16.56-1.73-25.7-3.57-3.69-.74-7.51-1.51-11.42-2.19-13.49-2.35-27.56-3.53-41.81-3.54-13.81,0-28.13,1.11-42.61,3.3-14.48-2.19-28.8-3.3-42.61-3.3-14.25,0-28.32,1.19-41.81,3.54-3.9.68-7.72,1.44-11.41,2.19-9.15,1.83-17.78,3.57-25.7,3.57-7.33,0-13.3-1.48-18.8-4.67-3.06-1.77-5.07-3.56-7.39-5.62-3.79-3.37-8.09-7.18-16.53-10.75-9.63-4.07-16.45-4.32-25.9-4.67-4.3-.16-9.17-.34-15.5-.89-12.69-1.1-18.51-2.59-23.65-3.9-5.25-1.34-10.22-2.61-19.71-2.8-.79-.02-1.55-.02-2.28-.02-10.84,0-16.67,1.73-22.84,3.57-5.19,1.55-11.08,3.3-22.16,4.5-5.39.59-10.37.87-15.23.87-6.03,0-10.76-.43-15.34-.85-3.81-.35-7.41-.68-11.15-.68-7,0-13.31,1.18-20.45,3.83-8.98,3.33-30.01,11.13-36.96,32.42-3.94,12.05-2.53,27.06,3.68,39.17,4.24,8.27,10.23,14.05,16.9,16.3-15.36,4.6-30.81,19.84-37.73,28.54-16.13,20.29-25.58,53.61-12.44,78.05,6.11,11.37,14.22,15.53,20.73,18.88,5.5,2.83,9.14,4.7,11.98,10.56,4.21,8.68,1.81,16.92-.97,26.45-3.21,11.03-7.21,24.75,1.33,39.11,3.98,6.69,8.42,9.41,12.72,12.03,4.44,2.71,9.96,6.09,18.89,16.36.76.87,1.48,1.72,2.17,2.54,4.92,5.81,10.01,11.82,19.27,14.46,2.89.82,5.94,1.24,9.06,1.24,9.4,0,17.25-3.73,20.59-5.32,7.61-3.62,11.53-7.67,14.69-10.92,2.36-2.43,4.06-4.18,7.25-5.78,3.24-1.62,6.44-2.31,10.7-2.31,2.3,0,4.75.19,7.34.4,1.61.13,3.27.26,5,.35,1.87.1,3.7.15,5.45.15,12.54,0,20.99-2.64,30.78-5.69,6.72-2.09,14.33-4.47,25.14-6.63,18.1-3.62,30.55-3.68,55.36-3.79,2.21-.01,4.51-.02,6.92-.03,38.62-.22,84.62-1.09,140.61-2.66,55.99,1.58,101.99,2.45,140.61,2.66,2.41.01,4.71.02,6.92.03,24.81.11,37.26.17,55.36,3.79,10.81,2.16,18.42,4.54,25.14,6.63,9.79,3.05,18.24,5.69,30.78,5.69,1.75,0,3.58-.05,5.45-.15,1.73-.09,3.39-.23,5-.35,2.59-.21,5.04-.4,7.34-.4,4.26,0,7.46.69,10.7,2.31,3.19,1.59,4.89,3.35,7.25,5.78,3.16,3.25,7.09,7.3,14.69,10.92,3.35,1.59,11.19,5.32,20.6,5.32,3.12,0,6.17-.42,9.06-1.24,9.26-2.64,14.35-8.65,19.27-14.46.7-.82,1.42-1.67,2.17-2.54,8.93-10.27,14.45-13.64,18.89-16.36,4.3-2.62,8.74-5.34,12.72-12.03,8.54-14.36,4.54-28.08,1.33-39.11-2.78-9.54-5.18-17.77-.97-26.45,2.85-5.87,6.48-7.73,11.98-10.56,6.51-3.35,14.62-7.51,20.73-18.88,13.14-24.44,3.69-57.76-12.44-78.05-6.92-8.71-22.37-23.94-37.73-28.54,6.67-2.25,12.65-8.03,16.9-16.3,6.21-12.11,7.62-27.11,3.68-39.17-6.96-21.29-27.98-29.09-36.96-32.42-7.14-2.65-13.45-3.83-20.45-3.83-3.75,0-7.35.33-11.16.68-4.58.42-9.31.85-15.34.85-4.86,0-9.84-.28-15.23-.87-11.08-1.21-16.97-2.96-22.16-4.5-6.17-1.84-12-3.57-22.84-3.57h0Z"/>
      <g>
        <path class="cls-8" d="M761.06,338.49c-7.4,0-13.98-3.13-16.78-4.46-6.16-2.93-9.2-6.06-12.13-9.08-2.63-2.71-5.11-5.27-9.65-7.54-4.49-2.25-9.01-3.25-14.67-3.25-2.65,0-5.27.21-8.04.43-1.57.12-3.16.25-4.79.34-1.71.09-3.38.14-4.96.14-11.19,0-18.67-2.33-28.14-5.29-6.92-2.16-14.77-4.6-26.04-6.86-18.94-3.79-31.68-3.85-57.06-3.96l-6.92-.03c-38.58-.21-84.59-1.09-140.66-2.67-56.06,1.58-102.07,2.45-140.65,2.67l-6.92.03c-25.38.12-38.12.17-57.06,3.96-11.26,2.25-19.11,4.7-26.04,6.86-9.47,2.95-16.95,5.28-28.14,5.28-1.59,0-3.26-.05-4.97-.14-1.63-.09-3.22-.21-4.79-.34-2.77-.22-5.39-.43-8.04-.43-5.65,0-10.18,1-14.67,3.25-4.54,2.27-7.02,4.83-9.65,7.54-2.94,3.03-5.97,6.15-12.13,9.08-2.81,1.33-9.38,4.46-16.78,4.46-2.3,0-4.53-.3-6.63-.9-6.66-1.9-10.31-6.21-14.93-11.66-.72-.85-1.47-1.73-2.25-2.63-9.83-11.31-16.26-15.24-20.96-18.11-3.98-2.43-6.86-4.19-9.72-8.99-6.57-11.04-3.59-21.27-.44-32.09,3.02-10.35,6.13-21.05.43-32.81-4.14-8.53-9.86-11.47-15.91-14.58-5.98-3.07-12.17-6.25-16.97-15.19-11.21-20.83-2.4-50.75,11.57-68.32,8.76-11.02,26.77-26.54,39.37-26.54.25,0,.49,0,.73.02h.25c.39.03.94.06,1.58.06,3.2,0,5.31-.75,6.26-2.23,1.45-2.25.13-6.21-1.97-8.74-2.52-3.03-5.97-3.66-9.02-4.22-1.2-.22-2.32-.42-3.37-.75-4.54-1.44-8.82-5.71-12.05-12.01-5.17-10.08-6.37-22.48-3.14-32.36,5.62-17.21,23.84-23.97,31.61-26.86,6.11-2.27,11.46-3.28,17.37-3.28,3.34,0,6.59.3,10.35.64,4.55.42,9.71.89,16.15.89,5.18,0,10.48-.3,16.19-.92,11.88-1.29,18.18-3.17,23.73-4.82,6.01-1.79,10.76-3.2,20.31-3.2.68,0,1.38,0,2.1.02,8.48.17,12.55,1.21,17.7,2.53,5.19,1.32,11.66,2.97,25.07,4.14,6.55.57,11.53.75,15.93.92,9.13.34,14.64.54,22.77,3.98,7.1,3,10.65,6.16,14.09,9.21,2.46,2.18,5,4.44,8.83,6.66,6.81,3.95,14.42,5.87,23.25,5.87s17.86-1.82,27.45-3.74c3.64-.73,7.4-1.48,11.19-2.14,12.99-2.26,26.55-3.4,40.29-3.4s28.13,1.14,42.63,3.4c14.46-2.26,28.8-3.4,42.59-3.4s27.3,1.14,40.29,3.4c3.79.66,7.55,1.41,11.19,2.14,9.59,1.92,18.65,3.74,27.45,3.74,8.83,0,16.44-1.92,23.25-5.87,3.83-2.22,6.38-4.48,8.83-6.66,3.44-3.05,7-6.21,14.09-9.21,8.13-3.44,13.64-3.64,22.77-3.98,4.4-.16,9.39-.35,15.93-.92,13.42-1.17,19.88-2.82,25.07-4.14,5.16-1.32,9.23-2.35,17.7-2.53.73-.01,1.42-.02,2.1-.02,9.54,0,14.29,1.41,20.31,3.2,5.56,1.65,11.85,3.53,23.73,4.82,5.71.62,11.01.92,16.19.92,6.43,0,11.59-.47,16.15-.89,3.76-.34,7-.64,10.35-.64,5.9,0,11.26,1.01,17.36,3.28,7.78,2.88,25.99,9.64,31.61,26.86,3.23,9.88,2.03,22.28-3.14,32.36-3.23,6.3-7.51,10.57-12.05,12.01-1.04.33-2.17.54-3.37.75-3.04.55-6.5,1.18-9.02,4.22-2.11,2.53-3.42,6.49-1.97,8.74.95,1.48,3.06,2.23,6.26,2.23.64,0,1.19-.03,1.58-.05h.25c.24-.02.49-.03.73-.03,12.6,0,30.61,15.52,39.37,26.54,13.97,17.57,22.77,47.49,11.57,68.32-4.81,8.94-10.99,12.12-16.97,15.19-6.05,3.11-11.77,6.05-15.91,14.58-5.7,11.76-2.59,22.46.43,32.81,3.15,10.82,6.13,21.05-.43,32.09-2.86,4.8-5.73,6.56-9.72,8.99-4.7,2.87-11.14,6.8-20.96,18.11-.78.9-1.53,1.78-2.25,2.63-4.62,5.45-8.27,9.76-14.93,11.66-2.1.6-4.33.9-6.63.9h0Z"/>
        <path class="cls-4" d="M682.53,9c18.34,0,19.28,5.33,44.02,8.02,6.26.68,11.56.92,16.2.92,11.61,0,19-1.53,26.5-1.53,5.23,0,10.52.74,17.32,3.27,7.98,2.96,25.93,9.62,31.54,26.78,5.74,17.57-3.32,40.47-15.11,44.21-3.77,1.2-8.93.78-12.44,5.01-2.09,2.51-3.5,6.54-1.98,8.89,1.27,1.97,4.28,2.29,6.37,2.29.8,0,1.46-.05,1.84-.06.24-.01.48-.02.73-.02,13.05,0,31.06,16.17,39.27,26.5,13.7,17.23,22.97,46.96,11.56,68.19-9.58,17.8-24.57,12.63-32.89,29.78-11.57,23.84,12.95,43.12,0,64.89-6.26,10.53-12.66,6.36-30.67,27.08-5.74,6.61-9.45,12.06-17.12,14.25-2.23.64-4.45.9-6.6.9-7.37,0-13.83-3.07-16.73-4.45-11.62-5.52-12.11-11.79-21.78-16.62-5.15-2.57-9.93-3.26-14.72-3.26-4.19,0-8.38.52-12.83.77-1.74.1-3.38.14-4.96.14-19.12,0-27.06-6.72-54.16-12.14-20.61-4.12-33.99-3.83-64-4-34.55-.19-78.84-.93-140.66-2.67-61.82,1.74-106.11,2.47-140.66,2.67-30.01.17-43.39-.12-64,4-27.09,5.42-35.03,12.14-54.16,12.14-1.57,0-3.22-.05-4.96-.14-4.45-.24-8.65-.77-12.83-.77-4.79,0-9.58.69-14.72,3.26-9.67,4.83-10.16,11.09-21.78,16.62-2.9,1.38-9.36,4.45-16.73,4.45-2.14,0-4.36-.26-6.6-.9-7.67-2.19-11.38-7.64-17.12-14.25-18.01-20.72-24.41-16.56-30.67-27.08-12.95-21.77,11.57-41.04,0-64.89-8.32-17.14-23.31-11.97-32.89-29.78-11.42-21.22-2.14-50.95,11.56-68.19,8.21-10.33,26.23-26.5,39.27-26.5.24,0,.49,0,.73.02.38.02,1.04.06,1.83.06,2.09,0,5.1-.32,6.37-2.29,1.51-2.35.11-6.38-1.98-8.89-3.51-4.22-8.67-3.81-12.44-5.01-11.79-3.74-20.85-26.64-15.11-44.21,5.61-17.16,23.56-23.82,31.54-26.78,6.81-2.52,12.09-3.27,17.32-3.27,7.49,0,14.89,1.53,26.5,1.53,4.64,0,9.94-.24,16.2-.92,24.74-2.69,25.68-8.02,44.02-8.02.68,0,1.37,0,2.1.02,17.29.35,16.48,4.38,42.76,6.67,20.46,1.78,26.73-.15,38.67,4.89,12.12,5.12,13.67,10.51,22.91,15.87,7.53,4.37,15.29,5.89,23.31,5.89,12.21,0,25.05-3.52,38.66-5.89,10.61-1.84,24.06-3.4,40.27-3.4,12.56,0,26.78.94,42.61,3.4,15.83-2.47,30.04-3.4,42.61-3.4,16.2,0,29.66,1.56,40.27,3.4,13.62,2.37,26.45,5.89,38.66,5.89,8.02,0,15.78-1.52,23.31-5.89,9.25-5.36,10.8-10.75,22.91-15.87,11.93-5.04,18.21-3.11,38.67-4.89,26.29-2.29,25.47-6.31,42.76-6.67.73-.01,1.42-.02,2.1-.02M682.53,8.75c-.68,0-1.38,0-2.1.02-8.49.17-12.57,1.21-17.73,2.53-5.19,1.32-11.65,2.97-25.05,4.14-6.54.57-11.53.75-15.93.92-9.14.34-14.66.54-22.81,3.99-7.12,3.01-10.68,6.17-14.13,9.23-2.45,2.18-4.99,4.43-8.81,6.65-6.79,3.94-14.38,5.85-23.19,5.85s-17.84-1.82-27.42-3.74c-3.64-.73-7.4-1.48-11.19-2.14-13-2.26-26.56-3.41-40.31-3.41-13.78,0-28.12,1.14-42.61,3.4-14.49-2.26-28.82-3.4-42.61-3.4-13.75,0-27.31,1.15-40.31,3.41-3.79.66-7.55,1.41-11.19,2.14-9.58,1.92-18.64,3.74-27.43,3.74s-16.4-1.91-23.19-5.85c-3.82-2.22-6.36-4.47-8.81-6.65-3.45-3.06-7.01-6.23-14.13-9.23-8.15-3.45-13.67-3.65-22.81-3.99-4.4-.16-9.38-.35-15.93-.92-13.41-1.17-19.86-2.81-25.05-4.14-5.16-1.32-9.24-2.36-17.73-2.53-.73-.01-1.43-.02-2.1-.02-9.56,0-14.32,1.42-20.34,3.21-5.55,1.65-11.84,3.52-23.71,4.82-5.7.62-10.99.92-16.17.92-6.43,0-11.59-.47-16.14-.89-3.76-.34-7.01-.64-10.36-.64-5.92,0-11.29,1.01-17.41,3.28-7.79,2.89-26.04,9.66-31.69,26.93-3.24,9.92-2.03,22.35,3.15,32.46,3.25,6.33,7.55,10.62,12.13,12.07,1.05.33,2.18.54,3.38.76,3.17.58,6.45,1.18,8.95,4.17,2.08,2.5,3.38,6.39,1.96,8.59-.93,1.44-3,2.17-6.16,2.17-.64,0-1.18-.03-1.57-.05h-.25c-.24-.02-.49-.03-.74-.03-13.35,0-31.29,16.31-39.47,26.59-7.19,9.05-12.75,20.97-15.25,32.7-2.01,9.46-3.01,23.35,3.66,35.76,4.83,8.97,11.03,12.16,17.03,15.24,6.04,3.1,11.74,6.03,15.86,14.53,5.68,11.71,2.57,22.39-.44,32.72-3.16,10.85-6.15,21.1.45,32.19,2.87,4.83,5.76,6.59,9.76,9.04,4.69,2.87,11.12,6.79,20.93,18.08.78.9,1.53,1.78,2.25,2.63,4.63,5.47,8.29,9.79,14.99,11.7,2.11.6,4.35.91,6.66.91,7.43,0,14.02-3.14,16.84-4.48,6.18-2.94,9.23-6.08,12.17-9.11,2.62-2.7,5.1-5.25,9.61-7.51,4.47-2.24,8.98-3.23,14.61-3.23,2.65,0,5.26.21,8.03.43,1.55.12,3.16.25,4.79.34,1.71.09,3.38.14,4.97.14,11.21,0,18.7-2.33,28.18-5.29,6.92-2.16,14.77-4.6,26.02-6.86,18.93-3.79,31.67-3.85,57.04-3.96,2.21-.01,4.51-.02,6.91-.03,38.61-.22,84.62-1.09,140.66-2.67,56.03,1.58,102.04,2.45,140.65,2.67,2.41.01,4.71.02,6.91.03,25.37.12,38.11.17,57.04,3.96,11.26,2.25,19.1,4.7,26.02,6.85,9.48,2.96,16.97,5.29,28.18,5.29,1.59,0,3.26-.05,4.97-.14,1.63-.09,3.23-.22,4.79-.34,2.77-.22,5.38-.43,8.03-.43,5.63,0,10.14,1,14.61,3.23,4.52,2.26,6.99,4.81,9.61,7.51,2.94,3.03,5.99,6.17,12.17,9.11,2.82,1.34,9.41,4.48,16.84,4.48,2.31,0,4.56-.3,6.66-.91,6.7-1.91,10.36-6.23,14.99-11.7.72-.85,1.46-1.73,2.25-2.63,9.81-11.29,16.24-15.22,20.93-18.08,4-2.44,6.89-4.21,9.76-9.04,6.59-11.09,3.61-21.34.45-32.19-3.01-10.33-6.12-21.01-.44-32.72,4.12-8.49,9.82-11.42,15.86-14.53,6-3.08,12.2-6.27,17.03-15.24,6.68-12.41,5.68-26.3,3.66-35.76-2.5-11.73-8.05-23.65-15.24-32.7-8.17-10.28-26.12-26.59-39.47-26.59-.25,0-.49,0-.74.02h-.25c-.4.03-.94.06-1.57.06-3.16,0-5.23-.73-6.16-2.17-1.42-2.2-.11-6.1,1.96-8.59,2.49-3,5.77-3.59,8.95-4.17,1.2-.22,2.33-.43,3.38-.76,4.57-1.45,8.88-5.74,12.13-12.07,5.18-10.1,6.39-22.54,3.15-32.46-5.64-17.27-23.89-24.04-31.69-26.93-6.12-2.27-11.49-3.28-17.41-3.28-3.35,0-6.6.3-10.36.64-4.55.42-9.71.89-16.13.89-5.18,0-10.47-.3-16.17-.92-11.87-1.29-18.16-3.16-23.71-4.82-6.02-1.79-10.78-3.21-20.34-3.21h0Z"/>
      </g>
      <path class="cls-2" d="M682.53,9c18.34,0,19.28,5.33,44.02,8.02,6.26.68,11.56.92,16.2.92,11.61,0,19-1.53,26.5-1.53,5.23,0,10.52.74,17.32,3.27,7.98,2.96,25.93,9.62,31.54,26.78,5.74,17.57-3.32,40.47-15.11,44.21-3.77,1.2-8.93.78-12.44,5.01-2.09,2.51-3.5,6.54-1.98,8.89,1.27,1.97,4.28,2.29,6.37,2.29.8,0,1.46-.05,1.83-.06.24-.01.48-.02.73-.02,13.05,0,31.06,16.17,39.27,26.5,13.7,17.23,22.97,46.96,11.56,68.19-9.58,17.8-24.57,12.63-32.89,29.78-11.57,23.84,12.95,43.12,0,64.89-6.26,10.53-12.66,6.36-30.67,27.08-5.74,6.61-9.45,12.06-17.12,14.25-2.23.64-4.45.9-6.6.9-7.37,0-13.83-3.07-16.73-4.45-11.62-5.52-12.11-11.79-21.78-16.62-5.15-2.57-9.93-3.26-14.72-3.26-4.19,0-8.38.52-12.83.77-1.74.1-3.38.14-4.96.14-19.12,0-27.06-6.72-54.16-12.14-20.61-4.12-33.99-3.83-64-4-34.55-.19-78.84-.93-140.66-2.67-61.82,1.74-106.11,2.47-140.66,2.67-30.01.17-43.39-.12-64,4-27.09,5.42-35.03,12.14-54.16,12.14-1.57,0-3.22-.05-4.96-.14-4.45-.24-8.65-.77-12.83-.77-4.79,0-9.58.69-14.72,3.26-9.67,4.83-10.16,11.09-21.78,16.62-2.9,1.38-9.36,4.45-16.73,4.45-2.14,0-4.36-.26-6.6-.9-7.67-2.19-11.38-7.64-17.12-14.25-18.01-20.72-24.41-16.56-30.67-27.08-12.95-21.77,11.57-41.04,0-64.89-8.32-17.14-23.31-11.97-32.89-29.78-11.42-21.22-2.14-50.95,11.56-68.19,8.21-10.33,26.23-26.5,39.27-26.5.24,0,.49,0,.73.02.38.02,1.04.06,1.83.06,2.09,0,5.1-.32,6.37-2.29,1.51-2.35.11-6.38-1.98-8.89-3.51-4.22-8.67-3.81-12.44-5.01-11.79-3.74-20.85-26.64-15.11-44.21,5.61-17.16,23.56-23.82,31.54-26.78,6.81-2.52,12.09-3.27,17.32-3.27,7.49,0,14.89,1.53,26.5,1.53,4.64,0,9.94-.24,16.2-.92,24.74-2.69,25.68-8.02,44.02-8.02.68,0,1.37,0,2.1.02,17.29.35,16.48,4.38,42.76,6.67,20.46,1.78,26.73-.15,38.67,4.89,12.12,5.12,13.67,10.51,22.91,15.87,7.53,4.37,15.29,5.89,23.31,5.89,12.21,0,25.05-3.52,38.66-5.89,10.61-1.84,24.06-3.4,40.27-3.4,12.56,0,26.78.94,42.61,3.4,15.83-2.47,30.04-3.4,42.61-3.4,16.2,0,29.66,1.56,40.27,3.4,13.62,2.37,26.45,5.89,38.66,5.89,8.02,0,15.78-1.52,23.31-5.89,9.25-5.36,10.8-10.75,22.91-15.87,11.93-5.04,18.21-3.11,38.67-4.89,26.29-2.29,25.47-6.31,42.76-6.67.73-.01,1.42-.02,2.1-.02M682.53,4h0c-.71,0-1.44,0-2.2.02-9.04.19-13.56,1.34-18.81,2.68-5.28,1.35-11.27,2.87-24.29,4.01-6.43.56-11.35.74-15.69.9-9.35.35-15.53.58-24.49,4.36-7.84,3.31-11.87,6.9-15.43,10.06-2.38,2.12-4.63,4.11-8.04,6.09-6.13,3.56-12.75,5.21-20.81,5.21s-17.14-1.77-26.49-3.64c-3.67-.74-7.46-1.5-11.31-2.17-13.27-2.31-27.1-3.48-41.13-3.48-13.8,0-28.13,1.12-42.61,3.34-14.48-2.22-28.81-3.34-42.61-3.34-14.02,0-27.86,1.17-41.13,3.48-3.85.67-7.64,1.43-11.31,2.17-9.35,1.87-18.17,3.65-26.49,3.65s-14.67-1.66-20.81-5.21c-3.41-1.98-5.66-3.97-8.04-6.09-3.56-3.16-7.6-6.74-15.43-10.06-8.96-3.79-15.13-4.01-24.49-4.36-4.34-.16-9.27-.34-15.69-.9-13.02-1.13-19.01-2.66-24.29-4.01-5.24-1.34-9.77-2.49-18.81-2.68-.76-.02-1.49-.02-2.2-.02-10.26,0-15.56,1.58-21.7,3.41-5.36,1.59-11.43,3.4-22.87,4.65-5.53.6-10.66.89-15.66.89-6.21,0-11.25-.46-15.71-.87-3.72-.34-7.22-.66-10.79-.66-6.51,0-12.39,1.1-19.06,3.58-8.44,3.13-28.19,10.46-34.55,29.91-3.62,11.08-2.3,24.91,3.43,36.1,3.83,7.47,9.13,12.6,14.92,14.43,1.34.42,2.67.67,3.97.9,2.95.54,4.82.95,6.15,2.54.81.97,1.26,2.1,1.41,2.8-.39.09-1.01.17-1.95.17-.51,0-.95-.02-1.31-.04h-.28c-.32-.03-.64-.04-.97-.04-16.92,0-36.91,20.49-43.19,28.39-7.63,9.6-13.53,22.24-16.17,34.67-3.12,14.69-1.7,28.17,4.13,39,5.53,10.27,12.7,13.96,19.04,17.22,5.77,2.96,10.33,5.31,13.75,12.37,4.88,10.07,2.16,19.42-.72,29.32-3.15,10.82-6.72,23.08.93,35.94,3.47,5.84,7.13,8.08,11.37,10.66,4.67,2.85,10.49,6.41,19.82,17.15.77.88,1.5,1.75,2.21,2.58,4.75,5.6,9.23,10.89,17.32,13.2,2.53.72,5.21,1.09,7.97,1.09,8.5,0,15.77-3.46,18.88-4.94,6.96-3.31,10.45-6.91,13.54-10.09,2.43-2.51,4.53-4.67,8.33-6.57,3.83-1.91,7.56-2.73,12.49-2.73,2.46,0,4.99.2,7.66.41,1.58.13,3.22.25,4.9.35,1.79.1,3.55.15,5.23.15,11.93,0,19.73-2.43,29.59-5.51,6.81-2.12,14.53-4.53,25.54-6.73,18.48-3.7,31.06-3.75,56.13-3.87,2.21-.01,4.51-.02,6.92-.03,38.62-.22,84.62-1.09,140.63-2.66,56.01,1.58,102.01,2.45,140.63,2.66,2.41.01,4.71.02,6.92.03,25.07.11,37.65.17,56.13,3.87,11.01,2.2,18.73,4.61,25.54,6.73,9.87,3.08,17.66,5.51,29.59,5.51,1.68,0,3.43-.05,5.23-.15,1.68-.09,3.32-.22,4.9-.35,2.67-.21,5.2-.41,7.66-.41,4.92,0,8.66.82,12.49,2.73,3.8,1.9,5.9,4.06,8.33,6.57,3.09,3.18,6.58,6.79,13.54,10.09,3.11,1.48,10.38,4.94,18.88,4.94,2.75,0,5.43-.37,7.97-1.09,8.09-2.3,12.57-7.6,17.32-13.2.71-.84,1.44-1.7,2.21-2.58,9.33-10.74,15.15-14.29,19.82-17.15,4.24-2.59,7.89-4.82,11.37-10.66,7.65-12.86,4.08-25.13.93-35.94-2.88-9.9-5.61-19.25-.72-29.32,3.43-7.07,7.99-9.41,13.75-12.37,6.33-3.26,13.51-6.95,19.04-17.22,5.82-10.83,7.25-24.31,4.13-39-2.64-12.43-8.54-25.06-16.17-34.67-6.28-7.9-26.27-28.39-43.19-28.39-.33,0-.65,0-.97.02h-.28c-.36.03-.81.06-1.31.06-.94,0-1.56-.09-1.95-.17.15-.71.6-1.83,1.41-2.81,1.32-1.59,3.2-2,6.15-2.54,1.29-.24,2.63-.48,3.97-.9,5.79-1.84,11.09-6.96,14.92-14.43,5.74-11.19,7.05-25.02,3.43-36.1-6.36-19.45-26.11-26.78-34.55-29.91-6.67-2.48-12.55-3.58-19.06-3.58-3.57,0-7.08.32-10.79.66-4.45.41-9.49.87-15.7.87-5,0-10.13-.29-15.66-.89-11.44-1.24-17.51-3.05-22.87-4.65-6.14-1.83-11.44-3.41-21.7-3.41h0Z"/>
      <g>
        <g class="cls-6">
          <g>
            <path class="cls-7" d="M170.47,39.5c.19,31.58.39,63.15.58,94.73.05,7.54,3.75,10.04,3.75,10.04,0,0-3.66,3.37-3.62,10.7.22,36.61.45,73.21.67,109.82.05,8.8,8.14,4.1,8.19,12.11-13.09.41-26.17.85-39.26,1.32-.04-7.79,8.09-3.79,8.04-12.46-.08-12.79-.15-25.58-.23-38.37-3.57,8.93-9.88,20.96-20.13,22.02-13.35,1.38-12.61-18.93-12.61-18.93,16.74,8.21,32.45-10.71,32.61-25.99-.08-13.68-.16-27.37-.24-41.05-9.73-15.72-23.88-30.36-42.42-34.91-1.44,6.24-2.15,9.34-3.59,15.54-1.61,7.42,1.33,9.75,1.33,9.75,0,0-4.38,3.45-6,10.62-3.77,16.7-6.98,33.36-9.5,50.29.18-.02.55-.06.73-.08,25.69-2.4,27.28-32.02,22.7-51.59,15.33-2.51,21.71,12.07,18.92,24.85-4.27,19.55-24.43,29.43-42.7,31.37-.07,0-.11.01-.18.02-3.25,31.78-8.39,84.23,25.31,103.08,0,0-11.42,9.06-19.92-.72-5.8-6.68-11.29-18.97-21.27-20.38-20.85-2.94-7.21-47.14-4.23-58.95,2.25-9.12,3.37-13.7,5.62-22.91-21.96-1.61-44.53-15.91-44.29-39.86.3-29.74,26.31-52.22,54.37-57.36,4.52-.83,9.13-1.36,13.33-1.55,4.64-20.14,9.24-40.28,13.79-60.44,4.68-12.67-3.16-26.08-16.89-22.53-17.41,4.5-17.02,34.81,1.2,25,0,0-5.84,16.16-17.05,19.18-12.09,3.26-18.14-7.2-17.23-17.68,1.23-14.17,13.7-25.98,26.87-29.56,22.72-6.17,47.64-1.19,70.96-5.04,8.15-1.68,12.24-2.49,20.41-4.04.05,8.01-8.07,5.13-8.02,13.93ZM94.8,127.49c-2.93-.06-6.1.07-9.32.73-33.41,6.79-47.42,72.46-11.03,85.25,3.83-15.75,7.62-31.51,11.37-47.29,1.62-7.1-1.5-9.36-1.5-9.36,0,0,4.56-3.47,6.18-10.82,1.73-7.37,2.59-11.08,4.31-18.5ZM147.54,50.62c-.04-6.19-3.38-12.52-10.71-10.92-7.14,1.56-12.78,9.16-14.92,18.54-1,4.35-1.5,6.52-2.51,10.85-2.13,8.26-4.62,21.47,5.08,24.7,0,0-3.44,8.28-12.06,5.92-2.01,8.74-3.01,13.09-5.02,21.76,14.91,2.61,28.89,9.91,39.76,20.45.36-1.29.54-2.75.89-4.66-.17-28.88-.34-57.76-.51-86.64Z"/>
            <path class="cls-7" d="M273.34,80.62c.08,15.9,5.67,21.41,5.67,21.41,0,0-10.64,7.92-16.73-9.36-3.26-9.25-8.03-22.78-21.05-21.01.12,20.34.23,40.68.35,61.02.04,7.63,3.94,10.36,3.94,10.36,0,0-3.87,3.37-3.82,11.22.1,18.02.21,36.03.31,54.05.05,9.15,8.34,4.16,8.39,12.47-12.87.59-25.73,1.25-38.59,1.96-.05-8.16,8.1-4.11,8.04-13.17-.11-17.82-.21-35.64-.32-53.47-.05-7.76-3.76-10.43-3.76-10.43,0,0,3.68-3.37,3.63-10.91-.12-20.12-.24-40.24-.36-60.36-12.34,1.87-17.75,14.75-20.72,25.44-5.24,18.81-16.53,12.58-16.53,12.58,0,0,5.68-6.47,5.58-21.72-.11-17.79-5.84-19.43-5.84-19.43,0,0,1.09-2.29,3.3-2.64,3.5-.55,4.26,3.98,12.75,2.73,21.72-3.11,43.46-5.85,65.28-8.23,8.53-.9,9.25-5.81,12.77-6.16,2.23-.22,3.17,1.9,3.17,1.9,0,0-5.55,3.19-5.46,21.75Z"/>
            <path class="cls-7" d="M368.08,153.98c-7.76,12.68-8.45,28.7-8.05,42.71.41,14.55,6.16,19.78,6.16,19.78,0,0-.92,2.28-3.33,2.32-3.52.06-2.6-1.57-18.7-1.21-19.68.44-39.35,1.02-59.02,1.75-.04-8.43,8.12-4.07,8.08-13.41-.08-18.38-.17-36.76-.25-55.14-.04-8-3.94-10.88-3.94-10.88,0,0,3.88-3.35,3.84-11.13l-.25-55.14c-.04-9.56-8.19-4.19-8.23-12.61,12.87-1.18,25.75-2.2,38.64-3.07.03,8.52-8.16,4.38-8.13,14,.07,18.5.15,37,.22,55.51.03,7.83,3.94,10.77,3.94,10.77,0,0-3.88,3.33-3.85,11.39.07,17.68.14,35.36.21,53.05.02,5.37,3.55,9.51,8,9.39.44-.01.67-.02,1.11-.03,28.68-1.23,16.81-48.49,35.39-59.61,4.26-1.25,8.17,1.59,8.17,1.59Z"/>
            <path class="cls-7" d="M472.3,216.83c-12.9-.13-25.8-.21-38.7-.21-1.11-8.64,7.78-3.85,6.3-13.4-1.85-13.11-3.7-26.23-5.55-39.34-12.43-.01-24.86.06-37.3.22-1.9,13.11-3.8,26.22-5.69,39.34-1.28,9.55,7.42,4.69,6.32,13.33-11.04.09-16.56.16-27.59.33,1.28-8.62,8.88-3.98,10.16-13.52,2.68-18.79,5.37-37.58,8.06-56.37,1.1-8.19-2.25-11.3-2.25-11.3,0,0,4.27-3.26,5.37-11.22,2.21-15.33,4.42-30.65,6.63-45.98,1.83-7.7-1.8-24.91-13.06-18.08,0,0-.84-11.2,10.79-11.17,12.68.04,24.74,7.01,37.83,6.88,9.02-.09,15.46-1.95,15.46-1.95,1.11,8.65-7.64,3.8-6.34,13.58,2.72,18.81,5.44,37.62,8.15,56.43,1.11,7.96,5.38,11.19,5.38,11.19,0,0-3.35,3.15-2.24,11.34,2.71,18.8,5.41,37.61,8.11,56.41,1.47,9.55,8.89,4.86,10.17,13.49ZM432.67,152.74c-.37-2.36-.56-3.55-.93-5.91-1.11-8.18-5.39-11.36-5.39-11.36,0,0,3.34-3.19,2.23-11.14-2.17-15.07-4.34-30.15-6.52-45.22-.56-4.09-3.65-6.68-6.7-6.54-3.05.14-5.77,2.79-6.32,6.66-2.16,15.1-4.31,30.19-6.47,45.29-1.11,7.96,2.24,11.1,2.24,11.1,0,0-4.27,3.23-5.37,11.42-.37,2.37-.55,3.55-.92,5.92,11.39-.12,22.77-.19,34.16-.21Z"/>
            <path class="cls-7" d="M574.08,219.21c-11.02-.4-16.53-.58-27.56-.9.03-8.06,7.79-3.79,8.19-12.04-6.16-37.8-43.28-56.26-59.23-88.68,0,3.08-.01,4.62-.02,7.69-.02,7.92,3.87,11.2,3.87,11.2,0,0-3.91,3.05-3.93,11.2-.04,18.7-.09,37.41-.13,56.11-.02,9.5,8.32,4.91,8.3,13.49-11.03-.2-16.55-.28-27.59-.41.01-8.62,8.16-3.75,8.17-13.27.04-18.73.07-37.47.11-56.2.02-8.16-3.69-11.41-3.69-11.41,0,0,3.72-3.09,3.74-11.02.04-18.73.07-37.47.11-56.2.02-9.74-8.18-5.23-8.17-13.85,11.1.31,16.65.51,27.74,1.02-.01,5.42-3.36,5.5-5.79,6.99,4.35,36.74,42.65,54.48,56.74,86.39.11-25.61.22-51.22.32-76.83.04-9.6-8.15-5.51-8.12-14.01,11.08.8,16.61,1.25,27.67,2.24-.04,8.43-8.37,3.06-8.42,12.63-.08,18.4-.17,36.8-.25,55.2-.04,7.79,3.84,11.14,3.84,11.14,0,0-3.91,2.88-3.94,10.89l-.25,55.2c-.04,9.35,8.3,4.99,8.26,13.43Z"/>
            <path class="cls-7" d="M672.04,90.27c-.09,15.28,5.4,21.72,5.4,21.72,0,0-11.77,5.91-16.53-12.57-2.63-10.19-8.73-23.76-20.73-25.44-.12,20.16-.24,40.31-.36,60.47-.04,7.56,3.82,10.94,3.82,10.94,0,0-3.9,2.66-3.94,10.44-.11,17.85-.21,35.7-.32,53.55-.05,9.07,8.28,5.02,8.23,13.19-12.86-.71-25.73-1.35-38.59-1.93.05-8.32,8.15-3.33,8.2-12.5l.31-54.13c.04-7.86-3.64-11.21-3.64-11.21,0,0,3.72-2.75,3.76-10.39.11-20.37.23-40.74.35-61.11-12.98-1.67-17.85,11.88-21.05,21.08-5.98,17.2-16.73,9.4-16.73,9.4,0,0,5.78-5.51,5.86-21.43.09-18.57-5.65-21.78-5.65-21.78,0,0,1.12-2.11,3.35-1.9,3.53.34,4.24,5.26,12.77,6.14,21.82,2.34,43.57,5.04,65.29,8.1,8.49,1.23,9.25-3.31,12.75-2.76,2.21.35,3.12,2.61,3.12,2.61,0,0-5.54,1.69-5.65,19.51Z"/>
            <path class="cls-7" d="M683.97,25.57c8.17,1.55,12.26,2.36,20.41,4.04,23.32,3.84,48.25-1.13,70.96,5.04,13.22,3.59,25.64,15.38,26.87,29.56.92,10.56-4.87,20.9-17.23,17.68-11.33-2.96-17.05-19.18-17.05-19.18,18.22,9.81,18.63-20.47,1.2-25-14.61-3.79-20.03,9.94-16.89,22.53,4.55,20.16,9.15,40.3,13.79,60.44,4.21.19,8.81.64,13.33,1.55,27.13,5.45,54.74,27.24,54.37,57.36-.3,23.79-22.32,38.25-44.29,39.86,2.24,9.21,3.37,13.8,5.61,22.91,2.99,11.81,16.63,56-4.22,58.95-9.98,1.41-15.47,13.7-21.27,20.38-8.5,9.78-19.92.72-19.92.72,33.48-19.67,28.63-70.65,25.31-103.08-.07,0-.11-.01-.18-.02-18.21-1.3-38.53-12.28-42.7-31.37-2.84-13.01,3.67-27.13,18.92-24.85-4.67,19.56-2.93,49.2,22.7,51.59.18.02.55.06.73.08-2.52-16.93-5.73-33.6-9.5-50.29-1.62-7.17-6-10.62-6-10.62,0,0,2.94-2.33,1.33-9.75-1.44-6.2-2.15-9.31-3.59-15.54-18.53,4.55-32.68,19.19-42.42,34.91-.08,13.68-.16,27.37-.24,41.05-.54,16.28,16.05,32.98,32.61,25.99,0,0,.74,20.31-12.61,18.93-10.25-1.06-16.56-13.09-20.13-22.02-.08,12.79-.15,25.58-.23,38.37-.05,8.66,8.08,4.67,8.04,12.46-13.09-.47-26.17-.91-39.26-1.32.05-8.01,8.13-3.31,8.19-12.11.22-36.61.45-73.21.67-109.82.04-7.34-3.62-10.7-3.62-10.7,0,0,3.7-2.5,3.75-10.04.19-31.58.39-63.15.58-94.73.05-8.8-8.07-5.92-8.02-13.93ZM771.97,145.99c1.62,7.36,6.18,10.82,6.18,10.82,0,0-3.12,2.26-1.5,9.36,3.75,15.77,7.53,31.54,11.37,47.29,36.99-12.44,21.65-78.41-11.03-85.25-3.2-.67-6.39-.79-9.32-.73,1.72,7.43,2.59,11.13,4.31,18.5ZM714.41,137.25c.36,1.91.53,3.38.89,4.66,10.91-10.07,24.77-18.49,39.76-20.45-2.01-8.67-3.01-13.02-5.02-21.76-8.62,2.37-12.06-5.92-12.06-5.92,9.7-3.23,7.21-16.44,5.08-24.7-1-4.33-1.5-6.5-2.51-10.85-2.15-9.38-7.78-16.97-14.92-18.54-7.33-1.6-10.67,4.73-10.71,10.92-.17,28.88-.34,57.76-.51,86.64Z"/>
          </g>
        </g>
        <g>
          <path class="cls-5" d="M170.47,39.5c.19,31.58.39,63.15.58,94.73.05,7.54,3.75,10.04,3.75,10.04,0,0-3.66,3.37-3.62,10.7.22,36.61.45,73.21.67,109.82.05,8.8,8.14,4.1,8.19,12.11-13.09.41-26.17.85-39.26,1.32-.04-7.79,8.09-3.79,8.04-12.46-.08-12.79-.15-25.58-.23-38.37-3.57,8.93-9.88,20.96-20.13,22.02-13.35,1.38-12.61-18.93-12.61-18.93,16.74,8.21,32.45-10.71,32.61-25.99-.08-13.68-.16-27.37-.24-41.05-9.73-15.72-23.88-30.36-42.42-34.91-1.44,6.24-2.15,9.34-3.59,15.54-1.61,7.42,1.33,9.75,1.33,9.75,0,0-4.38,3.45-6,10.62-3.77,16.7-6.98,33.36-9.5,50.29.18-.02.55-.06.73-.08,25.69-2.4,27.28-32.02,22.7-51.59,15.33-2.51,21.71,12.07,18.92,24.85-4.27,19.55-24.43,29.43-42.7,31.37-.07,0-.11.01-.18.02-3.25,31.78-8.39,84.23,25.31,103.08,0,0-11.42,9.06-19.92-.72-5.8-6.68-11.29-18.97-21.27-20.38-20.85-2.94-7.21-47.14-4.23-58.95,2.25-9.12,3.37-13.7,5.62-22.91-21.96-1.61-44.53-15.91-44.29-39.86.3-29.74,26.31-52.22,54.37-57.36,4.52-.83,9.13-1.36,13.33-1.55,4.64-20.14,9.24-40.28,13.79-60.44,4.68-12.67-3.16-26.08-16.89-22.53-17.41,4.5-17.02,34.81,1.2,25,0,0-5.84,16.16-17.05,19.18-12.09,3.26-18.14-7.2-17.23-17.68,1.23-14.17,13.7-25.98,26.87-29.56,22.72-6.17,47.64-1.19,70.96-5.04,8.15-1.68,12.24-2.49,20.41-4.04.05,8.01-8.07,5.13-8.02,13.93ZM94.8,127.49c-2.93-.06-6.1.07-9.32.73-33.41,6.79-47.42,72.46-11.03,85.25,3.83-15.75,7.62-31.51,11.37-47.29,1.62-7.1-1.5-9.36-1.5-9.36,0,0,4.56-3.47,6.18-10.82,1.73-7.37,2.59-11.08,4.31-18.5ZM147.54,50.62c-.04-6.19-3.38-12.52-10.71-10.92-7.14,1.56-12.78,9.16-14.92,18.54-1,4.35-1.5,6.52-2.51,10.85-2.13,8.26-4.62,21.47,5.08,24.7,0,0-3.44,8.28-12.06,5.92-2.01,8.74-3.01,13.09-5.02,21.76,14.91,2.61,28.89,9.91,39.76,20.45.36-1.29.54-2.75.89-4.66-.17-28.88-.34-57.76-.51-86.64Z"/>
          <path class="cls-5" d="M273.34,80.62c.08,15.9,5.67,21.41,5.67,21.41,0,0-10.64,7.92-16.73-9.36-3.26-9.25-8.03-22.78-21.05-21.01.12,20.34.23,40.68.35,61.02.04,7.63,3.94,10.36,3.94,10.36,0,0-3.87,3.37-3.82,11.22.1,18.02.21,36.03.31,54.05.05,9.15,8.34,4.16,8.39,12.47-12.87.59-25.73,1.25-38.59,1.96-.05-8.16,8.1-4.11,8.04-13.17-.11-17.82-.21-35.64-.32-53.47-.05-7.76-3.76-10.43-3.76-10.43,0,0,3.68-3.37,3.63-10.91-.12-20.12-.24-40.24-.36-60.36-12.34,1.87-17.75,14.75-20.72,25.44-5.24,18.81-16.53,12.58-16.53,12.58,0,0,5.68-6.47,5.58-21.72-.11-17.79-5.84-19.43-5.84-19.43,0,0,1.09-2.29,3.3-2.64,3.5-.55,4.26,3.98,12.75,2.73,21.72-3.11,43.46-5.85,65.28-8.23,8.53-.9,9.25-5.81,12.77-6.16,2.23-.22,3.17,1.9,3.17,1.9,0,0-5.55,3.19-5.46,21.75Z"/>
          <path class="cls-5" d="M368.08,153.98c-7.76,12.68-8.45,28.7-8.05,42.71.41,14.55,6.16,19.78,6.16,19.78,0,0-.92,2.28-3.33,2.32-3.52.06-2.6-1.57-18.7-1.21-19.68.44-39.35,1.02-59.02,1.75-.04-8.43,8.12-4.07,8.08-13.41-.08-18.38-.17-36.76-.25-55.14-.04-8-3.94-10.88-3.94-10.88,0,0,3.88-3.35,3.84-11.13l-.25-55.14c-.04-9.56-8.19-4.19-8.23-12.61,12.87-1.18,25.75-2.2,38.64-3.07.03,8.52-8.16,4.38-8.13,14,.07,18.5.15,37,.22,55.51.03,7.83,3.94,10.77,3.94,10.77,0,0-3.88,3.33-3.85,11.39.07,17.68.14,35.36.21,53.05.02,5.37,3.55,9.51,8,9.39.44-.01.67-.02,1.11-.03,28.68-1.23,16.81-48.49,35.39-59.61,4.26-1.25,8.17,1.59,8.17,1.59Z"/>
          <path class="cls-5" d="M472.3,216.83c-12.9-.13-25.8-.21-38.7-.21-1.11-8.64,7.78-3.85,6.3-13.4-1.85-13.11-3.7-26.23-5.55-39.34-12.43-.01-24.86.06-37.3.22-1.9,13.11-3.8,26.22-5.69,39.34-1.28,9.55,7.42,4.69,6.32,13.33-11.04.09-16.56.16-27.59.33,1.28-8.62,8.88-3.98,10.16-13.52,2.68-18.79,5.37-37.58,8.06-56.37,1.1-8.19-2.25-11.3-2.25-11.3,0,0,4.27-3.26,5.37-11.22,2.21-15.33,4.42-30.65,6.63-45.98,1.83-7.7-1.8-24.91-13.06-18.08,0,0-.84-11.2,10.79-11.17,12.68.04,24.74,7.01,37.83,6.88,9.02-.09,15.46-1.95,15.46-1.95,1.11,8.65-7.64,3.8-6.34,13.58,2.72,18.81,5.44,37.62,8.15,56.43,1.11,7.96,5.38,11.19,5.38,11.19,0,0-3.35,3.15-2.24,11.34,2.71,18.8,5.41,37.61,8.11,56.41,1.47,9.55,8.89,4.86,10.17,13.49ZM432.67,152.74c-.37-2.36-.56-3.55-.93-5.91-1.11-8.18-5.39-11.36-5.39-11.36,0,0,3.34-3.19,2.23-11.14-2.17-15.07-4.34-30.15-6.52-45.22-.56-4.09-3.65-6.68-6.7-6.54-3.05.14-5.77,2.79-6.32,6.66-2.16,15.1-4.31,30.19-6.47,45.29-1.11,7.96,2.24,11.1,2.24,11.1,0,0-4.27,3.23-5.37,11.42-.37,2.37-.55,3.55-.92,5.92,11.39-.12,22.77-.19,34.16-.21Z"/>
          <path class="cls-5" d="M574.08,219.21c-11.02-.4-16.53-.58-27.56-.9.03-8.06,7.79-3.79,8.19-12.04-6.16-37.8-43.28-56.26-59.23-88.68,0,3.08-.01,4.62-.02,7.69-.02,7.92,3.87,11.2,3.87,11.2,0,0-3.91,3.05-3.93,11.2-.04,18.7-.09,37.41-.13,56.11-.02,9.5,8.32,4.91,8.3,13.49-11.03-.2-16.55-.28-27.59-.41.01-8.62,8.16-3.75,8.17-13.27.04-18.73.07-37.47.11-56.2.02-8.16-3.69-11.41-3.69-11.41,0,0,3.72-3.09,3.74-11.02.04-18.73.07-37.47.11-56.2.02-9.74-8.18-5.23-8.17-13.85,11.1.31,16.65.51,27.74,1.02-.01,5.42-3.36,5.5-5.79,6.99,4.35,36.74,42.65,54.48,56.74,86.39.11-25.61.22-51.22.32-76.83.04-9.6-8.15-5.51-8.12-14.01,11.08.8,16.61,1.25,27.67,2.24-.04,8.43-8.37,3.06-8.42,12.63-.08,18.4-.17,36.8-.25,55.2-.04,7.79,3.84,11.14,3.84,11.14,0,0-3.91,2.88-3.94,10.89l-.25,55.2c-.04,9.35,8.3,4.99,8.26,13.43Z"/>
          <path class="cls-5" d="M672.04,90.27c-.09,15.28,5.4,21.72,5.4,21.72,0,0-11.77,5.91-16.53-12.57-2.63-10.19-8.73-23.76-20.73-25.44-.12,20.16-.24,40.31-.36,60.47-.04,7.56,3.82,10.94,3.82,10.94,0,0-3.9,2.66-3.94,10.44-.11,17.85-.21,35.7-.32,53.55-.05,9.07,8.28,5.02,8.23,13.19-12.86-.71-25.73-1.35-38.59-1.93.05-8.32,8.15-3.33,8.2-12.5l.31-54.13c.04-7.86-3.64-11.21-3.64-11.21,0,0,3.72-2.75,3.76-10.39.11-20.37.23-40.74.35-61.11-12.98-1.67-17.85,11.88-21.05,21.08-5.98,17.2-16.73,9.4-16.73,9.4,0,0,5.78-5.51,5.86-21.43.09-18.57-5.65-21.78-5.65-21.78,0,0,1.12-2.11,3.35-1.9,3.53.34,4.24,5.26,12.77,6.14,21.82,2.34,43.57,5.04,65.29,8.1,8.49,1.23,9.25-3.31,12.75-2.76,2.21.35,3.12,2.61,3.12,2.61,0,0-5.54,1.69-5.65,19.51Z"/>
          <path class="cls-5" d="M683.97,25.57c8.17,1.55,12.26,2.36,20.41,4.04,23.32,3.84,48.25-1.13,70.96,5.04,13.22,3.59,25.64,15.38,26.87,29.56.92,10.56-4.87,20.9-17.23,17.68-11.33-2.96-17.05-19.18-17.05-19.18,18.22,9.81,18.63-20.47,1.2-25-14.61-3.79-20.03,9.94-16.89,22.53,4.55,20.16,9.15,40.3,13.79,60.44,4.21.19,8.81.64,13.33,1.55,27.13,5.45,54.74,27.24,54.37,57.36-.3,23.79-22.32,38.25-44.29,39.86,2.24,9.21,3.37,13.8,5.61,22.91,2.99,11.81,16.63,56-4.22,58.95-9.98,1.41-15.47,13.7-21.27,20.38-8.5,9.78-19.92.72-19.92.72,33.48-19.67,28.63-70.65,25.31-103.08-.07,0-.11-.01-.18-.02-18.21-1.3-38.53-12.28-42.7-31.37-2.84-13.01,3.67-27.13,18.92-24.85-4.67,19.56-2.93,49.2,22.7,51.59.18.02.55.06.73.08-2.52-16.93-5.73-33.6-9.5-50.29-1.62-7.17-6-10.62-6-10.62,0,0,2.94-2.33,1.33-9.75-1.44-6.2-2.15-9.31-3.59-15.54-18.53,4.55-32.68,19.19-42.42,34.91-.08,13.68-.16,27.37-.24,41.05-.54,16.28,16.05,32.98,32.61,25.99,0,0,.74,20.31-12.61,18.93-10.25-1.06-16.56-13.09-20.13-22.02-.08,12.79-.15,25.58-.23,38.37-.05,8.66,8.08,4.67,8.04,12.46-13.09-.47-26.17-.91-39.26-1.32.05-8.01,8.13-3.31,8.19-12.11.22-36.61.45-73.21.67-109.82.04-7.34-3.62-10.7-3.62-10.7,0,0,3.7-2.5,3.75-10.04.19-31.58.39-63.15.58-94.73.05-8.8-8.07-5.92-8.02-13.93ZM771.97,145.99c1.62,7.36,6.18,10.82,6.18,10.82,0,0-3.12,2.26-1.5,9.36,3.75,15.77,7.53,31.54,11.37,47.29,36.99-12.44,21.65-78.41-11.03-85.25-3.2-.67-6.39-.79-9.32-.73,1.72,7.43,2.59,11.13,4.31,18.5ZM714.41,137.25c.36,1.91.53,3.38.89,4.66,10.91-10.07,24.77-18.49,39.76-20.45-2.01-8.67-3.01-13.02-5.02-21.76-8.62,2.37-12.06-5.92-12.06-5.92,9.7-3.23,7.21-16.44,5.08-24.7-1-4.33-1.5-6.5-2.51-10.85-2.15-9.38-7.78-16.97-14.92-18.54-7.33-1.6-10.67,4.73-10.71,10.92-.17,28.88-.34,57.76-.51,86.64Z"/>
        </g>
        <g>
          <path class="cls-2" d="M170.47,36.5c.19,31.58.39,63.15.58,94.73.05,7.54,3.75,10.04,3.75,10.04,0,0-3.66,3.37-3.62,10.7.22,36.61.45,73.21.67,109.82.05,8.8,8.14,4.1,8.19,12.11-13.09.41-26.17.85-39.26,1.32-.04-7.79,8.09-3.79,8.04-12.46-.08-12.79-.15-25.58-.23-38.37-3.57,8.93-9.88,20.96-20.13,22.02-13.35,1.38-12.61-18.93-12.61-18.93,16.74,8.21,32.45-10.71,32.61-25.99-.08-13.68-.16-27.37-.24-41.05-9.73-15.72-23.88-30.36-42.42-34.91-1.44,6.24-2.15,9.34-3.59,15.54-1.61,7.42,1.33,9.75,1.33,9.75,0,0-4.38,3.45-6,10.62-3.77,16.7-6.98,33.36-9.5,50.29.18-.02.55-.06.73-.08,25.69-2.4,27.28-32.02,22.7-51.59,15.33-2.51,21.71,12.07,18.92,24.85-4.27,19.55-24.43,29.43-42.7,31.37-.07,0-.11.01-.18.02-3.25,31.78-8.39,84.23,25.31,103.08,0,0-11.42,9.06-19.92-.72-5.8-6.68-11.29-18.97-21.27-20.38-20.85-2.94-7.21-47.14-4.23-58.95,2.25-9.12,3.37-13.7,5.62-22.91-21.96-1.61-44.53-15.91-44.29-39.86.3-29.74,26.31-52.22,54.37-57.36,4.52-.83,9.13-1.36,13.33-1.55,4.64-20.14,9.24-40.28,13.79-60.44,4.68-12.67-3.16-26.08-16.89-22.53-17.41,4.5-17.02,34.81,1.2,25,0,0-5.84,16.16-17.05,19.18-12.09,3.26-18.14-7.2-17.23-17.68,1.23-14.17,13.7-25.98,26.87-29.56,22.72-6.17,47.64-1.19,70.96-5.04,8.15-1.68,12.24-2.49,20.41-4.04.05,8.01-8.07,5.13-8.02,13.93ZM94.8,124.49c-2.93-.06-6.1.07-9.32.73-33.41,6.79-47.42,72.46-11.03,85.25,3.83-15.75,7.62-31.51,11.37-47.29,1.62-7.1-1.5-9.36-1.5-9.36,0,0,4.56-3.47,6.18-10.82,1.73-7.37,2.59-11.08,4.31-18.5ZM147.54,47.62c-.04-6.19-3.38-12.52-10.71-10.92-7.14,1.56-12.78,9.16-14.92,18.54-1,4.35-1.5,6.52-2.51,10.85-2.13,8.26-4.62,21.47,5.08,24.7,0,0-3.44,8.28-12.06,5.92-2.01,8.74-3.01,13.09-5.02,21.76,14.91,2.61,28.89,9.91,39.76,20.45.36-1.29.54-2.75.89-4.66-.17-28.88-.34-57.76-.51-86.64Z"/>
          <path class="cls-2" d="M273.34,77.62c.08,15.9,5.67,21.41,5.67,21.41,0,0-10.64,7.92-16.73-9.36-3.26-9.25-8.03-22.78-21.05-21.01.12,20.34.23,40.68.35,61.02.04,7.63,3.94,10.36,3.94,10.36,0,0-3.87,3.37-3.82,11.22.1,18.02.21,36.03.31,54.05.05,9.15,8.34,4.16,8.39,12.47-12.87.59-25.73,1.25-38.59,1.96-.05-8.16,8.1-4.11,8.04-13.17-.11-17.82-.21-35.64-.32-53.47-.05-7.76-3.76-10.43-3.76-10.43,0,0,3.68-3.37,3.63-10.91-.12-20.12-.24-40.24-.36-60.36-12.34,1.87-17.75,14.75-20.72,25.44-5.24,18.81-16.53,12.58-16.53,12.58,0,0,5.68-6.47,5.58-21.72-.11-17.79-5.84-19.43-5.84-19.43,0,0,1.09-2.29,3.3-2.64,3.5-.55,4.26,3.98,12.75,2.73,21.72-3.11,43.46-5.85,65.28-8.23,8.53-.9,9.25-5.81,12.77-6.16,2.23-.22,3.17,1.9,3.17,1.9,0,0-5.55,3.19-5.46,21.75Z"/>
          <path class="cls-2" d="M368.08,150.98c-7.76,12.68-8.45,28.7-8.05,42.71.41,14.55,6.16,19.78,6.16,19.78,0,0-.92,2.28-3.33,2.32-3.52.06-2.6-1.57-18.7-1.21-19.68.44-39.35,1.02-59.02,1.75-.04-8.43,8.12-4.07,8.08-13.41-.08-18.38-.17-36.76-.25-55.14-.04-8-3.94-10.88-3.94-10.88,0,0,3.88-3.35,3.84-11.13l-.25-55.14c-.04-9.56-8.19-4.19-8.23-12.61,12.87-1.18,25.75-2.2,38.64-3.07.03,8.52-8.16,4.38-8.13,14,.07,18.5.15,37,.22,55.51.03,7.83,3.94,10.77,3.94,10.77,0,0-3.88,3.33-3.85,11.39.07,17.68.14,35.36.21,53.05.02,5.37,3.55,9.51,8,9.39.44-.01.67-.02,1.11-.03,28.68-1.23,16.81-48.49,35.39-59.61,4.26-1.25,8.17,1.59,8.17,1.59Z"/>
          <path class="cls-2" d="M472.3,213.83c-12.9-.13-25.8-.21-38.7-.21-1.11-8.64,7.78-3.85,6.3-13.4-1.85-13.11-3.7-26.23-5.55-39.34-12.43-.01-24.86.06-37.3.22-1.9,13.11-3.8,26.22-5.69,39.34-1.28,9.55,7.42,4.69,6.32,13.33-11.04.09-16.56.16-27.59.33,1.28-8.62,8.88-3.98,10.16-13.52,2.68-18.79,5.37-37.58,8.06-56.37,1.1-8.19-2.25-11.3-2.25-11.3,0,0,4.27-3.26,5.37-11.22,2.21-15.33,4.42-30.65,6.63-45.98,1.83-7.7-1.8-24.91-13.06-18.08,0,0-.84-11.2,10.79-11.17,12.68.04,24.74,7.01,37.83,6.88,9.02-.09,15.46-1.95,15.46-1.95,1.11,8.65-7.64,3.8-6.34,13.58,2.72,18.81,5.44,37.62,8.15,56.43,1.11,7.96,5.38,11.19,5.38,11.19,0,0-3.35,3.15-2.24,11.34,2.71,18.8,5.41,37.61,8.11,56.41,1.47,9.55,8.89,4.86,10.17,13.49ZM432.67,149.74c-.37-2.36-.56-3.55-.93-5.91-1.11-8.18-5.39-11.36-5.39-11.36,0,0,3.34-3.19,2.23-11.14-2.17-15.07-4.34-30.15-6.52-45.22-.56-4.09-3.65-6.68-6.7-6.54-3.05.14-5.77,2.79-6.32,6.66-2.16,15.1-4.31,30.19-6.47,45.29-1.11,7.96,2.24,11.1,2.24,11.1,0,0-4.27,3.23-5.37,11.42-.37,2.37-.55,3.55-.92,5.92,11.39-.12,22.77-.19,34.16-.21Z"/>
          <path class="cls-2" d="M574.08,216.21c-11.02-.4-16.53-.58-27.56-.9.03-8.06,7.79-3.79,8.19-12.04-6.16-37.8-43.28-56.26-59.23-88.68,0,3.08-.01,4.62-.02,7.69-.02,7.92,3.87,11.2,3.87,11.2,0,0-3.91,3.05-3.93,11.2-.04,18.7-.09,37.41-.13,56.11-.02,9.5,8.32,4.91,8.3,13.49-11.03-.2-16.55-.28-27.59-.41.01-8.62,8.16-3.75,8.17-13.27.04-18.73.07-37.47.11-56.2.02-8.16-3.69-11.41-3.69-11.41,0,0,3.72-3.09,3.74-11.02.04-18.73.07-37.47.11-56.2.02-9.74-8.18-5.23-8.17-13.85,11.1.31,16.65.51,27.74,1.02-.01,5.42-3.36,5.5-5.79,6.99,4.35,36.74,42.65,54.48,56.74,86.39.11-25.61.22-51.22.32-76.83.04-9.6-8.15-5.51-8.12-14.01,11.08.8,16.61,1.25,27.67,2.24-.04,8.43-8.37,3.06-8.42,12.63-.08,18.4-.17,36.8-.25,55.2-.04,7.79,3.84,11.14,3.84,11.14,0,0-3.91,2.88-3.94,10.89l-.25,55.2c-.04,9.35,8.3,4.99,8.26,13.43Z"/>
          <path class="cls-2" d="M672.04,87.27c-.09,15.28,5.4,21.72,5.4,21.72,0,0-11.77,5.91-16.53-12.57-2.63-10.19-8.73-23.76-20.73-25.44-.12,20.16-.24,40.31-.36,60.47-.04,7.56,3.82,10.94,3.82,10.94,0,0-3.9,2.66-3.94,10.44-.11,17.85-.21,35.7-.32,53.55-.05,9.07,8.28,5.02,8.23,13.19-12.86-.71-25.73-1.35-38.59-1.93.05-8.32,8.15-3.33,8.2-12.5l.31-54.13c.04-7.86-3.64-11.21-3.64-11.21,0,0,3.72-2.75,3.76-10.39.11-20.37.23-40.74.35-61.11-12.98-1.67-17.85,11.88-21.05,21.08-5.98,17.2-16.73,9.4-16.73,9.4,0,0,5.78-5.51,5.86-21.43.09-18.57-5.65-21.78-5.65-21.78,0,0,1.12-2.11,3.35-1.9,3.53.34,4.24,5.26,12.77,6.14,21.82,2.34,43.57,5.04,65.29,8.1,8.49,1.23,9.25-3.31,12.75-2.76,2.21.35,3.12,2.61,3.12,2.61,0,0-5.54,1.69-5.65,19.51Z"/>
          <path class="cls-2" d="M683.97,22.57c8.17,1.55,12.26,2.36,20.41,4.04,23.32,3.84,48.25-1.13,70.96,5.04,13.22,3.59,25.64,15.38,26.87,29.56.92,10.56-4.87,20.9-17.23,17.68-11.33-2.96-17.05-19.18-17.05-19.18,18.22,9.81,18.63-20.47,1.2-25-14.61-3.79-20.03,9.94-16.89,22.53,4.55,20.16,9.15,40.3,13.79,60.44,4.21.19,8.81.64,13.33,1.55,27.13,5.45,54.74,27.24,54.37,57.36-.3,23.79-22.32,38.25-44.29,39.86,2.24,9.21,3.37,13.8,5.61,22.91,2.99,11.81,16.63,56-4.22,58.95-9.98,1.41-15.47,13.7-21.27,20.38-8.5,9.78-19.92.72-19.92.72,33.48-19.67,28.63-70.65,25.31-103.08-.07,0-.11-.01-.18-.02-18.21-1.3-38.53-12.28-42.7-31.37-2.84-13.01,3.67-27.13,18.92-24.85-4.67,19.56-2.93,49.2,22.7,51.59.18.02.55.06.73.08-2.52-16.93-5.73-33.6-9.5-50.29-1.62-7.17-6-10.62-6-10.62,0,0,2.94-2.33,1.33-9.75-1.44-6.2-2.15-9.31-3.59-15.54-18.53,4.55-32.68,19.19-42.42,34.91-.08,13.68-.16,27.37-.24,41.05-.54,16.28,16.05,32.98,32.61,25.99,0,0,.74,20.31-12.61,18.93-10.25-1.06-16.56-13.09-20.13-22.02-.08,12.79-.15,25.58-.23,38.37-.05,8.66,8.08,4.67,8.04,12.46-13.09-.47-26.17-.91-39.26-1.32.05-8.01,8.13-3.31,8.19-12.11.22-36.61.45-73.21.67-109.82.04-7.34-3.62-10.7-3.62-10.7,0,0,3.7-2.5,3.75-10.04.19-31.58.39-63.15.58-94.73.05-8.8-8.07-5.92-8.02-13.93ZM771.97,142.99c1.62,7.36,6.18,10.82,6.18,10.82,0,0-3.12,2.26-1.5,9.36,3.75,15.77,7.53,31.54,11.37,47.29,36.99-12.44,21.65-78.41-11.03-85.25-3.2-.67-6.39-.79-9.32-.73,1.72,7.43,2.59,11.13,4.31,18.5ZM714.41,134.25c.36,1.91.53,3.38.89,4.66,10.91-10.07,24.77-18.49,39.76-20.45-2.01-8.67-3.01-13.02-5.02-21.76-8.62,2.37-12.06-5.92-12.06-5.92,9.7-3.23,7.21-16.44,5.08-24.7-1-4.33-1.5-6.5-2.51-10.85-2.15-9.38-7.78-16.97-14.92-18.54-7.33-1.6-10.67,4.73-10.71,10.92-.17,28.88-.34,57.76-.51,86.64Z"/>
        </g>
        <text class="cls-3" transform="translate(212.18 286.57)"><tspan x="0" y="0">BALKAN ROLEPL</tspan><tspan class="cls-9" x="382.33" y="0">A</tspan><tspan x="408.09" y="0">Y</tspan></text>
        <g>
          <text class="cls-1" transform="translate(147.08 308.26)"><tspan x="0" y="0">i</tspan></text>
          <text class="cls-1" transform="translate(710.38 308.26) rotate(-180) scale(1 -1)"><tspan x="0" y="0">i</tspan></text>
        </g>
        <text class="cls-1" transform="translate(180.22 66.55) rotate(.32)"><tspan x="0" y="0">j</tspan></text>
        <text class="cls-1" transform="translate(676.48 66.55) rotate(179.68) scale(1 -1)"><tspan x="0" y="0">j</tspan></text>
      </g>
    </g>
  </g>
</svg>