<?xml version="1.0" encoding="UTF-8"?>
<svg xmlns="http://www.w3.org/2000/svg" viewBox="0 0 806.03 315.41">
  <defs>
    <style>
      .cls-1, .cls-2, .cls-3, .cls-4 {
        fill: #fff;
      }

      .cls-2 {
        font-family: Beardsons-Extras, 'Beardsons Extras';
        font-size: 65px;
      }

      .cls-5 {
        isolation: isolate;
      }

      .cls-3 {
        font-family: ChineseRocksRg-Regular, 'Chinese Rocks';
        font-size: 70px;
      }

      .cls-6 {
        fill: none;
        stroke: #444;
        stroke-miterlimit: 10;
      }

      .cls-7 {
        opacity: .39;
      }

      .cls-8 {
        fill: #545454;
      }

      .cls-9 {
        opacity: .28;
      }

      .cls-4 {
        mix-blend-mode: soft-light;
      }

      .cls-10 {
        letter-spacing: -.08em;
      }
    </style>
  </defs>
  <g class="cls-5">
    <g id="Layer_3" data-name="Layer 3">
      <g id="Layer_1" data-name="Layer 1">
        <g id="LOGO_BALKAN_SEM_FUNDO_PRETO_E_BRANCO" data-name="LOGO BALKAN SEM FUNDO PRETO E BRANCO">
          <g>
            <g class="cls-7">
              <g>
                <path class="cls-8" d="M142.25,28.2c.19,31.58.39,63.15.58,94.73.05,7.54,3.75,10.04,3.75,10.04,0,0-3.66,3.37-3.62,10.7.22,36.61.45,73.21.67,109.82.05,8.8,8.14,4.1,8.19,12.11-13.09.41-26.17.85-39.26,1.32-.04-7.79,8.09-3.79,8.04-12.46-.08-12.79-.15-25.58-.23-38.37-3.57,8.93-9.88,20.96-20.13,22.02-13.35,1.38-12.61-18.93-12.61-18.93,16.74,8.21,32.45-10.71,32.61-25.99-.08-13.68-.16-27.37-.24-41.05-9.73-15.72-23.88-30.36-42.42-34.91-1.44,6.24-2.15,9.34-3.59,15.54-1.61,7.42,1.33,9.75,1.33,9.75,0,0-4.38,3.45-6,10.62-3.77,16.7-6.98,33.36-9.5,50.29.18-.02.55-.06.73-.08,25.69-2.4,27.28-32.02,22.7-51.59,15.33-2.51,21.71,12.07,18.92,24.85-4.27,19.55-24.43,29.43-42.7,31.37-.07,0-.11.01-.18.02-3.25,31.78-8.39,84.23,25.31,103.08,0,0-11.42,9.06-19.92-.72-5.8-6.68-11.29-18.97-21.27-20.38-20.85-2.94-7.21-47.14-4.23-58.95,2.25-9.12,3.37-13.7,5.62-22.91-21.96-1.61-44.53-15.91-44.29-39.86.3-29.74,26.31-52.22,54.37-57.36,4.52-.83,9.13-1.36,13.33-1.55,4.64-20.14,9.24-40.28,13.79-60.44,4.68-12.67-3.16-26.08-16.89-22.53-17.41,4.5-17.02,34.81,1.2,25,0,0-5.84,16.16-17.05,19.18-12.09,3.26-18.14-7.2-17.23-17.68,1.23-14.17,13.7-25.98,26.87-29.56,22.72-6.17,47.64-1.19,70.96-5.04,8.15-1.68,12.24-2.49,20.41-4.04.05,8.01-8.07,5.13-8.02,13.93ZM66.59,116.19c-2.93-.06-6.1.07-9.32.73-33.41,6.79-47.42,72.46-11.03,85.25,3.83-15.75,7.62-31.51,11.37-47.29,1.62-7.1-1.5-9.36-1.5-9.36,0,0,4.56-3.47,6.18-10.82,1.73-7.37,2.59-11.08,4.31-18.5ZM119.33,39.32c-.04-6.19-3.38-12.52-10.71-10.92-7.14,1.56-12.78,9.16-14.92,18.54-1,4.35-1.5,6.52-2.51,10.85-2.13,8.26-4.62,21.47,5.08,24.7,0,0-3.44,8.28-12.06,5.92-2.01,8.74-3.01,13.09-5.02,21.76,14.91,2.61,28.89,9.91,39.76,20.45.36-1.29.54-2.75.89-4.66-.17-28.88-.34-57.76-.51-86.64Z"/>
                <path class="cls-8" d="M245.12,69.32c.08,15.9,5.67,21.41,5.67,21.41,0,0-10.64,7.92-16.73-9.36-3.26-9.25-8.03-22.78-21.05-21.01.12,20.34.23,40.68.35,61.02.04,7.63,3.94,10.36,3.94,10.36,0,0-3.87,3.37-3.82,11.22.1,18.02.21,36.03.31,54.05.05,9.15,8.34,4.16,8.39,12.47-12.87.59-25.73,1.25-38.59,1.96-.05-8.16,8.1-4.11,8.04-13.17-.11-17.82-.21-35.64-.32-53.47-.05-7.76-3.76-10.43-3.76-10.43,0,0,3.68-3.37,3.63-10.91-.12-20.12-.24-40.24-.36-60.36-12.34,1.87-17.75,14.75-20.72,25.44-5.24,18.81-16.53,12.58-16.53,12.58,0,0,5.68-6.47,5.58-21.72-.11-17.79-5.84-19.43-5.84-19.43,0,0,1.09-2.29,3.3-2.64,3.5-.55,4.26,3.98,12.75,2.73,21.72-3.11,43.46-5.85,65.28-8.23,8.53-.9,9.25-5.81,12.77-6.16,2.23-.22,3.17,1.9,3.17,1.9,0,0-5.55,3.19-5.46,21.75Z"/>
                <path class="cls-8" d="M339.86,142.68c-7.76,12.68-8.45,28.7-8.05,42.71.41,14.55,6.16,19.78,6.16,19.78,0,0-.92,2.28-3.33,2.32-3.52.06-2.6-1.57-18.7-1.21-19.68.44-39.35,1.02-59.02,1.75-.04-8.43,8.12-4.07,8.08-13.41-.08-18.38-.17-36.76-.25-55.14-.04-8-3.94-10.88-3.94-10.88,0,0,3.88-3.35,3.84-11.13l-.25-55.14c-.04-9.56-8.19-4.19-8.23-12.61,12.87-1.18,25.75-2.2,38.64-3.07.03,8.52-8.16,4.38-8.13,14,.07,18.5.15,37,.22,55.51.03,7.83,3.94,10.77,3.94,10.77,0,0-3.88,3.33-3.85,11.39.07,17.68.14,35.36.21,53.05.02,5.37,3.55,9.51,8,9.39.44-.01.67-.02,1.11-.03,28.68-1.23,16.81-48.49,35.39-59.61,4.26-1.25,8.17,1.59,8.17,1.59Z"/>
                <path class="cls-8" d="M444.08,205.53c-12.9-.13-25.8-.21-38.7-.21-1.11-8.64,7.78-3.85,6.3-13.4-1.85-13.11-3.7-26.23-5.55-39.34-12.43-.01-24.86.06-37.3.22-1.9,13.11-3.8,26.22-5.69,39.34-1.28,9.55,7.42,4.69,6.32,13.33-11.04.09-16.56.16-27.59.33,1.28-8.62,8.88-3.98,10.16-13.52,2.68-18.79,5.37-37.58,8.06-56.37,1.1-8.19-2.25-11.3-2.25-11.3,0,0,4.27-3.26,5.37-11.22,2.21-15.33,4.42-30.65,6.63-45.98,1.83-7.7-1.8-24.91-13.06-18.08,0,0-.84-11.2,10.79-11.17,12.68.04,24.74,7.01,37.83,6.88,9.02-.09,15.46-1.95,15.46-1.95,1.11,8.65-7.64,3.8-6.34,13.58,2.72,18.81,5.44,37.62,8.15,56.43,1.11,7.96,5.38,11.19,5.38,11.19,0,0-3.35,3.15-2.24,11.34,2.71,18.8,5.41,37.61,8.11,56.41,1.47,9.55,8.89,4.86,10.17,13.49ZM404.45,141.43c-.37-2.36-.56-3.55-.93-5.91-1.11-8.18-5.39-11.36-5.39-11.36,0,0,3.34-3.19,2.23-11.14-2.17-15.07-4.34-30.15-6.52-45.22-.56-4.09-3.65-6.68-6.7-6.54-3.05.14-5.77,2.79-6.32,6.66-2.16,15.1-4.31,30.19-6.47,45.29-1.11,7.96,2.24,11.1,2.24,11.1,0,0-4.27,3.23-5.37,11.42-.37,2.37-.55,3.55-.92,5.92,11.39-.12,22.77-.19,34.16-.21Z"/>
                <path class="cls-8" d="M545.87,207.9c-11.02-.4-16.53-.58-27.56-.9.03-8.06,7.79-3.79,8.19-12.04-6.16-37.8-43.28-56.26-59.23-88.68,0,3.08-.01,4.62-.02,7.69-.02,7.92,3.87,11.2,3.87,11.2,0,0-3.91,3.05-3.93,11.2-.04,18.7-.09,37.41-.13,56.11-.02,9.5,8.32,4.91,8.3,13.49-11.03-.2-16.55-.28-27.59-.41.01-8.62,8.16-3.75,8.17-13.27.04-18.73.07-37.47.11-56.2.02-8.16-3.69-11.41-3.69-11.41,0,0,3.72-3.09,3.74-11.02.04-18.73.07-37.47.11-56.2.02-9.74-8.18-5.23-8.17-13.85,11.1.31,16.65.51,27.74,1.02-.01,5.42-3.36,5.5-5.79,6.99,4.35,36.74,42.65,54.48,56.74,86.39.11-25.61.22-51.22.32-76.83.04-9.6-8.15-5.51-8.12-14.01,11.08.8,16.61,1.25,27.67,2.24-.04,8.43-8.37,3.06-8.42,12.63-.08,18.4-.17,36.8-.25,55.2-.04,7.79,3.84,11.14,3.84,11.14,0,0-3.91,2.88-3.94,10.89l-.25,55.2c-.04,9.35,8.3,4.99,8.26,13.43Z"/>
                <path class="cls-8" d="M643.83,78.96c-.09,15.28,5.4,21.72,5.4,21.72,0,0-11.77,5.91-16.53-12.57-2.63-10.19-8.73-23.76-20.73-25.44-.12,20.16-.24,40.31-.36,60.47-.04,7.56,3.82,10.94,3.82,10.94,0,0-3.9,2.66-3.94,10.44-.11,17.85-.21,35.7-.32,53.55-.05,9.07,8.28,5.02,8.23,13.19-12.86-.71-25.73-1.35-38.59-1.93.05-8.32,8.15-3.33,8.2-12.5l.31-54.13c.04-7.86-3.64-11.21-3.64-11.21,0,0,3.72-2.75,3.76-10.39.11-20.37.23-40.74.35-61.11-12.98-1.67-17.85,11.88-21.05,21.08-5.98,17.2-16.73,9.4-16.73,9.4,0,0,5.78-5.51,5.86-21.43.09-18.57-5.65-21.78-5.65-21.78,0,0,1.12-2.11,3.35-1.9,3.53.34,4.24,5.26,12.77,6.14,21.82,2.34,43.57,5.04,65.29,8.1,8.49,1.23,9.25-3.31,12.75-2.76,2.21.35,3.12,2.61,3.12,2.61,0,0-5.54,1.69-5.65,19.51Z"/>
                <path class="cls-8" d="M655.76,14.27c8.17,1.55,12.26,2.36,20.41,4.04,23.32,3.84,48.25-1.13,70.96,5.04,13.22,3.59,25.64,15.38,26.87,29.56.92,10.56-4.87,20.9-17.23,17.68-11.33-2.96-17.05-19.18-17.05-19.18,18.22,9.81,18.63-20.47,1.2-25-14.61-3.79-20.03,9.94-16.89,22.53,4.55,20.16,9.15,40.3,13.79,60.44,4.21.19,8.81.64,13.33,1.55,27.13,5.45,54.74,27.24,54.37,57.36-.3,23.79-22.32,38.25-44.29,39.86,2.24,9.21,3.37,13.8,5.61,22.91,2.99,11.81,16.63,56-4.22,58.95-9.98,1.41-15.47,13.7-21.27,20.38-8.5,9.78-19.92.72-19.92.72,33.48-19.67,28.63-70.65,25.31-103.08-.07,0-.11-.01-.18-.02-18.21-1.3-38.53-12.28-42.7-31.37-2.84-13.01,3.67-27.13,18.92-24.85-4.67,19.56-2.93,49.2,22.7,51.59.18.02.55.06.73.08-2.52-16.93-5.73-33.6-9.5-50.29-1.62-7.17-6-10.62-6-10.62,0,0,2.94-2.33,1.33-9.75-1.44-6.2-2.15-9.31-3.59-15.54-18.53,4.55-32.68,19.19-42.42,34.91-.08,13.68-.16,27.37-.24,41.05-.54,16.28,16.05,32.98,32.61,25.99,0,0,.74,20.31-12.61,18.93-10.25-1.06-16.56-13.09-20.13-22.02-.08,12.79-.15,25.58-.23,38.37-.05,8.66,8.08,4.67,8.04,12.46-13.09-.47-26.17-.91-39.26-1.32.05-8.01,8.13-3.31,8.19-12.11.22-36.61.45-73.21.67-109.82.04-7.34-3.62-10.7-3.62-10.7,0,0,3.7-2.5,3.75-10.04.19-31.58.39-63.15.58-94.73.05-8.8-8.07-5.92-8.02-13.93ZM743.75,134.69c1.62,7.36,6.18,10.82,6.18,10.82,0,0-3.12,2.26-1.5,9.36,3.75,15.77,7.53,31.54,11.37,47.29,36.99-12.44,21.65-78.41-11.03-85.25-3.2-.67-6.39-.79-9.32-.73,1.72,7.43,2.59,11.13,4.31,18.5ZM686.19,125.95c.36,1.91.53,3.38.89,4.66,10.91-10.07,24.77-18.49,39.76-20.45-2.01-8.67-3.01-13.02-5.02-21.76-8.62,2.37-12.06-5.92-12.06-5.92,9.7-3.23,7.21-16.44,5.08-24.7-1-4.33-1.5-6.5-2.51-10.85-2.15-9.38-7.78-16.97-14.92-18.54-7.33-1.6-10.67,4.73-10.71,10.92-.17,28.88-.34,57.76-.51,86.64Z"/>
              </g>
            </g>
            <g>
              <path class="cls-6" d="M142.25,28.2c.19,31.58.39,63.15.58,94.73.05,7.54,3.75,10.04,3.75,10.04,0,0-3.66,3.37-3.62,10.7.22,36.61.45,73.21.67,109.82.05,8.8,8.14,4.1,8.19,12.11-13.09.41-26.17.85-39.26,1.32-.04-7.79,8.09-3.79,8.04-12.46-.08-12.79-.15-25.58-.23-38.37-3.57,8.93-9.88,20.96-20.13,22.02-13.35,1.38-12.61-18.93-12.61-18.93,16.74,8.21,32.45-10.71,32.61-25.99-.08-13.68-.16-27.37-.24-41.05-9.73-15.72-23.88-30.36-42.42-34.91-1.44,6.24-2.15,9.34-3.59,15.54-1.61,7.42,1.33,9.75,1.33,9.75,0,0-4.38,3.45-6,10.62-3.77,16.7-6.98,33.36-9.5,50.29.18-.02.55-.06.73-.08,25.69-2.4,27.28-32.02,22.7-51.59,15.33-2.51,21.71,12.07,18.92,24.85-4.27,19.55-24.43,29.43-42.7,31.37-.07,0-.11.01-.18.02-3.25,31.78-8.39,84.23,25.31,103.08,0,0-11.42,9.06-19.92-.72-5.8-6.68-11.29-18.97-21.27-20.38-20.85-2.94-7.21-47.14-4.23-58.95,2.25-9.12,3.37-13.7,5.62-22.91-21.96-1.61-44.53-15.91-44.29-39.86.3-29.74,26.31-52.22,54.37-57.36,4.52-.83,9.13-1.36,13.33-1.55,4.64-20.14,9.24-40.28,13.79-60.44,4.68-12.67-3.16-26.08-16.89-22.53-17.41,4.5-17.02,34.81,1.2,25,0,0-5.84,16.16-17.05,19.18-12.09,3.26-18.14-7.2-17.23-17.68,1.23-14.17,13.7-25.98,26.87-29.56,22.72-6.17,47.64-1.19,70.96-5.04,8.15-1.68,12.24-2.49,20.41-4.04.05,8.01-8.07,5.13-8.02,13.93ZM66.59,116.19c-2.93-.06-6.1.07-9.32.73-33.41,6.79-47.42,72.46-11.03,85.25,3.83-15.75,7.62-31.51,11.37-47.29,1.62-7.1-1.5-9.36-1.5-9.36,0,0,4.56-3.47,6.18-10.82,1.73-7.37,2.59-11.08,4.31-18.5ZM119.33,39.32c-.04-6.19-3.38-12.52-10.71-10.92-7.14,1.56-12.78,9.16-14.92,18.54-1,4.35-1.5,6.52-2.51,10.85-2.13,8.26-4.62,21.47,5.08,24.7,0,0-3.44,8.28-12.06,5.92-2.01,8.74-3.01,13.09-5.02,21.76,14.91,2.61,28.89,9.91,39.76,20.45.36-1.29.54-2.75.89-4.66-.17-28.88-.34-57.76-.51-86.64Z"/>
              <path class="cls-6" d="M245.12,69.32c.08,15.9,5.67,21.41,5.67,21.41,0,0-10.64,7.92-16.73-9.36-3.26-9.25-8.03-22.78-21.05-21.01.12,20.34.23,40.68.35,61.02.04,7.63,3.94,10.36,3.94,10.36,0,0-3.87,3.37-3.82,11.22.1,18.02.21,36.03.31,54.05.05,9.15,8.34,4.16,8.39,12.47-12.87.59-25.73,1.25-38.59,1.96-.05-8.16,8.1-4.11,8.04-13.17-.11-17.82-.21-35.64-.32-53.47-.05-7.76-3.76-10.43-3.76-10.43,0,0,3.68-3.37,3.63-10.91-.12-20.12-.24-40.24-.36-60.36-12.34,1.87-17.75,14.75-20.72,25.44-5.24,18.81-16.53,12.58-16.53,12.58,0,0,5.68-6.47,5.58-21.72-.11-17.79-5.84-19.43-5.84-19.43,0,0,1.09-2.29,3.3-2.64,3.5-.55,4.26,3.98,12.75,2.73,21.72-3.11,43.46-5.85,65.28-8.23,8.53-.9,9.25-5.81,12.77-6.16,2.23-.22,3.17,1.9,3.17,1.9,0,0-5.55,3.19-5.46,21.75Z"/>
              <path class="cls-6" d="M339.86,142.68c-7.76,12.68-8.45,28.7-8.05,42.71.41,14.55,6.16,19.78,6.16,19.78,0,0-.92,2.28-3.33,2.32-3.52.06-2.6-1.57-18.7-1.21-19.68.44-39.35,1.02-59.02,1.75-.04-8.43,8.12-4.07,8.08-13.41-.08-18.38-.17-36.76-.25-55.14-.04-8-3.94-10.88-3.94-10.88,0,0,3.88-3.35,3.84-11.13l-.25-55.14c-.04-9.56-8.19-4.19-8.23-12.61,12.87-1.18,25.75-2.2,38.64-3.07.03,8.52-8.16,4.38-8.13,14,.07,18.5.15,37,.22,55.51.03,7.83,3.94,10.77,3.94,10.77,0,0-3.88,3.33-3.85,11.39.07,17.68.14,35.36.21,53.05.02,5.37,3.55,9.51,8,9.39.44-.01.67-.02,1.11-.03,28.68-1.23,16.81-48.49,35.39-59.61,4.26-1.25,8.17,1.59,8.17,1.59Z"/>
              <path class="cls-6" d="M444.08,205.53c-12.9-.13-25.8-.21-38.7-.21-1.11-8.64,7.78-3.85,6.3-13.4-1.85-13.11-3.7-26.23-5.55-39.34-12.43-.01-24.86.06-37.3.22-1.9,13.11-3.8,26.22-5.69,39.34-1.28,9.55,7.42,4.69,6.32,13.33-11.04.09-16.56.16-27.59.33,1.28-8.62,8.88-3.98,10.16-13.52,2.68-18.79,5.37-37.58,8.06-56.37,1.1-8.19-2.25-11.3-2.25-11.3,0,0,4.27-3.26,5.37-11.22,2.21-15.33,4.42-30.65,6.63-45.98,1.83-7.7-1.8-24.91-13.06-18.08,0,0-.84-11.2,10.79-11.17,12.68.04,24.74,7.01,37.83,6.88,9.02-.09,15.46-1.95,15.46-1.95,1.11,8.65-7.64,3.8-6.34,13.58,2.72,18.81,5.44,37.62,8.15,56.43,1.11,7.96,5.38,11.19,5.38,11.19,0,0-3.35,3.15-2.24,11.34,2.71,18.8,5.41,37.61,8.11,56.41,1.47,9.55,8.89,4.86,10.17,13.49ZM404.45,141.43c-.37-2.36-.56-3.55-.93-5.91-1.11-8.18-5.39-11.36-5.39-11.36,0,0,3.34-3.19,2.23-11.14-2.17-15.07-4.34-30.15-6.52-45.22-.56-4.09-3.65-6.68-6.7-6.54-3.05.14-5.77,2.79-6.32,6.66-2.16,15.1-4.31,30.19-6.47,45.29-1.11,7.96,2.24,11.1,2.24,11.1,0,0-4.27,3.23-5.37,11.42-.37,2.37-.55,3.55-.92,5.92,11.39-.12,22.77-.19,34.16-.21Z"/>
              <path class="cls-6" d="M545.87,207.9c-11.02-.4-16.53-.58-27.56-.9.03-8.06,7.79-3.79,8.19-12.04-6.16-37.8-43.28-56.26-59.23-88.68,0,3.08-.01,4.62-.02,7.69-.02,7.92,3.87,11.2,3.87,11.2,0,0-3.91,3.05-3.93,11.2-.04,18.7-.09,37.41-.13,56.11-.02,9.5,8.32,4.91,8.3,13.49-11.03-.2-16.55-.28-27.59-.41.01-8.62,8.16-3.75,8.17-13.27.04-18.73.07-37.47.11-56.2.02-8.16-3.69-11.41-3.69-11.41,0,0,3.72-3.09,3.74-11.02.04-18.73.07-37.47.11-56.2.02-9.74-8.18-5.23-8.17-13.85,11.1.31,16.65.51,27.74,1.02-.01,5.42-3.36,5.5-5.79,6.99,4.35,36.74,42.65,54.48,56.74,86.39.11-25.61.22-51.22.32-76.83.04-9.6-8.15-5.51-8.12-14.01,11.08.8,16.61,1.25,27.67,2.24-.04,8.43-8.37,3.06-8.42,12.63-.08,18.4-.17,36.8-.25,55.2-.04,7.79,3.84,11.14,3.84,11.14,0,0-3.91,2.88-3.94,10.89l-.25,55.2c-.04,9.35,8.3,4.99,8.26,13.43Z"/>
              <path class="cls-6" d="M643.83,78.96c-.09,15.28,5.4,21.72,5.4,21.72,0,0-11.77,5.91-16.53-12.57-2.63-10.19-8.73-23.76-20.73-25.44-.12,20.16-.24,40.31-.36,60.47-.04,7.56,3.82,10.94,3.82,10.94,0,0-3.9,2.66-3.94,10.44-.11,17.85-.21,35.7-.32,53.55-.05,9.07,8.28,5.02,8.23,13.19-12.86-.71-25.73-1.35-38.59-1.93.05-8.32,8.15-3.33,8.2-12.5l.31-54.13c.04-7.86-3.64-11.21-3.64-11.21,0,0,3.72-2.75,3.76-10.39.11-20.37.23-40.74.35-61.11-12.98-1.67-17.85,11.88-21.05,21.08-5.98,17.2-16.73,9.4-16.73,9.4,0,0,5.78-5.51,5.86-21.43.09-18.57-5.65-21.78-5.65-21.78,0,0,1.12-2.11,3.35-1.9,3.53.34,4.24,5.26,12.77,6.14,21.82,2.34,43.57,5.04,65.29,8.1,8.49,1.23,9.25-3.31,12.75-2.76,2.21.35,3.12,2.61,3.12,2.61,0,0-5.54,1.69-5.65,19.51Z"/>
              <path class="cls-6" d="M655.76,14.27c8.17,1.55,12.26,2.36,20.41,4.04,23.32,3.84,48.25-1.13,70.96,5.04,13.22,3.59,25.64,15.38,26.87,29.56.92,10.56-4.87,20.9-17.23,17.68-11.33-2.96-17.05-19.18-17.05-19.18,18.22,9.81,18.63-20.47,1.2-25-14.61-3.79-20.03,9.94-16.89,22.53,4.55,20.16,9.15,40.3,13.79,60.44,4.21.19,8.81.64,13.33,1.55,27.13,5.45,54.74,27.24,54.37,57.36-.3,23.79-22.32,38.25-44.29,39.86,2.24,9.21,3.37,13.8,5.61,22.91,2.99,11.81,16.63,56-4.22,58.95-9.98,1.41-15.47,13.7-21.27,20.38-8.5,9.78-19.92.72-19.92.72,33.48-19.67,28.63-70.65,25.31-103.08-.07,0-.11-.01-.18-.02-18.21-1.3-38.53-12.28-42.7-31.37-2.84-13.01,3.67-27.13,18.92-24.85-4.67,19.56-2.93,49.2,22.7,51.59.18.02.55.06.73.08-2.52-16.93-5.73-33.6-9.5-50.29-1.62-7.17-6-10.62-6-10.62,0,0,2.94-2.33,1.33-9.75-1.44-6.2-2.15-9.31-3.59-15.54-18.53,4.55-32.68,19.19-42.42,34.91-.08,13.68-.16,27.37-.24,41.05-.54,16.28,16.05,32.98,32.61,25.99,0,0,.74,20.31-12.61,18.93-10.25-1.06-16.56-13.09-20.13-22.02-.08,12.79-.15,25.58-.23,38.37-.05,8.66,8.08,4.67,8.04,12.46-13.09-.47-26.17-.91-39.26-1.32.05-8.01,8.13-3.31,8.19-12.11.22-36.61.45-73.21.67-109.82.04-7.34-3.62-10.7-3.62-10.7,0,0,3.7-2.5,3.75-10.04.19-31.58.39-63.15.58-94.73.05-8.8-8.07-5.92-8.02-13.93ZM743.75,134.69c1.62,7.36,6.18,10.82,6.18,10.82,0,0-3.12,2.26-1.5,9.36,3.75,15.77,7.53,31.54,11.37,47.29,36.99-12.44,21.65-78.41-11.03-85.25-3.2-.67-6.39-.79-9.32-.73,1.72,7.43,2.59,11.13,4.31,18.5ZM686.19,125.95c.36,1.91.53,3.38.89,4.66,10.91-10.07,24.77-18.49,39.76-20.45-2.01-8.67-3.01-13.02-5.02-21.76-8.62,2.37-12.06-5.92-12.06-5.92,9.7-3.23,7.21-16.44,5.08-24.7-1-4.33-1.5-6.5-2.51-10.85-2.15-9.38-7.78-16.97-14.92-18.54-7.33-1.6-10.67,4.73-10.71,10.92-.17,28.88-.34,57.76-.51,86.64Z"/>
            </g>
            <g>
              <path class="cls-1" d="M142.25,25.2c.19,31.58.39,63.15.58,94.73.05,7.54,3.75,10.04,3.75,10.04,0,0-3.66,3.37-3.62,10.7.22,36.61.45,73.21.67,109.82.05,8.8,8.14,4.1,8.19,12.11-13.09.41-26.17.85-39.26,1.32-.04-7.79,8.09-3.79,8.04-12.46-.08-12.79-.15-25.58-.23-38.37-3.57,8.93-9.88,20.96-20.13,22.02-13.35,1.38-12.61-18.93-12.61-18.93,16.74,8.21,32.45-10.71,32.61-25.99-.08-13.68-.16-27.37-.24-41.05-9.73-15.72-23.88-30.36-42.42-34.91-1.44,6.24-2.15,9.34-3.59,15.54-1.61,7.42,1.33,9.75,1.33,9.75,0,0-4.38,3.45-6,10.62-3.77,16.7-6.98,33.36-9.5,50.29.18-.02.55-.06.73-.08,25.69-2.4,27.28-32.02,22.7-51.59,15.33-2.51,21.71,12.07,18.92,24.85-4.27,19.55-24.43,29.43-42.7,31.37-.07,0-.11.01-.18.02-3.25,31.78-8.39,84.23,25.31,103.08,0,0-11.42,9.06-19.92-.72-5.8-6.68-11.29-18.97-21.27-20.38-20.85-2.94-7.21-47.14-4.23-58.95,2.25-9.12,3.37-13.7,5.62-22.91-21.96-1.61-44.53-15.91-44.29-39.86.3-29.74,26.31-52.22,54.37-57.36,4.52-.83,9.13-1.36,13.33-1.55,4.64-20.14,9.24-40.28,13.79-60.44,4.68-12.67-3.16-26.08-16.89-22.53-17.41,4.5-17.02,34.81,1.2,25,0,0-5.84,16.16-17.05,19.18-12.09,3.26-18.14-7.2-17.23-17.68,1.23-14.17,13.7-25.98,26.87-29.56,22.72-6.17,47.64-1.19,70.96-5.04,8.15-1.68,12.24-2.49,20.41-4.04.05,8.01-8.07,5.13-8.02,13.93ZM66.59,113.19c-2.93-.06-6.1.07-9.32.73-33.41,6.79-47.42,72.46-11.03,85.25,3.83-15.75,7.62-31.51,11.37-47.29,1.62-7.1-1.5-9.36-1.5-9.36,0,0,4.56-3.47,6.18-10.82,1.73-7.37,2.59-11.08,4.31-18.5ZM119.33,36.32c-.04-6.19-3.38-12.52-10.71-10.92-7.14,1.56-12.78,9.16-14.92,18.54-1,4.35-1.5,6.52-2.51,10.85-2.13,8.26-4.62,21.47,5.08,24.7,0,0-3.44,8.28-12.06,5.92-2.01,8.74-3.01,13.09-5.02,21.76,14.91,2.61,28.89,9.91,39.76,20.45.36-1.29.54-2.75.89-4.66-.17-28.88-.34-57.76-.51-86.64Z"/>
              <path class="cls-1" d="M245.12,66.32c.08,15.9,5.67,21.41,5.67,21.41,0,0-10.64,7.92-16.73-9.36-3.26-9.25-8.03-22.78-21.05-21.01.12,20.34.23,40.68.35,61.02.04,7.63,3.94,10.36,3.94,10.36,0,0-3.87,3.37-3.82,11.22.1,18.02.21,36.03.31,54.05.05,9.15,8.34,4.16,8.39,12.47-12.87.59-25.73,1.25-38.59,1.96-.05-8.16,8.1-4.11,8.04-13.17-.11-17.82-.21-35.64-.32-53.47-.05-7.76-3.76-10.43-3.76-10.43,0,0,3.68-3.37,3.63-10.91-.12-20.12-.24-40.24-.36-60.36-12.34,1.87-17.75,14.75-20.72,25.44-5.24,18.81-16.53,12.58-16.53,12.58,0,0,5.68-6.47,5.58-21.72-.11-17.79-5.84-19.43-5.84-19.43,0,0,1.09-2.29,3.3-2.64,3.5-.55,4.26,3.98,12.75,2.73,21.72-3.11,43.46-5.85,65.28-8.23,8.53-.9,9.25-5.81,12.77-6.16,2.23-.22,3.17,1.9,3.17,1.9,0,0-5.55,3.19-5.46,21.75Z"/>
              <path class="cls-1" d="M339.86,139.68c-7.76,12.68-8.45,28.7-8.05,42.71.41,14.55,6.16,19.78,6.16,19.78,0,0-.92,2.28-3.33,2.32-3.52.06-2.6-1.57-18.7-1.21-19.68.44-39.35,1.02-59.02,1.75-.04-8.43,8.12-4.07,8.08-13.41-.08-18.38-.17-36.76-.25-55.14-.04-8-3.94-10.88-3.94-10.88,0,0,3.88-3.35,3.84-11.13l-.25-55.14c-.04-9.56-8.19-4.19-8.23-12.61,12.87-1.18,25.75-2.2,38.64-3.07.03,8.52-8.16,4.38-8.13,14,.07,18.5.15,37,.22,55.51.03,7.83,3.94,10.77,3.94,10.77,0,0-3.88,3.33-3.85,11.39.07,17.68.14,35.36.21,53.05.02,5.37,3.55,9.51,8,9.39.44-.01.67-.02,1.11-.03,28.68-1.23,16.81-48.49,35.39-59.61,4.26-1.25,8.17,1.59,8.17,1.59Z"/>
              <path class="cls-1" d="M444.08,202.53c-12.9-.13-25.8-.21-38.7-.21-1.11-8.64,7.78-3.85,6.3-13.4-1.85-13.11-3.7-26.23-5.55-39.34-12.43-.01-24.86.06-37.3.22-1.9,13.11-3.8,26.22-5.69,39.34-1.28,9.55,7.42,4.69,6.32,13.33-11.04.09-16.56.16-27.59.33,1.28-8.62,8.88-3.98,10.16-13.52,2.68-18.79,5.37-37.58,8.06-56.37,1.1-8.19-2.25-11.3-2.25-11.3,0,0,4.27-3.26,5.37-11.22,2.21-15.33,4.42-30.65,6.63-45.98,1.83-7.7-1.8-24.91-13.06-18.08,0,0-.84-11.2,10.79-11.17,12.68.04,24.74,7.01,37.83,6.88,9.02-.09,15.46-1.95,15.46-1.95,1.11,8.65-7.64,3.8-6.34,13.58,2.72,18.81,5.44,37.62,8.15,56.43,1.11,7.96,5.38,11.19,5.38,11.19,0,0-3.35,3.15-2.24,11.34,2.71,18.8,5.41,37.61,8.11,56.41,1.47,9.55,8.89,4.86,10.17,13.49ZM404.45,138.43c-.37-2.36-.56-3.55-.93-5.91-1.11-8.18-5.39-11.36-5.39-11.36,0,0,3.34-3.19,2.23-11.14-2.17-15.07-4.34-30.15-6.52-45.22-.56-4.09-3.65-6.68-6.7-6.54-3.05.14-5.77,2.79-6.32,6.66-2.16,15.1-4.31,30.19-6.47,45.29-1.11,7.96,2.24,11.1,2.24,11.1,0,0-4.27,3.23-5.37,11.42-.37,2.37-.55,3.55-.92,5.92,11.39-.12,22.77-.19,34.16-.21Z"/>
              <path class="cls-1" d="M545.87,204.9c-11.02-.4-16.53-.58-27.56-.9.03-8.06,7.79-3.79,8.19-12.04-6.16-37.8-43.28-56.26-59.23-88.68,0,3.08-.01,4.62-.02,7.69-.02,7.92,3.87,11.2,3.87,11.2,0,0-3.91,3.05-3.93,11.2-.04,18.7-.09,37.41-.13,56.11-.02,9.5,8.32,4.91,8.3,13.49-11.03-.2-16.55-.28-27.59-.41.01-8.62,8.16-3.75,8.17-13.27.04-18.73.07-37.47.11-56.2.02-8.16-3.69-11.41-3.69-11.41,0,0,3.72-3.09,3.74-11.02.04-18.73.07-37.47.11-56.2.02-9.74-8.18-5.23-8.17-13.85,11.1.31,16.65.51,27.74,1.02-.01,5.42-3.36,5.5-5.79,6.99,4.35,36.74,42.65,54.48,56.74,86.39.11-25.61.22-51.22.32-76.83.04-9.6-8.15-5.51-8.12-14.01,11.08.8,16.61,1.25,27.67,2.24-.04,8.43-8.37,3.06-8.42,12.63-.08,18.4-.17,36.8-.25,55.2-.04,7.79,3.84,11.14,3.84,11.14,0,0-3.91,2.88-3.94,10.89l-.25,55.2c-.04,9.35,8.3,4.99,8.26,13.43Z"/>
              <path class="cls-1" d="M643.83,75.96c-.09,15.28,5.4,21.72,5.4,21.72,0,0-11.77,5.91-16.53-12.57-2.63-10.19-8.73-23.76-20.73-25.44-.12,20.16-.24,40.31-.36,60.47-.04,7.56,3.82,10.94,3.82,10.94,0,0-3.9,2.66-3.94,10.44-.11,17.85-.21,35.7-.32,53.55-.05,9.07,8.28,5.02,8.23,13.19-12.86-.71-25.73-1.35-38.59-1.93.05-8.32,8.15-3.33,8.2-12.5l.31-54.13c.04-7.86-3.64-11.21-3.64-11.21,0,0,3.72-2.75,3.76-10.39.11-20.37.23-40.74.35-61.11-12.98-1.67-17.85,11.88-21.05,21.08-5.98,17.2-16.73,9.4-16.73,9.4,0,0,5.78-5.51,5.86-21.43.09-18.57-5.65-21.78-5.65-21.78,0,0,1.12-2.11,3.35-1.9,3.53.34,4.24,5.26,12.77,6.14,21.82,2.34,43.57,5.04,65.29,8.1,8.49,1.23,9.25-3.31,12.75-2.76,2.21.35,3.12,2.61,3.12,2.61,0,0-5.54,1.69-5.65,19.51Z"/>
              <path class="cls-1" d="M655.76,11.27c8.17,1.55,12.26,2.36,20.41,4.04,23.32,3.84,48.25-1.13,70.96,5.04,13.22,3.59,25.64,15.38,26.87,29.56.92,10.56-4.87,20.9-17.23,17.68-11.33-2.96-17.05-19.18-17.05-19.18,18.22,9.81,18.63-20.47,1.2-25-14.61-3.79-20.03,9.94-16.89,22.53,4.55,20.16,9.15,40.3,13.79,60.44,4.21.19,8.81.64,13.33,1.55,27.13,5.45,54.74,27.24,54.37,57.36-.3,23.79-22.32,38.25-44.29,39.86,2.24,9.21,3.37,13.8,5.61,22.91,2.99,11.81,16.63,56-4.22,58.95-9.98,1.41-15.47,13.7-21.27,20.38-8.5,9.78-19.92.72-19.92.72,33.48-19.67,28.63-70.65,25.31-103.08-.07,0-.11-.01-.18-.02-18.21-1.3-38.53-12.28-42.7-31.37-2.84-13.01,3.67-27.13,18.92-24.85-4.67,19.56-2.93,49.2,22.7,51.59.18.02.55.06.73.08-2.52-16.93-5.73-33.6-9.5-50.29-1.62-7.17-6-10.62-6-10.62,0,0,2.94-2.33,1.33-9.75-1.44-6.2-2.15-9.31-3.59-15.54-18.53,4.55-32.68,19.19-42.42,34.91-.08,13.68-.16,27.37-.24,41.05-.54,16.28,16.05,32.98,32.61,25.99,0,0,.74,20.31-12.61,18.93-10.25-1.06-16.56-13.09-20.13-22.02-.08,12.79-.15,25.58-.23,38.37-.05,8.66,8.08,4.67,8.04,12.46-13.09-.47-26.17-.91-39.26-1.32.05-8.01,8.13-3.31,8.19-12.11.22-36.61.45-73.21.67-109.82.04-7.34-3.62-10.7-3.62-10.7,0,0,3.7-2.5,3.75-10.04.19-31.58.39-63.15.58-94.73.05-8.8-8.07-5.92-8.02-13.93ZM743.75,131.69c1.62,7.36,6.18,10.82,6.18,10.82,0,0-3.12,2.26-1.5,9.36,3.75,15.77,7.53,31.54,11.37,47.29,36.99-12.44,21.65-78.41-11.03-85.25-3.2-.67-6.39-.79-9.32-.73,1.72,7.43,2.59,11.13,4.31,18.5ZM686.19,122.95c.36,1.91.53,3.38.89,4.66,10.91-10.07,24.77-18.49,39.76-20.45-2.01-8.67-3.01-13.02-5.02-21.76-8.62,2.37-12.06-5.92-12.06-5.92,9.7-3.23,7.21-16.44,5.08-24.7-1-4.33-1.5-6.5-2.51-10.85-2.15-9.38-7.78-16.97-14.92-18.54-7.33-1.6-10.67,4.73-10.71,10.92-.17,28.88-.34,57.76-.51,86.64Z"/>
            </g>
            <g class="cls-9">
              <g>
                <path class="cls-4" d="M759.79,199.16c-3.84-15.75-7.62-31.51-11.37-47.29-1.62-7.1,1.5-9.36,1.5-9.36,0,0-1.67-1.28-3.35-3.92-4.66-.56-9.47-1.11-14.44-1.66-.53,1.87-1.42,2.58-1.42,2.58,0,0,4.38,3.45,6,10.62,3.77,16.7,6.98,33.36,9.5,50.29-.18-.02-.55-.06-.73-.08-25.62-2.4-27.37-32.03-22.7-51.59-15.24-2.28-21.76,11.84-18.92,24.85,4.17,19.09,24.49,30.07,42.7,31.37.07,0,.11.01.18.02,3.32,32.44,8.17,83.41-25.31,103.08,0,0,11.42,9.06,19.92-.72,5.8-6.68,11.29-18.97,21.27-20.38,20.85-2.94,7.21-47.14,4.22-58.95-2.25-9.12-3.37-13.7-5.61-22.91,21.96-1.61,43.99-16.07,44.29-39.86.08-6.66-1.21-12.92-3.56-18.68-7.61-1.32-15.86-2.64-24.8-3.95,8.23,21.78,5.04,48.98-17.37,56.52Z"/>
                <path class="cls-4" d="M685.44,251.46c.08-12.79.15-25.58.23-38.37,3.57,8.93,9.88,20.96,20.13,22.02,13.35,1.38,12.61-18.93,12.61-18.93-16.55,7-33.15-9.7-32.61-25.99.08-13.68.16-27.37.24-41.05,3.38-5.46,7.29-10.78,11.73-15.61-11.87-1.06-24.46-2.06-37.81-3.01,1,1.23,3.15,4.52,3.11,10.14-.22,36.61-.45,73.21-.67,109.82-.05,8.8-8.14,4.1-8.19,12.11,13.09.41,26.17.85,39.26,1.32.04-7.79-8.09-3.79-8.04-12.46Z"/>
              </g>
              <g>
                <path class="cls-4" d="M44.79,205.13c-2.24,9.21-3.37,13.8-5.62,22.91-2.99,11.81-16.63,56,4.23,58.95,9.98,1.41,15.47,13.7,21.27,20.38,8.5,9.78,19.92.72,19.92.72-33.7-18.85-28.56-71.3-25.31-103.08.07,0,.11-.01.18-.02,18.27-1.94,38.43-11.82,42.7-31.37,2.79-12.79-3.59-27.36-18.92-24.85,4.58,19.58,2.99,49.19-22.7,51.59-.18.02-.55.06-.73.08,2.52-16.93,5.73-33.6,9.5-50.29,1.62-7.17,6-10.62,6-10.62,0,0-.89-.71-1.42-2.58-4.97.54-9.78,1.1-14.44,1.66-1.68,2.64-3.35,3.92-3.35,3.92,0,0,3.12,2.26,1.5,9.36-3.74,15.77-7.53,31.53-11.37,47.29-22-7.73-25.57-34.8-17.58-56.49-8.78,1.28-16.88,2.58-24.37,3.88-2.37,5.8-3.72,12.08-3.79,18.72-.24,23.95,22.32,38.25,44.29,39.86Z"/>
                <path class="cls-4" d="M119.99,149.15c.08,13.68.16,27.37.24,41.05-.16,15.28-15.86,34.19-32.61,25.99,0,0-.74,20.31,12.61,18.93,10.25-1.06,16.56-13.09,20.13-22.02.08,12.79.15,25.58.23,38.37.05,8.66-8.08,4.67-8.04,12.46,13.09-.47,26.17-.91,39.26-1.32-.05-8.01-8.13-3.31-8.19-12.11-.22-36.61-.45-73.21-.67-109.82-.03-5.62,2.11-8.91,3.11-10.14-13.35.94-25.94,1.95-37.81,3.01,4.44,4.82,8.35,10.15,11.73,15.61Z"/>
              </g>
              <path class="cls-4" d="M213.79,194c-.1-18.02-.21-36.03-.31-54.05-.04-7.85,3.82-11.22,3.82-11.22,0,0-.91-.65-1.86-2.16-8.8.39-17.34.81-25.64,1.26-1.03,2.41-2.25,3.54-2.25,3.54,0,0,3.71,2.67,3.76,10.43.11,17.82.21,35.64.32,53.47.05,9.05-8.09,5.01-8.04,13.17,12.86-.72,25.72-1.37,38.59-1.96-.05-8.31-8.33-3.31-8.39-12.47Z"/>
              <path class="cls-4" d="M334.64,204.49c2.41-.04,3.33-2.32,3.33-2.32,0,0-5.75-5.23-6.16-19.78-.39-14.01.3-30.02,8.05-42.71,0,0-3.9-2.84-8.17-1.59-18.58,11.11-6.71,58.38-35.39,59.61-.44.01-.67.02-1.11.03-4.44.13-7.97-4.01-8-9.39-.07-17.68-.14-35.36-.21-53.05-.03-7.25,3.1-10.66,3.73-11.27-9.99.24-19.73.5-29.21.8-.41.51-.7.77-.7.77,0,0,3.9,2.87,3.94,10.88l.25,55.14c.04,9.34-8.12,4.99-8.08,13.41,19.67-.73,39.34-1.31,59.02-1.75,16.1-.36,15.18,1.27,18.7,1.21Z"/>
              <path class="cls-4" d="M403.01,122.76c-1.12,0-2.22,0-3.34,0,1.34,1.69,3.17,4.8,3.84,9.76.37,2.36.56,3.55.93,5.91-11.39.02-22.77.09-34.16.21.37-2.37.55-3.55.92-5.92.68-5.05,2.56-8.21,3.91-9.89-5.51.03-10.95.07-16.33.11.89,1.61,1.98,4.76,1.29,9.95-2.69,18.79-5.38,37.58-8.06,56.37-1.28,9.54-8.88,4.9-10.16,13.52,11.03-.17,16.55-.24,27.59-.33,1.1-8.64-7.6-3.78-6.32-13.33,1.9-13.11,3.79-26.22,5.69-39.34,12.43-.16,24.86-.23,37.3-.22,1.85,13.11,3.71,26.23,5.55,39.34,1.48,9.55-7.41,4.76-6.3,13.4,12.9,0,25.8.08,38.7.21-1.28-8.64-8.7-3.94-10.17-13.49-2.7-18.8-5.4-37.61-8.11-56.41-.68-5.02.32-8.14,1.19-9.81-7.87-.04-15.85-.06-23.98-.06Z"/>
              <g>
                <path class="cls-4" d="M526.74,135.01c-1.68-3.8-3.71-7.4-5.98-10.85-12.93-.32-26.32-.59-40.16-.81,17.71,21.6,41.12,39.29,45.9,68.62-.41,8.25-8.16,3.98-8.19,12.04,11.03.32,16.54.5,27.56.9.04-8.43-8.31-4.08-8.26-13.43l.25-55.2c.04-8.01,3.94-10.89,3.94-10.89,0,0-.25-.21-.62-.66-4.74-.14-9.53-.28-14.4-.41-.02,3.57-.03,7.13-.05,10.7Z"/>
                <path class="cls-4" d="M467.07,189.49c.04-18.7.09-37.41.13-56.11.01-5.52,1.81-8.7,2.97-10.17-5.5-.07-11.08-.14-16.72-.19,1.09,1.63,2.63,4.84,2.62,10.1-.04,18.73-.07,37.46-.11,56.2-.02,9.52-8.16,4.65-8.17,13.27,11.04.13,16.55.21,27.59.41.02-8.59-8.32-3.99-8.3-13.49Z"/>
              </g>
              <path class="cls-4" d="M585.67,128.49s3.68,3.36,3.64,11.21l-.31,54.13c-.05,9.17-8.16,4.18-8.2,12.5,12.87.58,25.73,1.23,38.59,1.93.05-8.17-8.28-4.12-8.23-13.19.11-17.85.21-35.7.32-53.55.05-7.77,3.94-10.44,3.94-10.44,0,0-1.24-1.09-2.31-3.41-8.34-.44-16.92-.85-25.75-1.24-.87,1.44-1.7,2.06-1.7,2.06Z"/>
            </g>
            <text class="cls-3" transform="translate(183.97 275.26)"><tspan x="0" y="0">BALKAN ROLEPL</tspan><tspan class="cls-10" x="382.33" y="0">A</tspan><tspan x="408.09" y="0">Y</tspan></text>
            <g>
              <text class="cls-2" transform="translate(118.87 296.96)"><tspan x="0" y="0">i</tspan></text>
              <text class="cls-2" transform="translate(682.16 296.96) rotate(-180) scale(1 -1)"><tspan x="0" y="0">i</tspan></text>
            </g>
            <text class="cls-2" transform="translate(152 55.25) rotate(.32)"><tspan x="0" y="0">j</tspan></text>
            <text class="cls-2" transform="translate(648.27 55.25) rotate(179.68) scale(1 -1)"><tspan x="0" y="0">j</tspan></text>
          </g>
        </g>
      </g>
    </g>
  </g>
</svg>