<?xml version="1.0" encoding="UTF-8"?>
<svg id="Layer_2" data-name="Layer 2" xmlns="http://www.w3.org/2000/svg" viewBox="0 0 933.9 178.03">
  <defs>
    <style>
      .cls-1 {
        fill: #ffbe08;
      }
    </style>
  </defs>
  <g id="Layer_1" data-name="Layer 1">
    <g id="LARANJA">
      <g>
        <path class="cls-1" d="M167.87,143.63l43.36-99.94c-.34-4-2.55-7.47-6.65-10.41-2.07-1.49-4.1-2.58-6.07-3.25h42.78c-1.59.39-3.25,1.2-4.99,2.46-3.52,2.5-5.64,5.97-6.36,10.41l-61.5,135.14v-1.3l-.58,1.3-36.71-79.28-36.71,79.28-.58-1.3v1.3L32.38,42.89c-.72-4.43-2.84-7.9-6.36-10.41-1.73-1.25-3.4-2.07-4.99-2.46h42.85c-2.02.68-4.05,1.76-6.07,3.25-4.14,2.94-6.36,6.41-6.65,10.41l43.29,99.94,27.82-64.1,8.89-22.33,8.96,22.33,27.75,64.1Z"/>
        <path class="cls-1" d="M324.85,32.63l5.56-2.6-5.56,27.03c-.19-2.7-.99-5.37-2.38-8.02-2.75-5.4-7.11-8.09-13.08-8.09h-28.11v55.36h30.93c5.97-.14,10.89-1.78,14.74-4.91l-3.61,28.98c-.1-2.65-.94-5.28-2.53-7.88-3.18-5.2-8.48-7.8-15.9-7.8h-23.63v54.92c1.59,2.07,3.85,4.14,6.79,6.21,5.93,4.14,12.31,6.21,19.15,6.21s13.32-3.25,19.29-9.76c2.99-3.28,5.28-6.53,6.87-9.76l-2.96,25.51h-78.91c2.07-.72,4.17-1.85,6.29-3.4,4.24-3.18,6.36-6.91,6.36-11.2,0-6.84-.07-47.09-.22-120.76-2.17-4.43-7.18-7.78-15.03-10.04h75.95Z"/>
        <path class="cls-1" d="M345.9,141.25c0,9.49,3.47,16.72,10.41,21.68,5.25,3.76,11.27,5.64,18.07,5.64,6.12,0,12.24-2.05,18.36-6.14,7.08-4.72,10.62-10.45,10.62-17.2s-2.84-13.56-8.53-20.74c-3.66-4.58-10.58-11.39-20.74-20.45-9.93-8.82-16.69-15.63-20.31-20.45-5.44-7.13-8.17-14.38-8.17-21.75,0-8.58,3.44-15.9,10.33-21.97,7.47-6.55,17.13-9.83,28.98-9.83,10.31,0,18.09.94,23.34,2.82,2.65.92,4.24,1.85,4.77,2.82l-4.55,25.58c0-5.06-1.76-10.04-5.28-14.96-4.48-6.12-10.41-9.18-17.78-9.18-8.09,0-14.28,1.64-18.57,4.91-4.1,3.23-6.14,7.76-6.14,13.59,0,9.64,8.43,21.39,25.29,35.27,10.31,8.43,17.17,14.65,20.6,18.64,7.32,8.48,10.98,17.05,10.98,25.73,0,13.73-6.24,24.71-18.72,32.95-9.97,6.55-20.43,9.83-31.36,9.83-6.99,0-13.06-1.76-18.21-5.28-2.6-1.78-4.48-3.56-5.64-5.35-.82-7.03-.07-15.75,2.24-26.16Z"/>
        <path class="cls-1" d="M933.9,0l-5.56,27.03c-.19-2.7-.99-5.37-2.38-8.02-2.75-5.4-7.11-8.09-13.08-8.09h-451.36v1.73c-.05,27.99-.1,83.55-.14,106.63v45.09c.29,4,2.48,7.47,6.58,10.41,2.02,1.49,4.02,2.58,6,3.25h-42.42c1.98-.67,4-1.76,6.07-3.25,4.05-2.94,6.24-6.41,6.58-10.41v-45.09c-.05-23.08-.1-78.64-.14-106.63l-.07-1.73H21.03c-5.97,0-10.36,2.7-13.15,8.09-1.35,2.65-2.12,5.32-2.31,8.02L0,0l5.56,2.6h922.77l5.56-2.6Z"/>
        <path class="cls-1" d="M564.9,32.63l5.56-2.6-5.56,27.03c-.19-2.7-.99-5.37-2.38-8.02-2.75-5.4-7.11-8.09-13.08-8.09h-28.11v55.36h30.93c5.97-.14,10.89-1.78,14.74-4.91l-3.61,28.98c-.1-2.65-.94-5.28-2.53-7.88-3.18-5.2-8.48-7.8-15.9-7.8h-23.63v54.92c1.59,2.07,3.85,4.14,6.79,6.21,5.93,4.14,12.31,6.21,19.15,6.21s13.32-3.25,19.29-9.76c2.99-3.28,5.28-6.53,6.87-9.76l-2.96,25.51h-78.91c2.07-.72,4.17-1.85,6.29-3.4,4.24-3.18,6.36-6.91,6.36-11.2,0-6.84-.07-47.09-.22-120.76-2.17-4.43-7.18-7.78-15.03-10.04h75.95Z"/>
        <path class="cls-1" d="M668.91,130.48c8.33,12.29,15.66,21.51,21.97,27.68,11.27,10.98,21.58,15.51,30.93,13.59-.43,1.01-1.71,2.05-3.83,3.11-4.14,2.12-10.36,3.18-18.64,3.18s-18.36-7.11-30.21-21.32c-5.93-7.13-11.01-14.26-15.25-21.39-1.88-3.42-5.04-6.82-9.47-10.19-8.87-6.84-19.63-10.26-32.3-10.26v49.57c.29,4,2.46,7.47,6.5,10.41,2.02,1.45,4.02,2.51,6,3.18h-42.13c1.97-.67,3.97-1.73,6-3.18,4.05-2.94,6.21-6.41,6.5-10.41V44.56c-.29-3.95-2.46-7.4-6.5-10.33-2.02-1.49-4.02-2.58-6-3.25h29.63c10.36-1.69,20.72-1.47,31.07.65,20.76,4.24,31.15,15.9,31.15,34.98.34,3.47-.36,7.88-2.1,13.22-3.37,10.65-10.17,20.52-20.38,29.63,4.96,4.58,10.65,11.59,17.05,21.03ZM636.82,104.54c3.37-.14,6.74-1.45,10.12-3.9,6.7-4.91,10.04-13.22,10.04-24.93,0-12.77-3.45-22.79-10.33-30.06-5.64-5.93-11.95-8.89-18.93-8.89s-10.91.19-11.78.58c-2.17.92-3.25,4-3.25,9.25,0,7.66-.19,26.98-.58,57.96h24.71Z"/>
        <path class="cls-1" d="M843.61,141.25c0,9.49,3.47,16.72,10.41,21.68,5.25,3.76,11.27,5.64,18.07,5.64,6.12,0,12.24-2.05,18.36-6.14,7.08-4.72,10.62-10.45,10.62-17.2s-2.84-13.56-8.53-20.74c-3.66-4.58-10.58-11.39-20.74-20.45-9.92-8.82-16.69-15.63-20.31-20.45-5.44-7.13-8.17-14.38-8.17-21.75,0-8.58,3.44-15.9,10.33-21.97,7.47-6.55,17.13-9.83,28.98-9.83,10.31,0,18.09.94,23.34,2.82,2.65.92,4.24,1.85,4.77,2.82l-4.55,25.58c0-5.06-1.76-10.04-5.28-14.96-4.48-6.12-10.41-9.18-17.78-9.18-8.09,0-14.29,1.64-18.57,4.91-4.1,3.23-6.14,7.76-6.14,13.59,0,9.64,8.43,21.39,25.29,35.27,10.31,8.43,17.17,14.65,20.6,18.64,7.32,8.48,10.98,17.05,10.98,25.73,0,13.73-6.24,24.71-18.72,32.95-9.97,6.55-20.43,9.83-31.36,9.83-6.99,0-13.06-1.76-18.21-5.28-2.6-1.78-4.48-3.56-5.64-5.35-.82-7.03-.07-15.75,2.24-26.16Z"/>
        <g>
          <path class="cls-1" d="M841.33,103.35c0,40.59-32.9,73.5-73.49,73.5s-73.49-32.91-73.49-73.5,32.9-73.5,73.49-73.5,73.49,32.91,73.49,73.5ZM758.64,32.19l-56.3,100.36,1.94,1.09,56.3-100.36-1.94-1.09ZM777.97,32.26l-2.04,1.13,55.35,100.34,2.04-1.13-55.35-100.34ZM769.83,77.76l-4.21-44.07c-1.81,2.16-3.75,4.67-3.22,7.66l5,36.35,2.42.06ZM752.01,34.68c-13.37,1.96-25.6,9.72-34.64,19.56,3.72,2.79,3.18,4.9,3.46,8.92.05.74-.38,1.43.74,1.23l4.14-5.31c-1.29-4.36-1.02-6.54,1.07-10.53,1.14-.25.79.15,1.11.63,1.6,2.47.53,4.68.62,7.29.71-1.29,3.14-2.19,3.75-3.18.56-.92.34-1.92.74-2.72.96-1.91,4.41-4.92,6.42-5.47,1.05-.29.73.51.68,1.18-.16,2.11-2.01,6.48-4.04,7.35-.93.4-1.97.25-2.82.65-.96.45-2.95,2.69-3.98,3.45,2.37.5,4.89-.2,6.93,1.48-3.01,3.74-5.92,3.87-10.05,1.78-.36.09-4.59,5.21-4.79,5.66-.12.26-.09.84.24.73,2.75-1.93,6.59-1.96,9.65-.74-3.17,3.68-7.25,4.28-11.88,3.44l-3.46,5.48c-.1,1.79,1.62-.21,2.46-.51,2-.72,5.16-1.51,6.92,0-3.16,3.2-6.21,5.27-10.85,3.73l-1.51,5.43c2.14-1.71,5.47-2.36,8.17-1.98.51.07,1.06-.13.73.73-1.22,3.12-6.37,6.22-9.67,4.33l-1.7,7.8c1.81-1.67,4.19-3.14,6.69-3.46,1.69-.22.01,2.59-.35,3.13-1.76,2.62-3.87,2.51-6.63,3.27l.29,10.43,41.58-73.77ZM813.89,63.39c-.62-4.52.57-6.85,3.43-10.08-8.29-9.03-19.49-15.74-31.5-18.54-.73-.17-1.33-.4-1.13.64l39.59,71.55.5-9.9c-3.98.22-6.76-2-7.91-5.7,2.77-.75,5.4,1.13,7.42,2.73l-.99-7.43c-4.89,1.66-7.79-.87-10.39-4.7,3.03-.63,6.25-.4,8.9,1.24l-1.49-5.45c-2.2,2.64-10-1.46-10.88-3.22s4.73-1.05,5.35-.89c.75.19,4.54,2.63,4.04.91l-2.96-4.98c-2.21-.41-3.54.49-5.97.04-2.19-.41-4.46-1.81-5.91-3.49-.22-1.18.54-.59,1.21-.74,3.9-.9,4.19.18,7.48.97.65.16.98-.1.71-.71-.64-1.44-4.14-3.78-4.46-5.69-.34-.24-4.1,3.08-7.89.71-.65-.41-3.07-2.58-1.38-2.81l5.32-1.12c-1.02-.69-2.54-3.06-3.47-3.46-1.4-.61-2.87.12-4.17-1.27-.87-.94-3.5-8.22-2.5-7.89,1.98,1.06,5.59,3.23,6.71,5.17.56.98.34,1.9.73,2.73.71,1.48,3.42,2.41,3.7,3.97h.98c-1.26-2.57-1.98-6.69.98-8.41.51,1.77,1.84,3.29,2.01,5.2.19,2.16-1.29,4.54-.94,5.83.1.37,4.4,5.35,4.88,4.81ZM775.77,41.12c-1.32-.13-.79,0-.97.74-1.13,4.69-.67,11.38-1,16.34-.44,6.5-1.15,13.04-1.45,19.54l2.22.4c.78-.14.98-2.82,1.13-3.67,1.57-8.72,1.96-17.84,3.41-26.6l-3.34-6.74ZM764.39,78.25c.1-.86-.06-1.66-.23-2.5-.96-4.77-5.2-20.02-7.17-24.02-.35-.72-.46-1.41-1.51-1.21l-1.79,3.46,7.67,23.98,3.03.29ZM835.17,125.78c6.97-25.02,2.44-53.92-17.32-71.79.28,4.61.21,7.95-2.91,11.55l3.39,4.79c.01-3.1,1.26-5.65,3.97-7.19,1.66-.58.91,5.08.64,6.1-.47,1.81-1.29,2.69-2.9,3.56l1.76,5.94c1.99-2.35,3.32-5.38,6.92-5.44-.57,3.54-.64,9.11-4.94,9.93l1.48,7.4c1.97-2.88,3.31-4.26,6.92-4.95.12,3.54-1.83,9.58-6.43,7.92l.49,7.42,5.43-2.77,3.97.3c-1.43,3.99-5.03,6.55-9.34,6.01l-.56,5.38c2.67-1.45,5.92-2.21,8.91-1.48l-2.53,3.65-3.91,2.03c1.96,3.89,3.79,8.59,6.93,11.64ZM716.37,70.82l3.47-4.71c-3.32-3.44-2.94-6.66-3.22-11.13-18.72,18.31-22.93,46.12-16.09,70.8,1.24-.64,7.43-10.95,6.92-11.39-3.71.44-5.5-2.08-7.41-4.71,1.43-2.47,8.92,1.1,9.4.74l-.49-4.95c-4.4.47-7.98-1.84-9.89-5.69.04-1.02,3.89-.83,4.66-.71,2.07.33,2.92,1.95,4.73,2.44l.5-6.93c-4.08,1.41-6.28-3.93-6.45-7.17-.09-1.65,2.38-.35,3.01-.03l3.93,3.74,1.44-6.61c-3.9-2.29-4.13-6.15-4.89-10.22l4.21,1.48,2.71,3.96,2.02-6.1c-3.63-1.89-3.95-6.12-3-9.74,3.09.71,4.68,4.02,4.46,6.93ZM780.17,78.68l5.76-17.71-1.99-4.01-6.61,20.65c-.09,1.36,1.94,1.31,2.83,1.07ZM758.94,79.24l-9.16-17.32c-.96.87-2.9,3.76-2.49,4.92,2.38,1.97,6.32,11.51,8.19,12.67,1.09.68,2.36-.35,3.46-.27ZM789.39,66.87l-6.47,11.37c-.8,1.66.91,2.28,2.28,2.26.96-2.16,6.11-8.95,5.84-10.8-.08-.51-1.32-2.83-1.65-2.83ZM744.34,71.33c-1.47,1.4-2.16,2.09-.97,3.92.43.66,6.24,6.55,6.67,6.73.66.28,1.91-.14,2.46-.52.8-.55-.56-1.9-1-2.46-2.02-2.54-5.02-5.15-7.17-7.68ZM793.38,74.8c-.62.14-4.81,5.29-5.25,6.16-.24.47-.83.41.03.98l2.48,1.02c2.19-2.77,7.59-5.11,2.75-8.16ZM747.06,84.19c.29-.39-6.4-6.1-7.4-5.42-.23,1.44-1.67,2.36-.52,3.68,1.73,1.98,5.51,3.52,7.92,1.74ZM767.26,81.86c-7.81.53-15.9,4.39-22.85,7.84-5.34,2.66-24.95,12.15-11.89,18.19,2.58,1.19,4.88,1.01,7.13,1.78,1.68.57,4.37,2.62,6.43,3.48,12.04,5,22.95,7.21,35.85,4.18,11-2.58,18.71-8.2,26.99-15.55-.5-1.05-1.14-1.69-1.99-2.45-9.72-8.57-26.43-18.37-39.67-17.47ZM798.04,81.72c-.75-.53-3.66,1.76-4.31,2.33-.35.3-.94-.02-.62,1.12,2.57,2.01,6.47-.28,4.94-3.45ZM739.63,87.17l-3.63-.95c-.78.25-3.43,5.2-1.07,3.93l4.7-2.98ZM801.01,87.17l-2.45,1.23c2.66,2.64,4.39,3.08,2.45-1.23ZM815.87,114.89c-1.31-4.2-3.88-6.85-8.65-5.93-1.01.19-4.46,2.76-2.92,3.45l11.57,2.48ZM717.85,118.35l18.31-4.7-6.72-2.72c-2.29.58-5.54.51-7.67,1.21-1.71.56-2.9,4.68-3.92,6.21ZM820.69,123.45l-20.04-8.97c-1.47-.35-2.68.61-3.58,1.65l25.99,13.61c.68.16.93-.03.73-.73-.16-.54-2.78-5.3-3.1-5.56ZM745.57,117.37l-4.09-1.41c-8.36,4.43-18.52,7.03-26.78,11.38-3.84,2.02-4.45,4.04-6.26,7.85l37.13-17.81ZM826.76,142.61l-.75-1.47-32.57-23.15-2.31,1.11,29.71,23.25,5.92.26ZM752.01,120.33c.37-.55-2.71-1.9-3.43-1.24l-32.71,22.78c.54,1.21,5.06.9,6.29.36l29.84-21.9ZM786.17,120.34c-.49.53,2.04,3.57,2.5,4.18,4.46,5.99,9.72,11.49,14.3,17.38,1.37,1.18,3.78.83,5.49.47l-.26-1.25-19.3-20.84-2.73.05ZM739.99,141.97c4.74-6.44,10.57-12.14,15.48-18.43.35-.45,1.85-2,1.01-2.47l-2.14-.15-19.9,20.21-.25,1.48,5.8-.64ZM784.13,121.38c-.49-.36-4.34.56-4.38,1.18l10.98,19.95,4.85.1-11.45-21.23ZM761.42,122.32c-1.33-.08-2.39-.99-3.19.51-3.12,5.96-7.09,11.55-10.25,17.48-.3.56-1.23,1.62-.43,2.07l3.24-.26,10.64-19.81ZM775.28,122.81l5.56,18.46c.6,1.52,2.11,1.55,3.54,1.28l.62-.96-7.02-19.21-2.69.43ZM765.87,122.81l-2.92.06-6.41,18.13c-.48,2.06,3,2.26,3.8.79l5.53-18.98ZM769.83,122.81l-1.67.06-.72.77-2.53,17.79.79,1.11,3.14.08.99-19.81ZM772.1,122.84c-.39.12-.83.62-.69,1.08l2.34,18.48c.77.41,2.71.45,2.95-.57l-2.87-18.81c-.42-.3-1.24-.33-1.73-.18ZM713.15,146.58l-.5.99,1.25,1.23,106.21.29c1.38.17,2.15-.54,2.94-1.52l-.5-.99h-109.41ZM735.18,153.51h-16.83c25.34,27.36,73.67,27.32,99.01,0h-16.34c1.98,2.02,5.57,2.77,6.43,5.94-4.56.73-12.36.41-11.88-5.94-3-.71-4.64,1.58-7.42,1.98.83,1.19,2.22,1.24,3.48,2.21.87.66,6.16,5.88,5.43,6.69-4.67,1.21-12.59-.63-12.87-6.43l-12.37,2.98c-1.12,1.08,14.92,6.23,7.25,9.37-1.91-1.92-7.84-7.35-10.46-7.35-4.22,0-8.56,11.33-11.14,4.43,2.29-1.67,5.08-3.09,7.29-4.82.41-.32.9,0,.62-1.13l-11.16-3.82c-2.74,4.64-7.39,6.65-12.59,7.28l3.02-5.64,5.89-3.26-7.41-2.47c-.83,6.02-7.12,6.06-11.9,6.92.14-2.83,2.4-4.84,3.96-6.93ZM788.15,153.51h-35.64c.12.76,1.68,1.09,2.35,1.36,4.68,1.91,9.55,3.46,14.23,5.35,5.36-1.95,11.02-3.18,16.35-5.22.76-.29,2.48-.68,2.71-1.5Z"/>
          <path class="cls-1" d="M806.96,101.03c.16.7-.1.81-.48,1.24-1.04,1.18-4.75,3.51-6.29,4.6-15.23,10.72-30.09,13.58-47.94,7.04-4.03-1.48-8-3.99-11.99-5.34-4.27-1.44-12.51-.89-10.25-7.52.85-2.48,9.89-7.26,12.59-8.7,11.78-6.29,22.11-10.71,35.75-7.51,11.45,2.69,18.69,10.88,28.62,16.19ZM755.04,89.2c-.02,6.13-.46,11.41,4.88,15.55,10.08,7.82,23.92-2.09,19.84-14.4-1.54-4.64-4.72-3.47-8.94-4.18.61,1.02,2.03,1.27,2.96,2.23,3.49,3.6,3.33,9.6-.48,12.88-5.76,4.97-14.2.62-13.82-6.65,2.23-.02,4.14-2.04,4.17-4.25.02-1.24-1.08-2.43-.27-3.72l-8.36,2.53ZM802.5,102.5c.16-.69-.1-.81-.48-1.24-1.27-1.45-7.13-5.5-9.06-6.78-3.04-2.03-6.49-4.34-10.01-5.34-.41,1.92.77,3.76.75,5.68-.04,4.51-2.54,9.09-5.95,11.91-11.92,9.87-29.15-1.46-25.25-16.09-.53-.4-11.33,4.82-11.92,5.65-.79,1.11-.72,6.23-1.49,7.97l.83,1.68c15.84,8.12,31.88,12.74,49.05,5.08,5.03-2.25,8.76-5.92,13.53-8.51ZM733.37,100.7c-2.36,2.44-1,4.26,2.13,4.27,2.6,0,4.11-5.18,3.14-7.41-.24-.19-4.86,2.72-5.27,3.14Z"/>
        </g>
      </g>
    </g>
  </g>
</svg>