<?xml version="1.0" encoding="UTF-8"?>
<svg id="Layer_2" data-name="Layer 2" xmlns="http://www.w3.org/2000/svg" viewBox="0 0 1345.59 441.13">
  <defs>
    <style>
      .cls-1 {
        fill: none;
      }

      .cls-2 {
        fill-rule: evenodd;
      }
    </style>
  </defs>
  <g id="Layer_1" data-name="Layer 1">
    <g>
      <g>
        <g>
          <path d="M119.9,414.52c-32.48,0-60.53-18.25-75.01-48.81-4.79-9.98-7.22-21.19-7.22-33.32,0-31.51,14.58-56.21,40-67.76l1.17-.53v-16.52c0-3.39-2.07-6.54-5.15-8.14,3.06-1.34,5.15-4.42,5.15-7.92V87c0-4.83-2.7-9.27-7.17-11.98,16.21.29,26.56,3.5,33.87,17.44l1.36,2.59,1.92-2.21c2.17-2.5,5.45-3.94,8.99-3.94,3.21,0,6.21,1.18,8.36,3.27-.81-.14-1.62-.21-2.44-.21-8.11,0-14.71,6.83-14.71,15.21v151.31l1.84.14c21.73,1.71,38.41,14.55,43.52,33.52,2.83,10.25.62,21.14-6.05,29.9-6.13,8.05-15.33,13.23-25.17,14.32,5.71-6.39,8.79-14.51,8.79-23.33,0-15.64-7.35-27.71-20.16-33.13l-2.78-1.18v58.6c0,18.24,17.68,28.8,35,29.91v2.56c-2.84.41-5.69.62-8.52.62-22.71,0-41.1-13.2-46.85-33.63l-.55-1.94-1.94.57c-2.71.79-5.47,1.19-8.22,1.19-6.16,0-12.04-2.06-16.66-5.83,1.07.26,2.17.39,3.27.39,7.87,0,14.28-6.47,14.28-14.42v-34.11l-3.07,1.96c-9.26,5.9-24.81,20.37-24.81,51.1,0,44.23,35.74,68.09,69.38,68.09,24.02,0,48.26-13.54,48.26-43.8V96.06c.15-9.58-3.77-18.71-11.32-26.38-13.04-13.24-36.16-21.47-60.34-21.47-32.48,0-69.39,15.2-75.61,57.85-2.16,14.57,1.44,29.35,9.4,38.58,4.85,5.62,10.76,8.6,17.08,8.6,6.68,0,13.37-3.4,19.53-9.87.92,7.71-.63,14.27-4.55,19.15-4.29,5.33-11.37,8.39-19.43,8.4-10.78,0-21.57-5.33-28.84-14.27-6.95-8.53-14.08-24.26-8.6-50.7,7.91-38.79,45.58-68.03,87.63-68.03.86,0,1.72.01,2.58.04,33.11,0,78.05,8.17,105.4,46.86-1.73,2.24-2.76,5.01-2.76,7.55v139.17c0,3.51,2.1,6.58,5.15,7.92-3.08,1.6-5.15,4.74-5.15,8.14v105c0,2.85.99,5.47,2.93,7.79-14.98,32.94-46.95,54.16-81.81,54.16Z"/>
          <path d="M93.57,39.9c.83,0,1.68.01,2.51.04h.06s.06,0,.06,0c22.02,0,41.74,3.52,58.59,10.46,18.26,7.51,33.15,19.09,44.3,34.42-1.46,2.33-2.31,5.02-2.31,7.53v139.17c0,3.15,1.38,6.02,3.59,7.98-2.23,2.07-3.59,4.95-3.59,8.08v104.99c0,2.88.9,5.62,2.61,8.05-7.43,15.85-18.8,28.99-32.99,38.12-14.02,9.02-30.1,13.78-46.5,13.78-14.94,0-29.38-4.04-41.76-11.68-13.5-8.33-24.08-20.44-31.46-36-4.66-9.7-7.02-20.62-7.02-32.44,0-30.69,14.15-54.73,38.83-65.94l2.34-1.07v-17.81c0-3.13-1.35-6.01-3.59-8.08,2.21-1.96,3.59-4.83,3.59-7.98V87c0-3.58-1.28-6.96-3.54-9.73,12.44.93,20.44,4.64,26.47,16.12l2.73,5.19,3.84-4.43c1.79-2.07,4.52-3.25,7.48-3.25.15,0,.29,0,.44,0-2.35.84-4.5,2.22-6.32,4.08-3.17,3.25-4.91,7.57-4.91,12.19v153.16l3.69.29c9.98.78,19.07,4.01,26.3,9.32,7.6,5.59,12.94,13.45,15.45,22.75,2.66,9.63.57,19.89-5.72,28.15-4.76,6.25-11.47,10.67-18.86,12.62,3.93-5.99,6.08-13.06,6.08-20.42,0-16.48-7.79-29.23-21.38-34.98l-5.56-2.35v61.62c0,17.15,14.46,27.93,30.37,31.06-.63.02-1.26.03-1.88.03-10.42,0-20.11-2.87-28.02-8.3-8.26-5.68-14.11-13.93-16.91-23.87l-1.09-3.89-3.88,1.13c-2.53.74-5.1,1.11-7.66,1.11-3.34,0-6.59-.65-9.57-1.9,7.14-1.74,12.46-8.24,12.46-15.96v-37.76l-6.15,3.91c-9.61,6.12-25.73,21.11-25.73,52.78,0,45.52,36.78,70.09,71.38,70.09,25.02,0,50.26-14.16,50.26-45.8V96.09c.15-10.14-3.97-19.76-11.9-27.81-13.4-13.61-37.07-22.06-61.76-22.06-33.31,0-71.19,15.65-77.58,59.55-2.24,15.13,1.54,30.53,9.86,40.18,5.17,5.99,11.77,9.29,18.6,9.29,4.51,0,10.86-1.45,17.78-7.43-.04,5.34-1.51,9.91-4.37,13.46-3.91,4.86-10.42,7.65-17.87,7.65-10.19,0-20.39-5.06-27.29-13.54-6.67-8.2-13.51-23.36-8.19-49.04,3.82-18.73,14.85-35.77,31.05-47.99,15.77-11.89,35.17-18.44,54.62-18.44h0M93.56,35.9c-41.08,0-81.13,28.1-89.59,69.62-9.49,45.79,17.24,67.38,39.4,67.38,16.3,0,30.13-11.69,25.24-34.03-7,8.69-14.21,12.36-20.79,12.36-15.85,0-27.99-21.31-24.5-44.88,5.81-39.86,40.07-56.14,73.63-56.14,35.43,0,70.08,18.14,69.66,45.84v263.93c0,28.12-21.77,41.8-46.26,41.8-31.45,0-67.38-22.57-67.38-66.09,0-24.29,10.29-40.76,23.88-49.41v30.47c0,7.09-5.81,12.42-12.28,12.42-1.79,0-3.64-.41-5.42-1.3v3.71c5.22,4.64,11.88,7.04,18.81,7.04,2.9,0,5.86-.42,8.78-1.27,6.41,22.78,26.65,35.09,48.78,35.09,3.47,0,7-.3,10.52-.92v-6.18c-17.71-.41-35-10.71-35-28v-55.59c10.71,4.53,18.94,14.82,18.94,31.29,0,10.29-4.53,19.35-11.94,25.53.42.01.84.02,1.26.02,24.51,0,43.51-23.48,37.03-46.96-5.76-21.41-24.29-33.35-45.29-35V107.18c0-7.44,5.83-13.21,12.71-13.21,1.49,0,3.04.27,4.58.86v-3.29c-2.68-3.09-6.59-4.63-10.5-4.63s-7.82,1.54-10.5,4.63c-8.65-16.47-21.82-18.53-38.29-18.53v2.88c4.53,2.06,7.82,6.18,7.82,11.12v144.52c0,3.29-2.47,6.18-5.76,6.59v2.47c3.29.82,5.76,3.71,5.76,7v15.23c-22.65,10.29-41.17,33.35-41.17,69.58,0,12.35,2.47,23.88,7.41,34.17,16.05,33.86,46.24,49.95,76.82,49.95,33.75,0,67.97-19.6,84.17-56.54-2.06-2.06-3.29-4.53-3.29-7.41v-104.99c0-3.29,2.47-6.18,5.76-7v-2.47c-3.29-.41-5.76-3.29-5.76-6.59V92.35c0-2.47,1.24-5.35,3.29-7.41-25.12-36.65-66.29-49-107.88-49-.88-.03-1.76-.04-2.64-.04h0Z"/>
        </g>
        <g>
          <path d="M296.31,338.22c-23.88-.39-46.25-11.03-61.6-29.24,1.77-2.24,2.66-4.74,2.66-7.46v-54.35c0-3.49-2.08-6.55-5.11-7.9,3.2-1.55,5.11-4.53,5.11-8.16v-64.64c0-2.72-.89-5.22-2.66-7.46,15.35-18.22,37.72-28.85,61.63-29.25h2.85c23.63.39,45.84,11.03,61.19,29.25-1.77,2.24-2.66,4.74-2.66,7.46v64.64c0,3.63,1.91,6.6,5.11,8.16-3.03,1.35-5.11,4.41-5.11,7.9v54.35c0,2.72.89,5.22,2.66,7.46-15.34,18.21-37.55,28.84-61.2,29.24h-2.87ZM267.54,302.75c0,16.54,13.46,30,30,30,12.85,0,24.2-8.16,28.25-20.31,2.28-7.75-.29-16.37-6.37-21.51-3.7-3.17-8.48-4.92-13.45-4.92-1.34,0-2.68.13-3.99.38,2.01-2.36,4.77-4.16,8.01-5.18,1.52-.32,3.04-.48,4.5-.48,3.72,0,7.13,1.05,9.87,3.04l3.18,2.31v-120.86c0-16.54-13.46-30-30-30-12.85,0-24.2,8.16-28.25,20.31-2.32,7.89.44,16.53,6.84,21.56,3.64,3.12,8.33,4.88,13.12,4.88,1.28,0,2.57-.13,3.84-.37-2.02,2.37-4.81,4.18-8.08,5.19-1.47.42-3.01.64-4.54.64-3.48,0-6.85-1.12-9.75-3.23l-3.18-2.31v120.86Z"/>
          <path d="M299.15,131.76c22.56.39,43.77,10.32,58.69,27.37-1.41,2.25-2.14,4.73-2.14,7.33v64.64c0,3.23,1.3,6.09,3.53,8.13-2.18,1.96-3.53,4.81-3.53,7.93v54.35c0,2.6.73,5.08,2.14,7.33-14.92,17.05-36.13,26.99-58.7,27.37h-2.82c-22.81-.38-44.17-10.32-59.11-27.37,1.41-2.25,2.14-4.73,2.14-7.33v-54.35c0-3.13-1.36-5.97-3.53-7.93,2.24-2.03,3.53-4.89,3.53-8.13v-64.64c0-2.6-.73-5.08-2.13-7.33,14.94-17.06,36.3-26.99,59.11-27.37h2.82M274.83,178.62c3.47,2.95,7.72,4.77,12.16,5.24-.8.4-1.64.74-2.52,1.01-1.32.37-2.66.56-3.99.56-3.05,0-6.02-.98-8.58-2.84l-6.35-4.62v124.79c0,17.64,14.35,32,32,32,13.71,0,25.82-8.71,30.15-21.68l.02-.07.02-.07c2.48-8.43-.34-17.89-7-23.52-3.53-3.02-7.94-4.87-12.6-5.31.75-.37,1.54-.69,2.36-.96,1.35-.28,2.7-.42,4-.42,3.29,0,6.3.92,8.7,2.66l6.35,4.62v-124.79c0-17.64-14.35-32-32-32-13.71,0-25.82,8.71-30.15,21.68l-.02.07-.02.07c-2.52,8.57.48,18.03,7.48,23.57M299.19,127.76h-2.88c-25.12.41-48.59,11.94-64.23,31.29,2.06,2.06,3.29,4.53,3.29,7.41v64.64c0,3.71-2.47,6.18-5.76,7v2.47c3.29.41,5.76,3.29,5.76,6.59v54.35c0,2.88-1.23,5.35-3.29,7.41,15.65,19.35,39.12,30.88,64.23,31.29h2.88c24.7-.41,48.17-11.94,63.82-31.29-2.06-2.06-3.29-4.53-3.29-7.41v-54.35c0-3.29,2.47-6.18,5.76-6.59v-2.47c-3.29-.82-5.76-3.29-5.76-7v-64.64c0-2.88,1.24-5.35,3.29-7.41-15.65-19.35-39.12-30.88-63.82-31.29h0ZM289.25,179.97c-4.23,0-8.43-1.48-11.89-4.45-5.76-4.53-8.23-12.35-6.18-19.35,3.71-11.12,14-18.94,26.35-18.94,15.23,0,28,12.35,28,28v116.94c-3.21-2.33-7.04-3.43-11.05-3.43-1.65,0-3.33.19-5.01.54-5.35,1.65-9.88,5.35-11.94,10.71,2.64-1.32,5.53-1.98,8.43-1.98,4.35,0,8.7,1.48,12.15,4.45,5.35,4.53,7.82,12.35,5.76,19.35-3.71,11.12-14,18.94-26.35,18.94-15.23,0-28-12.35-28-28v-116.94c3.18,2.31,6.96,3.61,10.93,3.61,1.69,0,3.41-.23,5.13-.73,5.35-1.65,9.88-5.35,11.94-10.71-2.64,1.32-5.47,1.98-8.29,1.98h0Z"/>
        </g>
        <g>
          <path d="M500.55,334.93c4.95-2.35,9.07-7.35,7.68-12.9l-22.12-103.81-22.13,103.88c-1.37,5.48,2.75,10.48,7.7,12.83h-51.42c4.95-2.35,9.07-7.35,7.68-12.9l-16.04-75.69c-.89-3.58-4.8-6.05-8.21-7.16,1.18-.59,2.25-1.38,3.09-2.3,1.71-1.86,2.35-4.09,1.8-6.26l-19.32-89.19c-.43-3.51-2.92-6.51-6.9-8.38h47.31c-4.95,2.35-9.07,7.35-7.68,12.9l31.15,147.88,24.71-115.02-8.31-37.38c-.44-3.51-2.92-6.5-6.9-8.37h47.21v.04c-4.9,2.37-8.96,7.34-7.59,12.85l31.16,147.91,31.62-147.98c1.37-5.48-2.75-10.48-7.7-12.83h32.51c-3.62,1.75-6.11,4.71-6.9,8.27l-19.37,89.44v.09c-.48,3.78,2.01,6.84,5.08,8.38-3.28,1.21-7.46,3.93-8.34,7.44l-16.07,75.42c-1.37,5.48,2.75,10.48,7.7,12.83h-51.42Z"/>
          <path d="M583.98,135.06c-1.45,1.69-2.47,3.67-2.96,5.86l-19.35,89.35-.04.17-.02.18c-.38,3.08.85,6.08,3.13,8.29-2.84,1.65-5.54,4.12-6.33,7.29l-.02.07v.07s-16.06,75.29-16.06,75.29c-1.05,4.31.62,8.3,3.49,11.31h-39.12c2.87-3,4.54-7,3.49-11.31l-20.16-94.64-3.91-18.36-3.91,18.36-20.16,94.64c-1.05,4.31.62,8.3,3.49,11.31h-39.12c2.87-3,4.54-7,3.49-11.3l-16.04-75.7-.02-.07-.02-.07c-.77-3.08-3.27-5.44-6.09-7.01.18-.17.36-.35.52-.54,2.13-2.32,2.96-5.24,2.29-8.03l-19.3-89.12c-.29-2.21-1.28-4.27-2.84-6.04h35.12c-2.87,3-4.53,7-3.49,11.3l29.22,138.69,3.88,18.4,3.95-18.38,22.65-105.41.18-.85-.19-.85-8.19-36.87c-.3-2.21-1.28-4.26-2.83-6.02h35.12c-2.87,3-4.53,7-3.49,11.3l29.22,138.69,3.89,18.45,3.94-18.44,29.63-138.7c1.05-4.31-.62-8.3-3.49-11.31h20.46M591.94,131.06h-36.65v3.29c4.53,1.65,9.06,6.18,7.82,11.12l-29.65,138.76-29.23-138.76c-1.23-4.94,3.29-9.47,7.82-11.12l-.41-3.29h-51.06v3.29c3.29,1.24,6.59,3.71,7,7.41l8.23,37.06-22.65,105.41-29.23-138.76c-1.24-4.94,3.29-9.47,7.82-11.12v-3.29h-51.47v3.29c3.29,1.24,6.59,3.71,7,7.41l19.35,89.35c.82,3.29-2.47,6.18-5.76,7v2.47c3.29.41,8.23,2.88,9.06,6.18l16.06,75.76c1.24,4.94-3.29,9.47-7.82,11.12v3.29h55.59v-3.29c-4.53-1.65-9.06-6.18-7.82-11.12l20.18-94.7,20.18,94.7c1.23,4.94-3.29,9.47-7.82,11.12v3.29h55.58v-3.29c-4.53-1.65-9.06-6.18-7.82-11.12l16.06-75.35c.82-3.29,6.18-6.18,9.06-6.59v-2.47c-3.29-.82-6.18-3.71-5.76-7l19.35-89.35c.82-3.71,3.71-6.18,7-7.41v-3.29h0Z"/>
        </g>
        <g>
          <path d="M695.89,334.93l-51.19-147.82v135.41c0,5.48,2.97,10.19,7.68,12.41h-35.34c4.64-2.3,7.77-7.21,7.77-12.41v-75.35c0-3.49-2.08-6.55-5.11-7.9,3.2-1.55,5.11-4.53,5.11-8.16v-85.64c0-5.2-3.13-10.11-7.77-12.41h38.53l51.59,147.73v-135.32c0-5.2-3.13-10.11-7.77-12.41h35.02c-4.64,2.3-7.77,7.21-7.77,12.41v85.64c0,3.63,1.91,6.6,5.11,8.16-3.03,1.35-5.11,4.41-5.11,7.9v75.35c0,5.2,3.13,10.11,7.77,12.41h-38.52Z"/>
          <path d="M728.63,135.06c-2.49,2.85-3.99,6.56-3.99,10.41v85.64c0,3.23,1.3,6.09,3.53,8.13-2.18,1.96-3.53,4.81-3.53,7.93v75.35c0,3.85,1.5,7.56,3.99,10.41h-31.32l-46.83-135.24-7.78-22.47v147.3c0,4,1.38,7.64,3.78,10.41h-23.66c2.49-2.85,3.99-6.56,3.99-10.41v-75.35c0-3.13-1.36-5.97-3.53-7.93,2.24-2.03,3.53-4.89,3.53-8.13v-85.64c0-3.85-1.5-7.56-3.99-10.41h31.33l47.24,135.25,7.78,22.27v-147.11c0-3.85-1.5-7.56-3.99-10.41h23.45M736.46,131.06h-39.12v3.29c4.53,1.65,7.82,6.18,7.82,11.12v123.52l-48.17-137.93h-42v3.29c4.53,1.65,7.82,6.18,7.82,11.12v85.64c0,3.71-2.47,6.18-5.76,7v2.47c3.29.41,5.76,3.29,5.76,6.59v75.35c0,4.94-3.29,9.47-7.82,11.12v3.29h39.53v-3.29c-4.94-1.65-7.82-6.18-7.82-11.12v-123.52l47.76,137.93h42v-3.29c-4.53-1.65-7.82-6.18-7.82-11.12v-75.35c0-3.29,2.47-6.18,5.76-6.59v-2.47c-3.29-.82-5.76-3.29-5.76-7v-85.64c0-4.94,3.29-9.47,7.82-11.12v-3.29h0Z"/>
        </g>
        <g>
          <path d="M827.39,411.73c-22.41,0-40.61-13.25-46.38-33.76l-.57-2.02-1.99.66c-2.71.9-5.51,1.36-8.33,1.36-5.9,0-11.55-1.98-16.05-5.61,1.05.26,2.13.39,3.21.39,7.67,0,13.92-6.47,13.92-14.42v-110.76c0-3.63-1.91-6.6-5.11-8.16,3.03-1.35,5.11-4.41,5.11-7.9V48.38l-1-.58c-13.41-7.79-25.54-14.6-38.22-19.1-15.68-6.14-28.04-9-38.83-9-5.08,0-9.89.66-14.29,1.97-14.73,4.62-24.42,15.06-25.33,27.26-.85,11.4,6.18,21.58,19.26,27.93l.16.08.17.05c6.78,1.89,13.26,2.85,19.27,2.85,16.44,0,30.18-7.13,40.89-21.21l2.92,2.51c-8.44,15.65-23.53,23.58-44.89,23.58-3.16,0-6.51-.17-9.95-.52-17.35-3.57-29.71-12.74-33.93-25.17-4-11.78-.29-25.07,10.43-37.42,9.94-11.69,25.42-17.61,46.03-17.61,6.5,0,13.53.61,20.9,1.8,16.69,2.95,40.18,14.23,65.04,26.16,35.08,16.84,71.35,34.25,98.79,34.25,16.94,0,28.83-6.95,35.38-20.67l2.28,1.58c-7.45,33.6-47.69,36.24-59.97,36.24-4.46,0-8.94-.28-13.31-.82-16.02-1.74-32.79-7.56-52.83-18.31l-5.86-3.14,3.15,5.85c2.65,4.91,3.88,9.98,3.88,15.93v149.19l.02.14c.39,2.75,2.13,5.83,5.13,7.21-2.84,1.43-4.71,4.1-5.13,7.5l-.02.12v131.47c0,18.71,17.29,29.22,35,30.33v2.17c-2.99.48-6,.72-8.99.72Z"/>
          <path d="M703.93,6c6.38,0,13.3.6,20.55,1.77,16.45,2.92,39.8,14.13,64.52,26,35.28,16.94,71.76,34.45,99.65,34.45,15.56,0,27.07-5.61,34.33-16.71-3.29,9.27-9.8,16.55-19.42,21.7-12.61,6.74-27.2,8.16-37.22,8.16-4.38,0-8.77-.27-13.07-.81h-.03s-.03,0-.03,0c-15.72-1.71-32.27-7.45-52.07-18.08l-11.72-6.29,6.31,11.71c2.52,4.67,3.64,9.3,3.64,14.98v149.33l.04.28c.39,2.77,1.71,5.2,3.59,6.93-1.96,1.81-3.24,4.3-3.6,7.24l-.03.25v131.59c0,17.11,13.39,27.78,28.95,31.21-.32,0-.63,0-.94,0-21.49,0-38.93-12.68-44.45-32.3l-1.14-4.04-3.98,1.33c-2.51.83-5.1,1.26-7.7,1.26-3.1,0-6.13-.59-8.93-1.72,6.89-1.8,12.01-8.26,12.01-15.92v-110.76c0-3.23-1.3-6.09-3.53-8.13,2.18-1.96,3.53-4.81,3.53-7.93V47.23l-1.99-1.16c-13.48-7.83-25.68-14.68-38.49-19.23-15.95-6.23-28.52-9.14-39.55-9.14-5.27,0-10.27.69-14.86,2.06h-.03s-.03.02-.03.02c-15.5,4.86-25.73,15.97-26.7,29.01-.9,12.08,6.72,23.25,20.38,29.87l.32.16.35.1c6.95,1.94,13.62,2.92,19.81,2.92,16.43,0,30.27-6.83,41.17-20.33l.09.08c-3.82,6.54-8.94,11.6-15.24,15.08-7.3,4.02-16.41,6.06-27.1,6.06-3.07,0-6.31-.17-9.64-.5-16.58-3.44-28.36-12.12-32.33-23.83-3.76-11.07-.19-23.67,10.07-35.5,9.53-11.21,24.49-16.89,44.49-16.89M703.93,2c-20.53,0-36.97,5.86-47.54,18.3-24.29,28-11.53,58.47,24.7,65.88,3.56.36,6.98.54,10.25.54,22.86,0,38.75-8.78,47.39-26.07l-5.76-4.94c-10.61,14.86-24.13,22.13-40.55,22.13-5.87,0-12.12-.93-18.74-2.77-28-13.59-21.82-42.82,5.76-51.47,4.38-1.3,8.96-1.89,13.72-1.89,11.79,0,24.66,3.61,38.16,8.89,12.76,4.53,25.12,11.53,37.88,18.94v181.99c0,3.29-2.47,6.18-5.76,6.59v2.47c3.29.82,5.76,3.29,5.76,7v110.76c0,7.09-5.55,12.42-11.92,12.42-1.76,0-3.59-.41-5.38-1.3v3.71c4.89,4.31,11.38,6.82,18.21,6.82,2.96,0,5.98-.47,8.96-1.46,6.36,22.61,26.36,35.22,48.3,35.22,3.63,0,7.31-.34,10.99-1.05v-5.76c-17.71-.41-35-10.71-35-28.41v-131.35c.41-3.29,2.47-5.76,5.76-6.59v-2.47c-3.29-.41-5.35-3.29-5.76-6.18V82.88c0-6.18-1.24-11.53-4.12-16.88,16.88,9.06,34.59,16.47,53.53,18.53,4.35.54,8.92.84,13.56.84,26.98,0,56.58-9.98,62.2-39.13l-5.35-3.71c-6.51,15.71-18.85,21.69-34.54,21.69-46.82,0-123.42-53.3-163.51-60.39-7.47-1.21-14.56-1.83-21.22-1.83h0Z"/>
        </g>
        <g>
          <path d="M903.43,338.22c-23.88-.39-46.25-11.03-61.6-29.24,1.77-2.24,2.66-4.74,2.66-7.46v-54.35c0-3.49-2.08-6.55-5.11-7.9,3.2-1.55,5.11-4.53,5.11-8.16v-64.64c0-2.72-.89-5.22-2.66-7.46,15.35-18.22,37.72-28.85,61.63-29.25h2.85c23.63.39,45.84,11.03,61.19,29.25-1.77,2.24-2.66,4.74-2.66,7.46v64.64c0,3.63,1.91,6.6,5.11,8.16-3.03,1.35-5.11,4.41-5.11,7.9v54.35c0,2.72.89,5.22,2.66,7.46-15.34,18.21-37.55,28.84-61.2,29.24h-2.87ZM874.67,302.75c0,16.54,13.46,30,30,30,12.85,0,24.2-8.16,28.25-20.31,2.28-7.75-.29-16.37-6.37-21.51-3.7-3.17-8.48-4.92-13.45-4.92-1.34,0-2.68.13-3.99.38,2.01-2.36,4.76-4.16,8.01-5.18,1.52-.32,3.04-.48,4.5-.48,3.72,0,7.13,1.05,9.87,3.04l3.18,2.31v-120.86c0-16.54-13.46-30-30-30-12.85,0-24.2,8.16-28.25,20.31-2.32,7.89.43,16.53,6.84,21.56,3.64,3.12,8.33,4.88,13.12,4.88,1.28,0,2.57-.13,3.84-.37-2.02,2.37-4.81,4.18-8.08,5.19-1.47.42-3.01.64-4.54.64-3.48,0-6.85-1.12-9.75-3.23l-3.18-2.31v120.86Z"/>
          <path d="M906.29,131.76c22.56.39,43.77,10.32,58.69,27.37-1.4,2.25-2.13,4.73-2.13,7.33v64.64c0,3.23,1.3,6.09,3.53,8.13-2.18,1.96-3.53,4.81-3.53,7.93v54.35c0,2.6.73,5.08,2.13,7.33-14.92,17.05-36.13,26.99-58.69,27.37h-2.82c-22.81-.38-44.17-10.32-59.11-27.37,1.41-2.25,2.14-4.73,2.14-7.33v-54.35c0-3.13-1.36-5.97-3.53-7.93,2.24-2.03,3.53-4.89,3.53-8.13v-64.64c0-2.6-.73-5.08-2.14-7.33,14.94-17.06,36.3-26.99,59.11-27.37h2.82M881.96,178.62c3.47,2.95,7.72,4.77,12.16,5.24-.79.4-1.64.74-2.52,1.01-1.32.37-2.66.56-3.99.56-3.05,0-6.02-.98-8.58-2.84l-6.35-4.62v124.79c0,17.64,14.35,32,32,32,13.71,0,25.83-8.71,30.15-21.68l.02-.07.02-.07c2.48-8.43-.34-17.89-7-23.52-3.53-3.02-7.94-4.87-12.6-5.31.75-.37,1.54-.69,2.36-.96,1.35-.28,2.7-.42,4-.42,3.29,0,6.3.92,8.7,2.66l6.35,4.62v-124.79c0-17.64-14.35-32-32-32-13.71,0-25.82,8.71-30.15,21.67l-.02.07-.02.07c-2.52,8.57.48,18.03,7.47,23.57M906.32,127.76h-2.88c-25.12.41-48.58,11.94-64.23,31.29,2.06,2.06,3.29,4.53,3.29,7.41v64.64c0,3.71-2.47,6.18-5.76,7v2.47c3.29.41,5.76,3.29,5.76,6.59v54.35c0,2.88-1.24,5.35-3.29,7.41,15.65,19.35,39.12,30.88,64.23,31.29h2.88c24.7-.41,48.17-11.94,63.82-31.29-2.06-2.06-3.29-4.53-3.29-7.41v-54.35c0-3.29,2.47-6.18,5.76-6.59v-2.47c-3.29-.82-5.76-3.29-5.76-7v-64.64c0-2.88,1.23-5.35,3.29-7.41-15.65-19.35-39.12-30.88-63.82-31.29h0ZM896.38,179.97c-4.23,0-8.43-1.48-11.89-4.45-5.76-4.53-8.23-12.35-6.18-19.35,3.71-11.12,14-18.94,26.35-18.94,15.23,0,28,12.35,28,28v116.94c-3.21-2.33-7.04-3.43-11.05-3.43-1.65,0-3.33.19-5.01.54-5.35,1.65-9.88,5.35-11.94,10.71,2.64-1.32,5.53-1.98,8.43-1.98,4.35,0,8.7,1.48,12.15,4.45,5.35,4.53,7.82,12.35,5.76,19.35-3.71,11.12-14,18.94-26.35,18.94-15.23,0-28-12.35-28-28v-116.94c3.18,2.31,6.96,3.61,10.93,3.61,1.69,0,3.41-.23,5.13-.73,5.35-1.65,9.88-5.35,11.94-10.71-2.64,1.32-5.47,1.98-8.29,1.98h0Z"/>
        </g>
        <g>
          <path d="M1107.68,334.93c4.95-2.35,9.07-7.35,7.68-12.9l-22.12-103.81-22.13,103.88c-1.37,5.48,2.75,10.48,7.7,12.83h-51.42c4.95-2.35,9.07-7.35,7.68-12.9l-16.04-75.69c-.89-3.58-4.79-6.05-8.21-7.16,1.18-.59,2.25-1.38,3.09-2.3,1.71-1.86,2.35-4.09,1.8-6.26l-19.32-89.19c-.43-3.51-2.92-6.51-6.9-8.38h47.31c-4.95,2.35-9.07,7.35-7.68,12.9l31.16,147.88,24.71-115.02-8.31-37.38c-.44-3.51-2.92-6.5-6.9-8.37h47.21v.04c-4.9,2.37-8.96,7.34-7.59,12.85l31.16,147.91,31.62-147.98c1.37-5.48-2.75-10.48-7.7-12.83h32.51c-3.62,1.75-6.11,4.71-6.9,8.27l-19.37,89.45v.09c-.48,3.78,2.01,6.84,5.08,8.38-3.28,1.21-7.46,3.93-8.34,7.44l-16.07,75.42c-1.37,5.48,2.75,10.48,7.7,12.83h-51.42Z"/>
          <path d="M1191.11,135.06c-1.45,1.69-2.47,3.67-2.95,5.86l-19.35,89.35-.04.17-.02.18c-.38,3.08.85,6.08,3.13,8.29-2.84,1.65-5.54,4.12-6.33,7.29l-.02.07v.07s-16.06,75.29-16.06,75.29c-1.05,4.31.62,8.3,3.49,11.31h-39.12c2.87-3,4.54-7,3.49-11.31l-20.16-94.64-3.91-18.36-3.91,18.36-20.16,94.64c-1.05,4.31.62,8.3,3.49,11.31h-39.12c2.87-3,4.54-7,3.49-11.3l-16.04-75.7-.02-.07-.02-.07c-.77-3.08-3.27-5.44-6.09-7.01.18-.17.36-.35.52-.53,2.13-2.32,2.96-5.24,2.29-8.03l-19.3-89.12c-.29-2.21-1.28-4.27-2.84-6.04h35.12c-2.87,3-4.54,6.99-3.49,11.3l29.22,138.69,3.88,18.4,3.95-18.38,22.65-105.41.18-.85-.19-.85-8.19-36.87c-.3-2.21-1.28-4.26-2.83-6.02h35.12c-2.87,3-4.54,7-3.49,11.3l29.22,138.69,3.89,18.45,3.94-18.44,29.63-138.7c1.05-4.31-.62-8.3-3.49-11.31h20.46M1199.07,131.06h-36.64v3.29c4.53,1.65,9.06,6.18,7.82,11.12l-29.65,138.76-29.23-138.76c-1.24-4.94,3.29-9.47,7.82-11.12l-.41-3.29h-51.06v3.29c3.29,1.24,6.59,3.71,7,7.41l8.24,37.06-22.65,105.41-29.23-138.76c-1.24-4.94,3.29-9.47,7.82-11.12v-3.29h-51.47v3.29c3.29,1.24,6.59,3.71,7,7.41l19.35,89.35c.82,3.29-2.47,6.18-5.76,7v2.47c3.29.41,8.24,2.88,9.06,6.18l16.06,75.76c1.24,4.94-3.29,9.47-7.82,11.12v3.29h55.58v-3.29c-4.53-1.65-9.06-6.18-7.82-11.12l20.18-94.7,20.17,94.7c1.24,4.94-3.29,9.47-7.82,11.12v3.29h55.59v-3.29c-4.53-1.65-9.06-6.18-7.82-11.12l16.06-75.35c.82-3.29,6.18-6.18,9.06-6.59v-2.47c-3.29-.82-6.18-3.71-5.76-7l19.35-89.35c.82-3.71,3.71-6.18,7-7.41v-3.29h0Z"/>
        </g>
        <g>
          <path d="M1303.01,334.93l-51.19-147.82v135.41c0,5.48,2.97,10.19,7.68,12.41h-35.34c4.64-2.3,7.77-7.21,7.77-12.41v-75.35c0-3.49-2.08-6.55-5.11-7.9,3.2-1.55,5.11-4.53,5.11-8.16v-85.64c0-5.2-3.13-10.11-7.77-12.41h38.53l51.59,147.73v-135.32c0-5.2-3.13-10.11-7.77-12.41h35.02c-4.64,2.3-7.77,7.21-7.77,12.41v85.64c0,3.63,1.91,6.6,5.11,8.16-3.03,1.35-5.11,4.41-5.11,7.9v75.35c0,5.2,3.13,10.11,7.77,12.41h-38.52Z"/>
          <path d="M1335.76,135.06c-2.49,2.85-3.99,6.56-3.99,10.41v85.64c0,3.23,1.3,6.09,3.53,8.13-2.18,1.96-3.53,4.81-3.53,7.93v75.35c0,3.85,1.5,7.56,3.99,10.41h-31.32l-46.83-135.24-7.78-22.47v147.3c0,4,1.38,7.64,3.79,10.41h-23.66c2.49-2.85,3.99-6.56,3.99-10.41v-75.35c0-3.13-1.36-5.97-3.53-7.93,2.24-2.03,3.53-4.89,3.53-8.13v-85.64c0-3.85-1.5-7.56-3.99-10.41h31.33l47.24,135.25,7.78,22.27v-147.11c0-3.85-1.5-7.56-3.99-10.41h23.45M1343.59,131.06h-39.12v3.29c4.53,1.65,7.82,6.18,7.82,11.12v123.52l-48.17-137.93h-42v3.29c4.53,1.65,7.82,6.18,7.82,11.12v85.64c0,3.71-2.47,6.18-5.76,7v2.47c3.29.41,5.76,3.29,5.76,6.59v75.35c0,4.94-3.29,9.47-7.82,11.12v3.29h39.53v-3.29c-4.94-1.65-7.82-6.18-7.82-11.12v-123.52l47.76,137.93h42v-3.29c-4.53-1.65-7.82-6.18-7.82-11.12v-75.35c0-3.29,2.47-6.18,5.76-6.59v-2.47c-3.29-.82-5.76-3.29-5.76-7v-85.64c0-4.94,3.29-9.47,7.82-11.12v-3.29h0Z"/>
        </g>
      </g>
      <g>
        <rect class="cls-1" x="832.32" y="367.5" width="507.88" height="24.55"/>
        <path class="cls-2" d="M1236.85,369.62c.28-.08.77-.11,1.34-.11-.14.14-.88.24-1.34.11Z"/>
        <path class="cls-2" d="M1257.09,386.27c.41-.07,1.68-.21,1.54.07-.72.03-1.03-.05-1.54-.07Z"/>
        <path class="cls-2" d="M1259.27,386.65c.11-.13,1.09-.02,1.55-.05-.02.17-1.26.13-1.55.05Z"/>
        <path class="cls-2" d="M1265.48,384.11c.32-.09,1.16-.16,1.55-.05-.11.13-1.09.02-1.55.05Z"/>
        <path class="cls-2" d="M1268.32,386.77c.53-.16,1.44-.21,2.67-.16-.43.18-1.71.13-2.67.16Z"/>
        <path class="cls-2" d="M1276.02,373.68c1.35-.01,4.12-.25,5.08.04-1.65-.18-3.54.11-5.08-.04Z"/>
        <path class="cls-2" d="M1279.66,379.41c1.69-.35,4.71.04,6.87-.19.31.29-3.17.04-3.79.27-.51-.02-.9-.08-1.31-.13-.6.02-1.15.22-1.77.05Z"/>
        <path class="cls-2" d="M1300.36,380.28c-.05-.16.11-.26.69-.23.17.05.22.14.19.24-.3,0-.59,0-.88,0Z"/>
        <path class="cls-2" d="M1308.96,378.24c1.36-.27,4.48-.29,6.2-.07.23-.04.24-.14.68-.12,1.03-.03,3.33.08,1.1.07-2.76.19-4.94,0-7.97.12Z"/>
        <path class="cls-2" d="M1309.99,381.25c.33-.09.87-.12,1.56-.11-.17.15-1.3.17-1.56.11Z"/>
        <path class="cls-2" d="M1312.09,373.4c.25-.13,1.39-.01,1.99-.05-.44.08-1.5.17-1.99.05Z"/>
        <path class="cls-2" d="M1311.64,380.24c.54-.15,1.77-.11,2.45-.22.6.24-1.61.19-2.45.22Z"/>
        <path class="cls-2" d="M1312.66,381.09c.44-.18,1.72-.13,2.67-.16-.57.15-1.81.1-2.67.16Z"/>
        <path class="cls-2" d="M1314.22,371.98c.08-.2.95-.18,1.57-.23-.13.19-1.02.16-1.57.23Z"/>
        <path class="cls-2" d="M1315.19,373.43c.72-.17,3.2-.12,4.43-.09-1.55.14-2.73.13-4.43.09Z"/>
        <path class="cls-2" d="M1315.77,380.93c1.14-.27,2.8-.06,3.76-.03-1.05.16-2.57-.13-3.76.03Z"/>
        <path class="cls-2" d="M1318.7,378.13c.43-.1,1.17-.12,1.78-.17.12.26-1.04.15-1.78.17Z"/>
        <path class="cls-2" d="M1320.63,378.75c.53-.15.99-.08,1.77-.05-.18.13-1.24.01-1.77.05Z"/>
        <path class="cls-2" d="M1322.55,379.48c.24-.16,1.9-.19,1.54.13-.47.02-.41-.09-.42-.18-.53-.03-.49.11-1.11.05Z"/>
        <path class="cls-2" d="M1327.2,374.9c-1.09.25-2.97-.13,0,0h0Z"/>
        <path class="cls-2" d="M1329.63,372.69c.91-.12,1.81-.09,2.88-.04-.67.08-2.43.09-2.88.04Z"/>
        <path class="cls-2" d="M1330.33,372.34c-.32-.19,1.46-.17,1.1,0-.37,0-.73,0-1.1,0Z"/>
        <path class="cls-2" d="M1332.41,369.17c.31-.12,1.01-.15,1.56-.11-.16.15-1.31.18-1.56.11Z"/>
        <path class="cls-2" d="M1338.57,369.46c1.84-.28,2.49,0,0,0h0Z"/>
        <path class="cls-2" d="M1288.83,369.33c.37-.08.88-.12,1.13-.23.68.24,1.94.03,2.86.14-1.13.26-2.35-.07-3.99.09Z"/>
        <path class="cls-2" d="M1313.53,374.5c.54-.02.47.11,1.1.07.05.1-.22.1-.24.18,1.1.05,1.72-.04,2.66-.04-.12.05-.24.1-.24.18,1.25-.32,2.7.19,5.3.04-2.49.34-8.01.09-10.18.17.32-.24,2.23-.02,2.46-.28.05-.19-1.23-.03-.85-.31Z"/>
        <path class="cls-2" d="M1315.85,380.15c.25,0,.13-.06,0-.06.07-.14.97-.03,1.11,0-.27.17-3.19.07-1.11.05Z"/>
        <path class="cls-2" d="M1332.27,379.49c0,.08-.01.16-.02.24,1.41-.01,3.68-.07,4.63.15-1.67.17-5.23-.25-6.43.13-.28-.06-.81-.06-1.09-.13-3.9.38-8.13-.03-12.18.21,1.82-.64,5.94.24,8-.42.34.03,0,.06-.23.06,1.79,0,5.01.14,7.32-.25Z"/>
        <path class="cls-2" d="M1330.82,371.86c.35-.11.97-.13,1.35-.23.2.01-.9.39-1.35.23Z"/>
        <path class="cls-2" d="M888.38,367.5c-.99,0-2.08.22-3.12.22-2.43,0-4.61-.23-7.07-.11-2.16.1-4.21.42-6.46.49-1.67.05-2.22.14-3.34.22-3.27.22-5.95.11-7.37.73-2.29.41-5.17.65-7.18,1.03-.31.06-.99.03-1.11.05-5.11.95-8.23,2.51-14.24,3.2-.52.35-.87.86-1.9,1.31-.45.2-1.49.33-1.82.53-1.22.75-.15,1.7-2.43,2.26-.13.19.29.24.4.36-.07,1.49.84,2.75.28,3.9,1.57.68,1.23,1.47,2.44,2.12.76.4,2.24.78,3.2,1.16,1.1.44,2.27.78,3.2,1.22,0,.45,1.4.54,1.68.91,1.72.28,3.02.66,4.77.93.17.15.58.24.62.42,3.67.77,7.38,1.72,12.4,2.01.45.03,1.42.08,1.98.07,3.73-.01,9.47.14,11.42.74.67.05.66-.1,1.33-.05.42.29,2.4.83,4.12.81.59,0,1.62-.39,2.92-.46,1.93-.1,3.76.42,5.49.34.8-.04,1.64-.38,2.48-.46,2.17-.21,6.57-.06,8.4.06,1.44.1,1.97.38,3.06.32.98-.05,1.73-.37,1.63-.83,2.82-1.02,10.09-.23,14.44-.67,3.19.36,6.25-.24,9.3-.17.61.01,1.35.14,1.98.13,1.05,0,2.44-.2,3.79-.27,2.3-.12,4.32-.1,6.21-.25,2.93.6,5.07-.09,7.53-.06.92,0,1.82.2,2.86.2.87,0,1.71-.17,2.67-.16.95.01,1.94.2,2.86.2.68,0,1.22-.12,1.78-.11.73.02,1.2.16,1.98.13.82-.03,1.64-.26,2.46-.28,3.01-.1,6.26.15,9.09-.29,5.13.38,9.61-.22,15.68.17,1.51-.12,2.63-.21,4.21-.09.35-.04.35-.19.9-.17,3.16.18,6.48-.33,9.74-.11.11-.07.25-.13.46-.18,4.49.29,10.18.33,13.71-.02,2.74.3,5.92-.04,9.29-.05,1.59,0,3.15.16,4.63.09,2.91-.13,6.72.03,9.51-.05.83-.02,1.64-.19,2.46-.22,1.48-.05,3.06.12,4.64.03,6.07-.34,13.05-.1,18.36-.11,1.64,0,3.05-.19,4.89-.26,3.05-.12,6.21.21,9.27.13.77-.02,1.52-.14,2.23-.16,1.83-.06,3.58.05,5.52.04,4.73-.03,9.49-.36,13.94-.08,5.69-.39,13.98-.27,20.59-.33,1.49-.33,2.9-.05,4.43-.09,4.73-.13,10.77-.5,15.72-.25,20.82-.58,42.51-.33,63.11-.98,1.61.25,4.12.09,5.53-.08.31.16,1.25.15,1.97.19,2.58-.4,5.83-.08,9.08-.17.83-.39,2.79-.1,4.02-.39.53.21-.71.18.19.3,2.11-.71,9.24-.38,12.44-.57-.22,0-.27-.11.01-.12.77.18,1.14-.18,2.01-.16,5.81-.08,9.96-.78,14.92-1.03.62.1,2.28.4,2.86.14-.9-.04-2.03-.02-1.96-.31,1.49.1,3.45-.04,4.45-.27,1.84-.03,2.78.13,4.43-.09.4,0-.39-.3.47-.3,2.58.15,3.88-.1,6.18.05.67-.28,3.39-.36,4.22-.21.75-.12-.83-.23-.19-.3,2.09-.09,4.04-.2,5.97-.02.48-.13.8-.31,1.58-.35.53-.02-.15.27.64.18.74-.16-.58-.28-.4-.48,1.05-.1.84-.24,1.37-.41,1.46.16,2.46-.17,3.79-.27,1.37-.1,2.89,0,4.21-.09,1.13-.08,1.62-.28,2.9-.28,1.04,0,1.92.22,3.08.2.61-.05-.41-.22.46-.24,4.06-.07,8.11-.14,11.11-.52-4.6.47-7.95-.03-11.98.39-.61-.27-1.81.17-2.41-.2-.27.16.66.26-.24.24-.3-.02-.41-.09-.88-.07.57-.32-.28-.32-.61-.54-3.43.02-6.11.17-9.08.17-.55.08.38.18-.24.24-1.13.05-1.99,0-3.33.1-.4-.24-1.3-.36-.82-.67,4,.02,9.44-.45,14.2-.5,1.44-.01,2.94.23,3.77-.15-2.14.12-3.86-.3-5.72-.34-2.4-.05-4.97.33-7.32.25-.66-.02-.94-.13-1.53-.13-.47,0-1.26.18-1.79.17-.57-.01-.6-.14-1.09-.13-1,.03-1.78.23-2.89.22-1.86-.01-3.69-.24-5.73-.16-.37-.11-.21-.37.26-.42,2.42.02,2.83,0,5.31-.02-.28-.03-.45-.08-.42-.18.76.02,1.03.09,1.55-.05-1.84.01-1.67-.45-1.04-.67,4.57.08,10.17-.13,13.93.04.41-.13.68-.3,1.36-.35,4.23-.15,8.97,0,13.5-.14-5.17-.36-10.58-.15-16.58,0-.23-.06-.05-.22-.64-.18-2.56.17-5.55.12-7.54.19-.89-.26-1.75-.52-2.58-.8-6.3.22-10.91-.84-16.94-.84.03-.18-.44-.24-.63-.36.49-.15.81-.34,1.37-.47.99-.01,2-.11,2.87.02,5.08-.54,12.3-.15,18.62-.46.77-.3.17-.53-.37-.78-3.05-.17-5.83.25-9.05-.13-1.15-.71.06-1.2,2.55-1.24,4.13-.07,11.25,0,13.92.1,12.11-.42,24.13-.25,36.54-.57-6.9-.14-13.28.24-19.46-.02.02.13-.2.19-.68.17-6.08-.07-12.82-.06-18.15.17-2.23-.43-6.55.08-8.81-.36.56-.68,2.42-.99,4.76-1.17-2.39.04-4.61-.19-6.61-.23-1.64-.03-4.48.17-5.31.02-.2-.04.18-.18-.2-.18.67.01-1.2.04-1.34.05-.9.08-.73.13-1.78.11-1.36-.03-1.33-.04-2.19-.2-4.69-.11-9.25.1-13.93-.04-.49-.01-1.47,0-1.55-.01-.44-.04-.06-.16-.65-.18-.33-.01-.18.13-.67.11-1.82-.06-3.91-.12-5.74-.1-4.57.04-9.97-.13-13.7-.1-.83-.04.26-.25-.86-.25-6.42-.15-13.21-.26-20.09-.33-.52-.02-.1-.28-.86-.25-.95-.04-.72.25-1.57.23-.53-.08-1.01-.17-1.3-.31-7.87-.22-15.99.02-24.11.12-7.57.09-15.16.09-22.35.14-5.67.04-11.08.29-16.15.12-6.8.2-12.67.19-19.04.22-4.59.02-9.64-.12-13.49.02-.66.02-1.45.16-2.23.16-1.17,0-2.35-.2-3.51-.21-3.16,0-6.39.24-9.53.23-3.53-.01-6.92-.05-10.39-.08-1.95-.01-3.83.18-5.77.2-1.28.01-2.63-.15-3.96-.15-3.74.01-7.54.27-11.08.22-4.72-.07-9.58-.33-14.37-.04-5.29-.16-11.73-.17-16.8-.06-4.11-.48-8.39.01-13.04-.1-.49-.01-.82-.1-1.31-.13-7.04-.36-14.85.28-20.56-.03-2.14.31-3.97-.03-5.96-.1-2.15-.08-4.14.13-6.21.13-.68,0-1.29-.12-1.97-.13-2.09-.05-4.13.15-6.43.19-3.44.06-7.1-.46-11.04-.14-3.04-.22-7.55-.48-11.04-.2-5.89-.45-11.84.07-17.89-.13-2.04-.07-3.9-.39-5.96-.1-2.13-.32-4.68-.13-7.28-.17-2.57-.04-5.24-.23-7.93-.3-3.83-.1-8.58.15-11.45-.5-1.31-1.37-3.84.64-6.89.37-1.62-.28-1.4-.66-2.1-1.15-1.44-.21-2.8-.08-4.2.03-1.64-.13-2.83-.75-5.01-.76ZM1275.4,382.2c-.04.07.04.11.21.12-.47.29-1.51-.13-.21-.12ZM1275.86,382.08c1.84-.02,4.42-.29,5.76-.08.36,0-.32-.34.26-.42.78.15,1.71.26,3.07.26.09.5-2.6.2-2.72.64-1.04-.04-1.54-.06-2.01.17-2.12-.17-2.59.14-4.2-.03.42-.28-.29-.22-.16-.54Z"/>
      </g>
      <g>
        <g>
          <path d="M364.51,439.88c-2.5,0-4.67-.16-6.62-.48-2.09-.35-3.6-.5-5.02-.5-1.55,0-2.34.35-3.27.86-.99-.88-2.32-1.46-4.1-1.78.73-.89,1.17-2.26,1.17-4.85v-10.48c0-2.13-.45-3.87-1.25-4.96,4.22-.83,5.75-2.24,5.83-7.37h.24c.11,5,1.91,6.51,5.57,7.36-.57.94-.81,2.49-.81,4.97v6.56c0,4.55,1.95,6.77,5.97,6.77,4.79,0,7.03-1.84,7.03-5.79,0-9.59-6.57-18.26-8.58-20.69-1.93-2.39-3.62-3.7-5.49-4.21.48-.84.45-1.83.06-2.48-.72-.81-1.92-1.4-3.33-1.69.7-1.54.28-3.58-1.26-6.06-1.99-3.31-5.75-11.46-5.75-18.64,0-4.92,4.35-10.66,16.61-10.66,1.55,0,2.79.16,4.1.33.44.06.87.11,1.32.16.36.04.73.1,1.11.15,1.23.17,2.5.35,3.89.35,1.3,0,2.72-.46,3.57-.85.98,1.06,2.73,1.61,4.29,1.72-.63,1.22-.95,3.16-.95,4.8v8.13c0,2.8.46,4.55,1.56,5.72-3.97,1.08-5.18,2.96-5.26,7.88h-.42c-.07-5.48-1.29-6.84-5.37-7.91.91-1.11,1.32-2.53,1.32-5.89v-5.29c0-3.39-2.76-5.49-7.2-5.49s-5.44,2.62-5.44,4.81c0,3.98,2.36,11.03,3.58,13.54,2.5,5.15,7.02,11.14,11.39,12.89-.38.39-.64.85-.71,1.31-.08.5.04.95.34,1.29.52.68,1.76,1.06,2.98,1.19-.93,1.76-.41,4.23,1.56,7.36,2.09,3.48,5.04,10.66,5.04,15.7,0,6.09-5.46,12.23-17.67,12.23Z"/>
          <path d="M361.51,366.26c1.52,0,2.74.16,4.04.32.44.06.88.11,1.31.16.37.05.74.1,1.11.15,1.25.17,2.54.35,3.96.35,1.29,0,2.59-.4,3.46-.76.94.85,2.33,1.35,3.67,1.55-.49,1.3-.72,2.97-.72,4.38v8.13c0,2.5.36,4.22,1.2,5.45-2.69.88-4.04,2.26-4.59,4.88-.55-2.91-1.96-4.08-4.79-4.93.75-1.25,1.01-2.85,1.01-5.6v-5.29c0-3.7-2.95-5.99-7.7-5.99-5.17,0-5.94,3.33-5.94,5.31,0,4.06,2.4,11.22,3.63,13.76,2.42,5,6.74,10.78,11.05,12.86-.21.33-.35.68-.41,1.04-.11.64.05,1.23.44,1.68.55.69,1.6,1.09,2.66,1.29-.62,1.86,0,4.27,1.84,7.2,2.07,3.44,4.97,10.51,4.97,15.45,0,5.41-4.5,11.73-17.17,11.73-2.48,0-4.61-.16-6.54-.48-2.12-.35-3.65-.5-5.1-.5s-2.35.32-3.21.76c-.88-.7-1.97-1.2-3.35-1.52.59-1.07.85-2.5.85-4.51v-10.48c0-1.86-.34-3.45-.95-4.62,2.95-.68,4.55-1.79,5.19-4.48.72,2.62,2.37,3.77,4.93,4.46-.41,1.02-.58,2.49-.58,4.64v6.56c0,4.82,2.18,7.27,6.47,7.27,5.07,0,7.53-2.06,7.53-6.29,0-9.75-6.66-18.55-8.69-21-1.82-2.25-3.44-3.58-5.2-4.21.29-.87.19-1.79-.19-2.43l-.05-.08-.06-.07c-.64-.71-1.71-1.29-2.98-1.63.46-1.61-.04-3.61-1.49-5.95-1.96-3.27-5.68-11.32-5.68-18.39,0-4.91,4.23-10.16,16.11-10.16M375.62,365.26c-.71.39-2.29.98-3.71.98-1.76,0-3.35-.29-4.94-.49-1.76-.2-3.35-.49-5.47-.49-11.82,0-17.11,5.29-17.11,11.16,0,7.25,3.7,15.38,5.82,18.9,1.94,3.13,1.76,5,.88,6.17,1.59.2,3,.78,3.71,1.57.35.59.35,1.76-.53,2.55,1.94.29,3.71,1.37,6,4.21,4.06,4.9,8.47,12.63,8.47,20.37,0,3.33-1.59,5.29-6.53,5.29-3,0-5.47-1.18-5.47-6.27v-6.56c0-3.04.35-4.6,1.24-5.29-4.06-.78-6-1.96-6-7.54h-1.23c0,5.78-1.59,6.76-6.35,7.54,1.06.78,1.76,2.64,1.76,5.29v10.48c0,3.23-.71,4.41-1.76,5.19,2.47.29,4.06.98,5.12,2.06,1.06-.59,1.76-.98,3.35-.98s3.18.2,4.94.49c1.76.29,3.88.49,6.7.49,12.88,0,18.17-6.56,18.17-12.73,0-5.39-3.18-12.73-5.12-15.96-2.65-4.21-2.12-6.37-1.06-7.54-1.41,0-3-.39-3.53-1.08-.53-.59-.18-1.76,1.06-2.45-4.59-1.18-9.53-7.83-12-12.93-1.23-2.55-3.53-9.5-3.53-13.32,0-2.64,1.41-4.31,4.94-4.31,3.88,0,6.7,1.67,6.7,4.99v5.29c0,3.82-.53,5-1.76,6.17,4.59,1.08,5.82,2.06,5.82,8.13h1.41c0-5.78,1.41-7.15,5.82-8.13-1.41-.98-2.12-2.55-2.12-5.97v-8.13c0-2.06.53-4.5,1.41-5.29-.12,0-.25,0-.37,0-1.85,0-3.92-.68-4.74-1.87h0Z"/>
        </g>
        <g>
          <path d="M404.2,439.88c-1.43,0-2.71-.19-3.94-.36-.56-.08-1.1-.16-1.65-.22-1.66-.18-3.85-.39-6.05-.39-1.18,0-2.84.16-4.32.87-1.01-.86-3.23-1.6-4.8-1.87l1.42-7.89h.67v2.63c0,1.05.12,2.07,1.56,2.07,1.56,0,1.73-1.12,1.73-1.97v-18.8c0-4.45-.93-7.66-2.76-9.54,1.01-.53,1.7-1.36,1.7-2.12,0-.83-.92-1.56-1.66-2.01,1.72-1.43,2.72-4.26,2.72-7.78v-20.27c0-.73-.16-1.58-1.38-1.58-1.1,0-1.67.44-1.9,1.47v.05s-.01,2.79-.01,2.79h-.5l-1.41-7.46c1.94-.17,3.7-.76,4.95-1.66.65.24,1.45.42,2.67.61,1.2.19,2.77.3,4.31.3,2.83,0,4.77-.29,6.44-.6,1.43-.26,2.66-.38,3.97-.38,2.08,0,3.49.2,4.86.38.39.05.78.12,1.17.19,1.06.19,2.27.4,3.85.4,1.25,0,2.91-.46,4.09-.89.72.67,2.2,1.25,3.55,1.52-.62.86-.91,2.27-.91,4.35v9.4c0,2.28.15,3.85.87,4.99-4.37,1.16-5.39,2.67-5.45,7.83h-.42c-.08-4.81-1.33-6.59-5.64-7.78.9-1.03,1.24-2.52,1.24-5.13v-5.97c0-3.73-1.62-5.4-5.26-5.4s-5.26,1.69-5.26,5.5v19.49c0,4.37,1.29,5.2,3.68,5.2,1.47,0,2.62-1.06,2.62-1.97,0-.82-.33-1.25-.63-1.63l-.17-.23c-.27-.45-.61-1.17-.61-1.86,0-.92,1.66-1.79,3.06-2.06-.12.3-.18.62-.18.98,0,.91.96,1.61,2.73,2.59.88.49,1.86,1.54,1.86,2.21,0,1.15-1.35,1.87-2.49,2.27l-1.14.4,3.95,1.9-4.1,1.68,1.07.48c1.82.81,2.7,1.68,2.7,2.68,0,.81-.53,1.46-1.88,2.32-2.47,1.26-3.58,1.88-3.58,2.87,0,.4.12.79.35,1.15-.65-.08-1.26-.28-1.74-.57-.44-.27-.96-.74-.96-1.46,0-.68.31-1.41.95-2.24.58-.65.81-1.24.81-2.17,0-1.27-1.76-1.97-2.97-1.97-3.32,0-3.32,1.83-3.32,7.26v20.08c0,2.94,2.15,3.54,5.62,3.54s4.91-.76,4.91-5.49v-7.05c0-2.12-.16-3.83-.89-5.07,4.18-1.01,5.74-2.16,5.83-7.85h.24c.07,5.87,1.41,6.83,5.67,7.98-.93,1.1-1.44,2.81-1.44,4.94v8.72c0,3.71.21,5.05.94,5.89-1.31.31-3.01.87-3.75,1.41l-.33-.07c-.64-.15-1.24-.29-1.96-.37-.88-.1-1.78-.2-2.88-.2-2.02,0-3.4.23-4.51.41l-.51.08-.72.11c-1.18.18-2.51.38-4.67.38Z"/>
          <path d="M405.97,366.26c2.04,0,3.38.18,4.8.38.38.05.75.12,1.14.19,1.08.19,2.31.41,3.94.41,1.22,0,2.79-.4,3.99-.82.71.55,1.79,1,2.88,1.29-.54,1.16-.64,2.67-.64,4.02v9.4c0,1.77.06,3.38.64,4.68-3.08.92-4.45,2.18-4.96,4.94-.58-2.58-2.03-3.92-4.99-4.86.65-1.08.91-2.56.91-4.86v-5.97c0-3.97-1.89-5.9-5.76-5.9s-5.76,1.91-5.76,6v19.49c0,4.16,1.13,5.7,4.18,5.7,1.78,0,3.12-1.3,3.12-2.47,0-.99-.41-1.52-.73-1.94-.04-.06-.09-.12-.14-.18-.35-.6-.54-1.15-.54-1.6,0-.41.87-1.02,1.89-1.37,0,.09-.01.19-.01.29,0,1.15,1.05,1.95,2.98,3.03.83.46,1.6,1.39,1.6,1.77,0,.66-.79,1.32-2.16,1.8l-2.27.8,2.17,1.04,1.85.89-1.98.81-2.17.89,2.14.95c2.4,1.07,2.4,1.93,2.4,2.22,0,.6-.45,1.13-1.61,1.87-2.49,1.27-3.85,1.98-3.85,3.32,0,.15.01.3.04.45-.79-.27-1.39-.74-1.39-1.34,0-.55.27-1.18.83-1.91.66-.75.94-1.48.94-2.5,0-1.61-2.02-2.47-3.47-2.47-3.82,0-3.82,2.27-3.82,7.76v20.08c0,3.72,3.16,4.04,6.12,4.04,4.15,0,5.41-1.4,5.41-5.99v-7.05c0-1.9-.13-3.49-.67-4.74,2.96-.81,4.52-1.87,5.19-4.42.62,2.77,2.11,3.68,5,4.51-.72,1.17-1.11,2.76-1.11,4.65v8.72c0,3,.13,4.56.64,5.58-1.08.3-2.29.72-3.04,1.18-.04,0-.08-.02-.12-.03-.65-.15-1.27-.3-2.02-.38-.89-.1-1.81-.2-2.93-.2-2.06,0-3.46.23-4.59.42l-.49.08c-.24.03-.48.07-.73.11-1.16.17-2.47.37-4.6.37-1.4,0-2.65-.18-3.87-.36-.56-.08-1.11-.16-1.66-.22-1.67-.19-3.88-.4-6.11-.4-1.16,0-2.77.15-4.25.79-1.05-.75-2.83-1.37-4.29-1.68l1.01-5.62v.76c0,.77,0,2.57,2.06,2.57,1.02,0,2.23-.43,2.23-2.47v-18.8c0-4.25-.83-7.41-2.48-9.42.87-.61,1.43-1.43,1.43-2.23,0-.85-.66-1.56-1.36-2.08,1.54-1.62,2.42-4.38,2.42-7.71v-20.27c0-1.72-1.02-2.08-1.88-2.08-1.32,0-2.11.61-2.39,1.86l-.02.11v.11h0s-.81-4.29-.81-4.29c1.7-.22,3.26-.76,4.44-1.54.63.21,1.41.38,2.51.55,1.22.19,2.83.31,4.39.31,2.87,0,4.84-.29,6.53-.6,1.4-.26,2.6-.37,3.88-.37M420.08,365.26c-1.24.49-3,.98-4.23.98-2.12,0-3.53-.39-4.94-.59-1.41-.2-2.82-.39-4.94-.39-1.24,0-2.47.1-4.06.39s-3.53.59-6.35.59c-1.41,0-3-.1-4.23-.29-1.24-.2-2.12-.39-2.82-.69-1.24.98-3.18,1.67-5.47,1.76l1.59,8.42h1.41v-3.23c.18-.78.53-1.08,1.41-1.08.71,0,.88.29.88,1.08v20.27c0,4.5-1.59,6.95-3.18,7.83,1.23.59,2.12,1.37,2.12,1.96,0,.69-.88,1.57-2.12,1.96,1.23.98,3.18,3.33,3.18,9.7v18.8c0,1.08-.35,1.47-1.23,1.47s-1.06-.39-1.06-1.57v-3.13h-1.59l-1.59,8.81c1.76.2,4.59,1.17,5.29,2.06,1.23-.69,2.82-.98,4.41-.98,2.12,0,4.23.2,6,.39,1.76.2,3.53.59,5.65.59,2.65,0,4.06-.29,5.47-.49,1.23-.2,2.65-.49,4.94-.49,1.06,0,1.94.1,2.82.2.88.1,1.59.29,2.47.49.53-.59,3.35-1.47,4.76-1.67-1.24-.78-1.59-1.37-1.59-6.17v-8.72c0-2.45.71-4.31,1.94-5.19-4.94-1.27-6.17-1.76-6.17-8.23h-1.23c0,6.07-1.41,6.95-6.17,8.03,1.06,1.17,1.23,3.13,1.23,5.39v7.05c0,4.31-1.06,4.99-4.41,4.99-3.71,0-5.12-.69-5.12-3.04v-20.08c0-5.48,0-6.76,2.82-6.76,1.06,0,2.47.59,2.47,1.47,0,.78-.18,1.27-.71,1.86-.53.69-1.06,1.57-1.06,2.55,0,1.61,1.92,2.57,3.87,2.57.18,0,.36,0,.54-.02-.71-.49-1.06-1.08-1.06-1.66,0-.69,1.06-1.27,3.35-2.45,1.23-.78,2.12-1.57,2.12-2.74,0-1.37-1.23-2.35-3-3.13l4.06-1.67-3.88-1.86c1.94-.69,2.82-1.67,2.82-2.74,0-.98-1.23-2.15-2.12-2.64-1.76-.98-2.47-1.57-2.47-2.15s.18-1.08.71-1.57c-.06,0-.13,0-.19,0-1.62,0-4.4,1.14-4.4,2.65,0,.78.35,1.57.71,2.15.35.49.71.78.71,1.57,0,.59-.88,1.47-2.12,1.47-1.94,0-3.18-.39-3.18-4.7v-19.49c0-3.92,1.76-5,4.76-5,3.35,0,4.76,1.47,4.76,4.9v5.97c0,3.23-.53,4.5-1.76,5.39,4.94,1.17,6.17,2.64,6.17,8.03h1.41c0-5.58.88-6.86,5.82-8.03-1.06-1.08-1.23-2.74-1.23-5.29v-9.4c0-2.84.53-4.21,1.59-4.7-1.76-.1-4.06-.98-4.59-1.76h0Z"/>
        </g>
        <g>
          <path d="M456.59,439.78c-.95-.97-3.33-1.46-4.8-1.55l-.31-7.05h.29l.47,2.78.03.06c.34.76.94,1.17,1.69,1.17.41,0,.75-.16.98-.45.29-.37.36-.93.21-1.54l-1.23-9.88-.02-.05c-.42-1.15-1.64-2.39-3.82-2.39h-5.65c-2.16,0-3.32,1.32-3.32,2.56l-1.23,10.03c0,1.09.73,1.83,1.73,1.83.9,0,1.63-.71,1.88-1.41l.02-.06.31-3.04h.28v7.54c-1.42.09-2.95.57-3.71,1.42-.72-.31-1.54-.48-2.4-.64-1.09-.1-2.17-.2-3.09-.2-1.81,0-3.45.3-4.78.86-.77-.83-2.43-1.45-3.65-1.6l.93-7.17h.3v2.54c0,.72.33,1.58,1.91,1.58,1.28,0,1.73-.85,1.73-1.58l2.64-21.29c.63-4.48-.38-6.36-1.58-7.58.83-.5,1.58-1.24,1.58-2.08,0-.69-.49-1.43-1.34-2.05,1.88-1.27,3.37-3.08,4.15-8.75l3.82-24.4c1.31-.22,2.28-.74,2.79-1.47.67.22,1.65.38,2.68.54,1.33.19,2.95.3,4.15.3,2.23,0,5.1-.31,6.52-.85.54.73,1.41,1.22,2.57,1.46l3.65,24.42c.88,6.34,2.12,7.83,3.98,8.73-1.04.58-1.52,1.35-1.52,1.96,0,.82.77,1.71,1.86,2.24-1.12,1.29-1.98,3.79-1.51,7.62l2.82,21.16c0,.99.76,1.71,1.91,1.71.98,0,1.73-.9,1.73-1.67v-2.54h.5l1.4,7.17c-1.19.15-2.66.72-3.31,1.58-.74-.27-1.77-.43-2.77-.59l-.3-.05c-1.43-.1-2.87-.2-4.14-.2-2.18,0-5.25.23-7.07.88ZM446.31,404.61c-1.4,1.28-2.78,3.97-3.09,6.22-.1,1.36.13,2.27.71,2.89.65.7,1.73,1.01,3.49,1.01,2.08,0,3.2-.3,3.85-1.04.54-.62.71-1.52.53-2.85-.32-2.6-1.76-4.95-2.88-6.2.68-.47,1.31-1.14,1.12-2.11-.02-.81-.47-1.52-1.34-2.13.77-1.34.81-4.22.81-4.87l-.71-9.54c0-1.65-.97-1.83-1.38-1.83-1.21,0-1.21,1.31-1.21,1.87l-.88,9.45c0,1.73.5,3.86,1.29,4.94-.68.47-1.3,1.13-1.3,2.16,0,.89.33,1.57.98,2.03Z"/>
          <path d="M443.6,366.47c.61.16,1.41.3,2.46.47,1.33.18,2.97.3,4.2.3,1.69,0,4.61-.21,6.35-.76.55.6,1.32,1.03,2.29,1.28l3.6,24.08c.79,5.67,1.91,7.64,3.53,8.71-.68.56-1.07,1.23-1.07,1.93,0,.87.64,1.77,1.62,2.4-1.01,1.48-1.69,3.97-1.26,7.53l2.82,21.1c.04,1.3,1.02,2.2,2.41,2.2,1.25,0,2.19-1.1,2.23-2.11l.81,4.16c-1.05.21-2.18.69-2.89,1.41-.74-.22-1.64-.37-2.53-.5l-.3-.05h-.04s-.04,0-.04,0c-1.4-.1-2.84-.2-4.13-.2-2.11,0-5.05.22-6.95.81-1.08-.88-3.04-1.3-4.44-1.44l-.13-2.98c.45.59,1.08.91,1.82.91.56,0,1.05-.23,1.38-.65.37-.48.49-1.17.31-1.9l-1.23-9.83v-.11s-.05-.1-.05-.1c-.47-1.31-1.85-2.72-4.29-2.72h-5.65c-2.44,0-3.78,1.53-3.82,2.99l-1.23,10.03v.06s0,.06,0,.06c0,1.32.94,2.27,2.23,2.27.87,0,1.57-.49,2-1.08v3.15c-1.23.15-2.51.57-3.33,1.29-.68-.25-1.43-.41-2.19-.55h-.04s-.04-.01-.04-.01c-1.06-.1-2.15-.2-3.09-.2-1.74,0-3.33.27-4.66.77-.83-.73-2.14-1.21-3.21-1.43l.41-3.18c.29.54.89,1.04,2.17,1.04,1.51,0,2.2-1,2.23-2.01l2.64-21.28c.58-4.07-.18-6.17-1.33-7.57.66-.5,1.34-1.23,1.34-2.17,0-.7-.36-1.4-1.02-2.02,1.73-1.33,3.09-3.37,3.83-8.69l3.77-24.07c1.11-.24,1.97-.69,2.53-1.32M445.72,385.98l-.88,9.45v.05s0,.05,0,.05c0,1.39.35,3.44,1.12,4.78-.57.48-1.12,1.21-1.12,2.27,0,.83.25,1.53.75,2.06-1.35,1.46-2.55,3.95-2.86,6.13v.03s0,.03,0,.03c-.1,1.47.17,2.5.85,3.23.97,1.03,2.57,1.17,3.85,1.17,1.64,0,3.29-.15,4.22-1.21.84-.96.78-2.32.65-3.24-.3-2.45-1.56-4.69-2.66-6.06.56-.5,1.08-1.24.9-2.25-.03-.84-.44-1.59-1.21-2.23.6-1.43.69-3.63.69-4.72v-.07s-.71-9.46-.71-9.46c-.01-1.72-.98-2.33-1.88-2.33-1.12,0-1.69.78-1.71,2.32M456.95,365.26c-1.06.59-4.23.98-6.7.98-1.06,0-2.65-.1-4.06-.29-1.23-.2-2.47-.39-3-.69-.35.88-1.41,1.47-3,1.67l-3.88,24.78c-.88,6.37-2.65,7.64-4.59,8.81,1.06.59,1.76,1.37,1.76,2.06,0,.78-1.06,1.57-1.94,1.96,1.23,1.08,2.65,2.64,1.94,7.64l-2.65,21.35c0,.39-.18,1.08-1.23,1.08s-1.41-.39-1.41-1.08v-3.04h-1.23l-1.06,8.13c1.23,0,3.53.78,4.06,1.76,1.41-.69,3.18-.98,4.94-.98.88,0,1.94.1,3,.2,1.06.2,1.94.39,2.65.78.53-.98,2.47-1.57,4.06-1.57v-8.52h-1.23l-.35,3.43c-.18.49-.71,1.08-1.41,1.08s-1.23-.49-1.23-1.27l1.23-10.09c0-1.08,1.06-2.06,2.82-2.06h5.65c1.94,0,3,1.08,3.35,2.06l1.23,9.89c.18.69,0,1.37-.71,1.37s-1.06-.49-1.24-.88l-.53-3.13h-1.24l.35,8.03c1.76,0,4.59.69,5.12,1.67,1.59-.69,4.76-.98,7.23-.98,1.23,0,2.65.1,4.06.2,1.23.2,2.65.39,3.35.78.35-.98,2.29-1.76,3.71-1.76l-1.59-8.13h-1.41v3.04c0,.49-.53,1.17-1.23,1.17-.88,0-1.41-.49-1.41-1.27l-2.82-21.15c-.53-4.31.71-6.86,1.94-7.74-1.41-.39-2.29-1.37-2.29-2.06,0-.59.71-1.47,2.29-1.96-2.12-.88-3.71-1.17-4.76-8.81l-3.71-24.78c-1.23-.2-2.29-.69-2.82-1.67h0ZM447.43,414.23c-2.82,0-3.88-.78-3.7-3.33.35-2.55,2.12-5.58,3.53-6.37-1.06-.39-1.41-1.08-1.41-1.96,0-.98.71-1.57,1.59-2.06-.88-.59-1.59-3.04-1.59-4.99l.88-9.5c0-.98.18-1.37.71-1.37s.88.39.88,1.37l.71,9.5c0,1.17-.18,4.41-1.06,4.99,1.06.59,1.59,1.27,1.59,2.06.18.78-.35,1.37-1.41,1.96,1.06.98,2.82,3.53,3.18,6.37.35,2.64-.71,3.33-3.88,3.33h0Z"/>
        </g>
        <g>
          <path d="M495.76,439.88c-2.5,0-4.67-.16-6.62-.48-2.09-.35-3.6-.5-5.02-.5-1.55,0-2.34.35-3.27.86-.99-.88-2.32-1.46-4.1-1.78.73-.89,1.17-2.26,1.17-4.85v-10.48c0-2.13-.45-3.87-1.25-4.96,4.22-.83,5.75-2.24,5.83-7.37h.24c.11,5,1.91,6.51,5.57,7.36-.57.94-.81,2.49-.81,4.97v6.56c0,4.55,1.95,6.77,5.97,6.77,4.79,0,7.03-1.84,7.03-5.79,0-9.59-6.57-18.26-8.58-20.69-1.93-2.39-3.62-3.7-5.49-4.21.48-.84.45-1.83.06-2.48-.72-.81-1.92-1.4-3.33-1.69.7-1.54.28-3.58-1.26-6.06-1.99-3.31-5.75-11.46-5.75-18.64,0-4.92,4.35-10.66,16.61-10.66,1.55,0,2.79.16,4.1.33.44.06.87.11,1.32.16.36.04.73.1,1.11.15,1.23.17,2.5.35,3.89.35,1.3,0,2.72-.46,3.57-.85.98,1.06,2.73,1.61,4.29,1.72-.63,1.22-.95,3.16-.95,4.8v8.13c0,2.8.46,4.55,1.56,5.72-3.97,1.08-5.18,2.96-5.26,7.88h-.42c-.07-5.48-1.29-6.84-5.37-7.91.91-1.11,1.32-2.53,1.32-5.89v-5.29c0-3.39-2.76-5.49-7.2-5.49s-5.44,2.62-5.44,4.81c0,3.98,2.36,11.03,3.58,13.54,2.5,5.15,7.02,11.14,11.39,12.89-.38.39-.64.85-.71,1.31-.08.5.04.95.34,1.29.52.68,1.76,1.06,2.98,1.19-.93,1.76-.41,4.23,1.56,7.36,2.09,3.48,5.04,10.66,5.04,15.7,0,6.09-5.46,12.23-17.67,12.23Z"/>
          <path d="M492.77,366.26c1.52,0,2.74.16,4.04.32.44.06.88.11,1.31.16.37.05.74.1,1.11.15,1.25.17,2.54.35,3.96.35,1.29,0,2.59-.4,3.46-.76.94.85,2.33,1.35,3.67,1.55-.49,1.3-.72,2.97-.72,4.38v8.13c0,2.5.36,4.22,1.2,5.45-2.69.88-4.04,2.26-4.59,4.88-.55-2.91-1.96-4.08-4.79-4.93.75-1.25,1.01-2.85,1.01-5.6v-5.29c0-3.7-2.95-5.99-7.7-5.99-5.17,0-5.94,3.33-5.94,5.31,0,4.06,2.4,11.22,3.63,13.76,2.42,5,6.74,10.78,11.05,12.86-.21.33-.35.68-.41,1.04-.11.64.05,1.23.44,1.68.55.69,1.6,1.09,2.66,1.29-.62,1.86,0,4.27,1.84,7.2,2.07,3.44,4.97,10.51,4.97,15.45,0,5.41-4.5,11.73-17.17,11.73-2.48,0-4.61-.16-6.54-.48-2.12-.35-3.65-.5-5.1-.5s-2.35.32-3.21.76c-.88-.7-1.97-1.2-3.35-1.52.59-1.07.85-2.5.85-4.51v-10.48c0-1.86-.34-3.45-.95-4.62,2.95-.68,4.55-1.79,5.19-4.48.72,2.62,2.37,3.77,4.93,4.46-.41,1.02-.58,2.49-.58,4.64v6.56c0,4.82,2.18,7.27,6.47,7.27,5.07,0,7.53-2.06,7.53-6.29,0-9.75-6.66-18.55-8.69-21-1.82-2.25-3.44-3.58-5.2-4.21.29-.87.19-1.79-.19-2.43l-.05-.08-.06-.07c-.64-.71-1.71-1.29-2.98-1.63.46-1.61-.04-3.61-1.49-5.95-1.96-3.27-5.68-11.32-5.68-18.39,0-4.91,4.23-10.16,16.11-10.16M506.88,365.26c-.71.39-2.29.98-3.71.98-1.76,0-3.35-.29-4.94-.49-1.76-.2-3.35-.49-5.47-.49-11.82,0-17.11,5.29-17.11,11.16,0,7.25,3.7,15.38,5.82,18.9,1.94,3.13,1.76,5,.88,6.17,1.59.2,3,.78,3.71,1.57.35.59.35,1.76-.53,2.55,1.94.29,3.71,1.37,6,4.21,4.06,4.9,8.47,12.63,8.47,20.37,0,3.33-1.59,5.29-6.53,5.29-3,0-5.47-1.18-5.47-6.27v-6.56c0-3.04.35-4.6,1.24-5.29-4.06-.78-6-1.96-6-7.54h-1.23c0,5.78-1.59,6.76-6.35,7.54,1.06.78,1.76,2.64,1.76,5.29v10.48c0,3.23-.71,4.41-1.76,5.19,2.47.29,4.06.98,5.12,2.06,1.06-.59,1.76-.98,3.35-.98s3.18.2,4.94.49c1.76.29,3.88.49,6.7.49,12.88,0,18.17-6.56,18.17-12.73,0-5.39-3.18-12.73-5.12-15.96-2.65-4.21-2.12-6.37-1.06-7.54-1.41,0-3-.39-3.53-1.08-.53-.59-.18-1.76,1.06-2.45-4.59-1.18-9.53-7.83-12-12.93-1.23-2.55-3.53-9.5-3.53-13.32,0-2.64,1.41-4.31,4.94-4.31,3.88,0,6.7,1.67,6.7,4.99v5.29c0,3.82-.53,5-1.76,6.17,4.59,1.08,5.82,2.06,5.82,8.13h1.41c0-5.78,1.41-7.15,5.82-8.13-1.41-.98-2.12-2.55-2.12-5.97v-8.13c0-2.06.53-4.5,1.41-5.29-.12,0-.25,0-.37,0-1.85,0-3.92-.68-4.74-1.87h0Z"/>
        </g>
        <g>
          <path d="M533.11,439.88c-4.21,0-14.09-2.76-14.09-8.12v-20.66c0-3.49-1.26-5.26-2.67-6.43,1.16-.55,1.79-1.24,1.79-1.99s-.64-1.47-1.66-1.97c1.49-1.04,2.54-2.68,2.54-7.33v-18.31c0-4.92,6.52-9.23,13.98-9.29.47.3,1.26.47,2.15.67,1.05.2,2.47.31,3.83.31,2.04,0,4.71-.26,5.81-.98,3.67.04,13.45,1.59,13.45,8.12v17.82c0,5.68.89,7.16,2.59,8.27-1.03.58-1.71,1.43-1.71,2.21,0,.84.56,1.52,1.7,2.07-1.76,1.42-2.59,4.16-2.59,8.51v15.47c0,8.23-9.08,11.65-13.94,11.65h-.04c-.62-.42-1.38-.69-2.22-.78-1.07-.2-2.15-.2-3.41-.2-2.35,0-4.4.08-5.49.98h-.03ZM535.51,404.8c-1.62,1.36-2.32,4.09-2.32,8.85v18.12c0,3.74,2.91,4.22,5.44,4.22,2.69,0,5.44-.5,5.44-4.22v-18.61c0-5.32-.89-7.43-2.47-8.64.95-.52,1.77-1.24,1.77-2.03s-.66-1.56-1.71-2.13c2.1-1.59,2.42-4.6,2.42-7.67v-19.39c0-2.72-1.52-3.83-5.26-3.83-2.78,0-5.62.47-5.62,3.93v19.2c0,4.85,1.05,6.67,2.25,7.63-1.09.55-1.72,1.36-1.72,2.26s.6,1.65,1.79,2.32Z"/>
          <path d="M532.88,366.27c.55.29,1.31.46,2.17.66h.03s.02.01.02.01c1.05.19,2.5.31,3.89.31,1.05,0,4.38-.07,5.94-.98,3.64.08,12.81,1.57,12.81,7.61v17.82c0,5.23.78,7.08,2.21,8.25-.83.64-1.33,1.45-1.33,2.23,0,1.03.64,1.72,1.35,2.17-1.52,1.61-2.23,4.34-2.23,8.4v15.47c0,8.42-9.66,11.09-13.33,11.15-.65-.41-1.43-.68-2.28-.77-1.14-.21-2.23-.21-3.5-.21-2.44,0-4.43.08-5.66.98-4.7-.06-13.45-3.01-13.45-7.62v-20.66c0-3.23-1.07-5.1-2.32-6.33.93-.59,1.43-1.31,1.43-2.09s-.47-1.48-1.28-2.04c1.27-1.15,2.16-3.04,2.16-7.27v-18.31c0-4.62,6.21-8.68,13.35-8.79M534.62,400.12c-.89.62-1.39,1.44-1.39,2.36s.5,1.72,1.49,2.41c-1.75,1.98-2.02,5.46-2.02,8.76v18.12c0,4.23,3.39,4.72,5.94,4.72,2.77,0,5.94-.54,5.94-4.72v-18.61c0-4.88-.79-7.21-2.14-8.57.73-.5,1.43-1.21,1.43-2.11,0-.79-.51-1.57-1.37-2.19,1.79-1.78,2.08-4.67,2.08-7.6v-19.39c0-3.81-2.91-4.33-5.76-4.33s-6.12.5-6.12,4.43v19.2c0,4.15.73,6.27,1.92,7.54M544.63,365.26c-.71.59-3,.98-5.65.98-1.24,0-2.65-.1-3.71-.29-.88-.2-1.76-.39-2.12-.69-7.59,0-14.64,4.41-14.64,9.79v18.31c0,5.39-1.41,6.46-3.18,7.44,1.41.39,2.29,1.18,2.29,1.86s-.88,1.37-2.29,1.86c1.41.98,3.18,2.55,3.18,6.56v20.66c0,5.69,9.91,8.62,14.59,8.62.08,0,.15,0,.23,0,.88-.88,2.82-.98,5.29-.98,1.23,0,2.29,0,3.35.2.88.1,1.59.39,2.12.78.07,0,.13,0,.2,0,4.67,0,14.44-3.27,14.44-12.15v-15.47c0-5.58,1.41-7.74,3.18-8.62-1.76-.59-2.29-1.27-2.29-1.96s.88-1.67,2.29-2.15c-1.94-1.08-3.18-1.76-3.18-8.32v-17.82c0-6.95-10.06-8.62-14.11-8.62h0ZM538.63,435.48c-3.35,0-4.94-.98-4.94-3.72v-18.12c0-4.8.71-7.83,2.82-8.91-1.59-.69-2.29-1.47-2.29-2.25s.71-1.67,2.29-2.15c-1.41-.78-2.82-2.06-2.82-7.74v-19.2c0-2.45,1.41-3.43,5.12-3.43s4.76,1.08,4.76,3.33v19.39c0,3.72-.53,6.56-3,7.74,1.41.49,2.29,1.37,2.29,2.06s-1.06,1.47-2.29,1.96c1.59.88,3,2.25,3,8.72v18.61c0,2.94-1.76,3.72-4.94,3.72h0Z"/>
        </g>
        <g>
          <path d="M602.83,439.76c-1.49-.93-3.94-1.31-5.96-1.35l-7.66-26.67c-1.01-3.28-2.47-5.67-4.16-6.86.64-.6.97-1.38.83-2.07-.01-.91-.32-1.58-1.72-2.38.63-1.29.44-3.47-.06-5.15l-2.38-9.46h-1.77v9.61c0,2.26.59,4.19,1.55,5.21-1,.63-1.55,1.41-1.55,2.23s.62,1.63,1.59,2.2c-1.1,1.34-1.59,3.8-1.59,7.79v20.57c0,.9.33,1.97,1.91,1.97.8,0,1.74-.52,1.74-1.97v-2.54h.31l1.24,7.34c-2.06.09-4.53.65-5.78,1.53-.48-.28-1.15-.48-1.86-.56-.81-.18-1.9-.3-2.88-.3-.91,0-3.03.09-4.35.84-1.08-.9-3.1-1.48-4.75-1.6l1.4-7.25h.32v3.03c0,.45.19,1.48,1.91,1.48,1.53,0,1.74-1.29,1.74-2.56v-20.37c0-4.59-1.12-6.45-2.49-7.48.9-.55,1.43-1.28,1.43-2.02s-.55-1.54-1.47-2.23c1.74-1.12,2.53-2.85,2.53-7.86v-20.27c0-1.6-.26-2.17-1.74-2.17-1.21,0-1.91.68-1.91,1.87v2.44h-.33l-1.56-7.63c2.18-.08,4.36-.59,5.65-1.33l2.27.54c.86.19,1.98.41,3.11.41,2.1,0,3.77-.48,5.11-.86l.25-.07c1.02.72,3.29,1.45,5.3,1.45.09,0,.19,0,.28,0l11.81,33.96h1.74v-28.9c0-1.67-1.44-1.67-1.91-1.67-.77,0-1.91.58-1.91,2.17v2.05h-.5l-1.41-7.64c2-.12,4.35-.79,5.32-1.41l1.89.52c1.27.28,2.2.41,2.96.41,1.85,0,3.8-.44,5.13-.89.77.71,2.59,1.25,4.16,1.36l-1.25,7.44h-.31v-2.14c0-1.18-.64-1.77-1.91-1.77-1.44,0-1.73.9-1.73,2.36v19.88c0,4.52,1.53,6.67,2.68,7.64-1.32.7-1.62,1.41-1.62,2.25s.75,1.63,1.93,2.19c-1.62,1.61-2.85,5.64-2.99,10.13l-.52,23.03c-1.85.08-4.63.57-6.05,1.54Z"/>
          <path d="M571.07,366.33l2.1.5c.87.19,2.03.42,3.22.42,2.17,0,3.87-.49,5.24-.88h.03c1.24.77,3.48,1.38,5.31,1.39l11.58,33.28.23.67h2.59v-29.4c0-.99-.42-2.17-2.41-2.17-1.05,0-2.15.75-2.37,2.14l-.85-4.62c1.83-.19,3.76-.76,4.79-1.32l1.69.47h.03s.03.01.03.01c1.28.28,2.24.42,3.04.42,1.79,0,3.67-.4,5.03-.83.88.65,2.37,1.07,3.68,1.24l-.65,3.88c-.25-.65-.85-1.3-2.24-1.3-1.97,0-2.23,1.45-2.23,2.86v19.88c0,4.09,1.23,6.34,2.36,7.55-.91.62-1.3,1.36-1.3,2.34,0,.87.61,1.71,1.65,2.34-1.5,1.94-2.57,5.71-2.71,9.98l-.51,22.57c-1.63.12-4.05.53-5.57,1.42-1.72-.95-4.18-1.19-5.57-1.25l-7.56-26.34c-.95-3.09-2.31-5.43-3.9-6.76.49-.63.72-1.38.59-2.06-.03-1.08-.47-1.82-1.6-2.53.54-1.59.18-3.81-.2-5.04l-2.29-9.11-.19-.76h-2.66v10.11c0,2.12.48,3.94,1.32,5.11-.86.67-1.32,1.47-1.32,2.33s.53,1.69,1.38,2.33c-.95,1.5-1.38,3.95-1.38,7.66v20.57c0,1.57.88,2.47,2.41,2.47.9,0,1.81-.5,2.12-1.59l.59,3.46c-1.87.15-3.95.66-5.23,1.42-.49-.23-1.09-.4-1.73-.48-.9-.19-1.98-.31-2.99-.31-1.09,0-2.95.11-4.3.75-1.08-.76-2.71-1.27-4.2-1.46l.66-3.41c.15.83.83,1.61,2.38,1.61,2.24,0,2.24-2.22,2.24-3.06v-20.37c0-4.21-.97-6.27-2.18-7.45.71-.59,1.12-1.31,1.12-2.05s-.42-1.52-1.16-2.2c1.5-1.23,2.21-3.21,2.21-7.89v-20.27c0-1.46-.17-2.67-2.24-2.67-1.27,0-2.13.66-2.35,1.76l-.84-4.11c1.96-.14,3.87-.61,5.11-1.26M610.61,365.26c-1.06.39-3.18.98-5.29.98-.88,0-1.94-.2-2.82-.39l-2.12-.59c-.71.59-3.53,1.47-5.82,1.47l1.59,8.62h1.41v-2.55c0-1.27.88-1.67,1.41-1.67.71,0,1.41.1,1.41,1.17v28.4h-.88l-11.82-33.98c-.2.02-.41.03-.63.03-2.01,0-4.4-.79-5.19-1.5-1.41.39-3.18.98-5.47.98-1.06,0-2.12-.2-3-.39l-2.47-.59c-1.24.78-3.71,1.37-6.17,1.37l1.76,8.62h1.24v-2.94c0-.98.53-1.37,1.41-1.37,1.06,0,1.24.2,1.24,1.67v20.27c0,5.68-1.06,6.86-3,7.83,1.24.69,1.94,1.57,1.94,2.25s-.71,1.47-1.94,1.96c1.59.88,3,2.45,3,7.54v20.37c0,1.57-.35,2.06-1.24,2.06-.71,0-1.41-.2-1.41-.98v-3.53h-1.24l-1.59,8.23c1.94,0,4.41.78,5.29,1.76.88-.69,2.65-.98,4.41-.98.88,0,1.94.1,2.82.29.88.1,1.59.39,1.94.69,1.06-.98,4.06-1.67,6.35-1.67l-1.41-8.32h-1.23v3.04c0,1.17-.71,1.47-1.24,1.47-.71,0-1.41-.2-1.41-1.47v-20.57c0-4.7.71-6.95,1.94-7.93-1.23-.49-1.94-1.37-1.94-2.06,0-.78.71-1.57,1.94-2.15-1.06-.59-1.94-2.55-1.94-5.29v-9.11h.88l2.29,9.11c.53,1.76.71,4.21-.18,5.19,1.76.88,1.94,1.47,1.94,2.25.18.69-.35,1.57-1.23,2.06,1.59.78,3.35,2.94,4.59,6.95l7.76,27.03c2.12,0,4.94.39,6.35,1.47,1.24-1.08,4.59-1.67,6.53-1.67l.53-23.5c.18-5.48,1.94-9.6,3.53-10.28-1.59-.49-2.47-1.37-2.47-2.06s.18-1.37,2.12-2.15c-1.23-.69-3.17-2.74-3.17-7.74v-19.88c0-1.57.35-1.86,1.23-1.86s1.41.29,1.41,1.27v2.64h1.24l1.41-8.42c-1.94,0-4.23-.78-4.59-1.47h0Z"/>
        </g>
        <g>
          <path d="M657.18,439.88c-2.06,0-3.96-.24-5.5-.43l-.44-.05c-.62-.08-1.19-.17-1.71-.25-.8-.13-1.49-.24-2.06-.24-1.24,0-2.37.28-3.23.79-.71-.81-2.02-1.36-3.5-1.46.02-9.38.66-17.87,7.31-26.54,2.22-2.88,3.29-5.53,2.95-7.19,1.72-.2,3.68-1.09,3.68-2.61,0-.96-.73-1.62-1.53-2.08,1.17-.74,2.36-2.04,4.13-5.63l.19-.41c2.01-4.26,3.74-7.94,3.74-18.02,0-4.07-.47-5.98-4.73-5.98s-4.73,2.45-4.73,5.1v6.46c0,1.94.07,3.47.86,4.51-4.52,1.04-5.89,2.89-5.97,7.82h-.24c-.11-5.5-2.05-6.62-5.96-7.79.64-.9.85-1.97.85-3.95v-6.56c0-5.94,3.3-8.81,11.04-9.57.63.33,1.34.59,2.11.76.87.1,2.15.21,3.64.21,2.8,0,4.59-.32,5.45-.96,8.17.79,11.51,3.82,11.51,10.45,0,8.98-1.28,12.88-4.88,19.34-1.31,2.51-1.87,4.36-1.66,5.51-1.97.33-3.88,1.16-3.88,2.66,0,.67.22,1.31.61,1.8-1.67,1.22-3.95,3.3-5.08,4.64-5.48,6.5-8.76,15.42-8.76,20.3,0,2.17,2.04,2.56,6.32,2.56,5.24,0,5.97-.82,5.97-6.77v-3.62c0-2.48-.24-4.03-.81-4.97,3.65-.84,5.46-2.36,5.57-7.36h.25c.09,5.14,1.62,6.55,5.86,7.37-.27.4-.49.88-.72,1.44-.38.95-.57,2.1-.57,3.52v10.48c0,2.55.44,3.9,1.03,4.76-1.73.22-3.35.94-4.06,1.81-.35-.21-.69-.41-1.15-.5-.51-.2-.93-.3-1.68-.3-1.36,0-2.42.17-3.45.34-.34.05-.68.11-1.03.16l-.57.08c-1.3.19-2.77.4-5.18.4Z"/>
          <path d="M652.22,366.29c.64.32,1.34.57,2.1.73h.05s.05.02.05.02c.83.09,2.13.2,3.64.2,3.42,0,4.87-.48,5.59-.95,7.72.78,10.87,3.68,10.87,9.94,0,8.87-1.26,12.72-4.83,19.12-1.2,2.3-1.78,4.06-1.75,5.33-1.56.33-3.84,1.13-3.84,3.07,0,.6.15,1.18.43,1.68-1.65,1.27-3.72,3.17-4.78,4.43-5.77,6.83-8.88,15.72-8.88,20.62,0,2.83,2.96,3.06,6.82,3.06,5.5,0,6.47-1.09,6.47-7.27v-3.62c0-2.14-.17-3.61-.58-4.64,2.56-.69,4.21-1.84,4.93-4.46.65,2.71,2.25,3.81,5.24,4.49-.15.29-.28.6-.4.91-.4,1.01-.6,2.22-.6,3.7v10.48c0,1.92.23,3.31.75,4.39-1.31.27-2.58.82-3.36,1.55-.25-.14-.54-.26-.88-.34-.6-.22-1.07-.33-1.86-.33-1.4,0-2.48.17-3.53.34-.34.05-.67.11-1.02.16l-.58.08c-1.28.19-2.73.4-5.11.4-2.03,0-3.92-.24-5.43-.43l-.44-.06c-.62-.08-1.18-.17-1.69-.25-.82-.13-1.53-.25-2.14-.25-1.17,0-2.26.24-3.14.67-.74-.66-1.84-1.13-3.09-1.3.04-9.1.76-17.38,7.2-25.78,2.12-2.75,3.21-5.27,3.11-7.08,1.76-.32,3.63-1.31,3.63-3.03,0-.93-.54-1.61-1.16-2.1,1.16-.93,2.25-2.42,3.72-5.41l.19-.4c2.03-4.31,3.79-8.04,3.79-18.24,0-3.8-.38-6.48-5.23-6.48s-5.23,2.83-5.23,5.6v6.46c0,1.65.06,3.08.59,4.19-3.13.84-4.69,2.19-5.34,4.81-.75-2.86-2.54-3.87-5.31-4.76.44-.88.6-1.97.6-3.66v-6.56c0-5.66,3.03-8.3,10.44-9.06M663.36,365.26c-.71.69-2.65.98-5.29.98-1.41,0-2.65-.1-3.53-.2-.88-.2-1.59-.49-2.12-.78-7.23.69-11.64,3.13-11.64,10.09v6.56c0,2.45-.35,3.33-1.24,4.21,4.41,1.27,6.35,2.06,6.35,8.03h1.23c0-5.48,1.41-7.05,6.53-8.03-1.24-.78-1.41-2.25-1.41-4.8v-6.46c0-2.84.71-4.6,4.23-4.6,3.71,0,4.23,1.37,4.23,5.48,0,10.28-1.76,13.71-3.88,18.22-2.12,4.31-3.35,5.19-4.76,5.88,1.59.69,2.12,1.37,2.12,2.06,0,1.37-2.29,2.15-3.88,2.15.71,1.18,0,3.92-2.65,7.35-7.06,9.21-7.41,18.51-7.41,27.32,1.76,0,3.35.69,3.88,1.67.88-.69,2.12-.98,3.35-.98.88,0,2.12.29,3.71.49,1.59.2,3.7.49,6,.49,2.82,0,4.41-.29,5.82-.49,1.41-.2,2.65-.49,4.41-.49.71,0,1.06.1,1.59.29.53.1.88.39,1.41.69.35-.98,2.65-2.06,4.94-2.06-.88-.78-1.59-1.96-1.59-5.19v-10.48c0-1.37.18-2.45.53-3.33.35-.88.71-1.57,1.23-1.96-4.76-.78-6.35-1.76-6.35-7.54h-1.24c0,5.58-1.94,6.76-6,7.54.88.69,1.23,2.25,1.23,5.29v3.62c0,5.68-.53,6.27-5.47,6.27s-5.82-.59-5.82-2.06c0-4.99,3.35-13.71,8.64-19.98,1.24-1.47,3.88-3.82,5.47-4.9-.53-.39-.88-1.08-.88-1.86,0-1.37,2.29-2.06,4.06-2.25-.53-.78-.18-2.64,1.41-5.68,3.71-6.66,4.94-10.67,4.94-19.59,0-6.86-3.53-10.19-12.17-10.97h0Z"/>
        </g>
      </g>
    </g>
  </g>
</svg>